<svg width="245" height="211" viewBox="0 0 245 211" fill="none" xmlns="http://www.w3.org/2000/svg">
<path d="M117.338 169.534C135.276 169.534 152.48 162.403 165.164 149.708C177.848 137.014 184.974 119.797 184.974 101.844C184.974 83.8912 177.848 66.6739 165.164 53.9794C152.48 41.285 135.276 34.1533 117.338 34.1533C99.3999 34.1533 82.1963 41.285 69.5121 53.9794C56.8278 66.6739 49.7019 83.8912 49.7019 101.844C49.7019 119.797 56.8278 137.014 69.5121 149.708C82.1963 162.403 99.3999 169.534 117.338 169.534ZM147.193 89.4163L113.375 123.262C110.892 125.747 106.876 125.747 104.419 123.262L87.5095 106.339C85.026 103.853 85.026 99.8343 87.5095 97.3752C89.993 94.9162 94.0089 94.8897 96.466 97.3752L108.884 109.803L138.21 80.4262C140.694 77.9406 144.71 77.9406 147.167 80.4262C149.624 82.9117 149.65 86.9308 147.167 89.3899L147.193 89.4163Z" fill="#02B772"/>
<circle opacity="0.21" cx="20.0683" cy="193.157" r="11.7065" fill="#02B772"/>
<circle opacity="0.21" cx="233.293" cy="150.512" r="11.7065" fill="#02B772"/>
<circle opacity="0.21" cx="35.9555" cy="4.18089" r="4.18089" fill="#02B772"/>
<circle opacity="0.21" cx="206.536" cy="31.7749" r="7.5256" fill="#02B772"/>
<circle opacity="0.21" cx="154.693" cy="204.863" r="5.85324" fill="#02B772"/>
<circle opacity="0.21" cx="4.18089" cy="118.737" r="4.18089" fill="#02B772"/>
</svg>
