<svg width="28" height="27" viewBox="0 0 28 27" fill="none" xmlns="http://www.w3.org/2000/svg">
<path d="M20.4314 0.0184345C20.6742 0.0632224 21.079 0.457356 21.1419 0.717126C21.1689 0.824617 21.1779 1.70246 21.1599 2.67884L21.1329 4.45244L20.8361 4.71221C20.3684 5.13322 19.6579 5.04364 19.3521 4.5241C19.1363 4.1658 19.1273 0.896278 19.3341 0.493186C19.523 0.125925 19.9637 -0.0621839 20.4314 0.0184345Z" fill="#94A3B8"/>
<path d="M8.721 0.027411C9.01781 0.099072 9.27863 0.314054 9.39555 0.573824C9.45851 0.744019 9.48549 1.40688 9.46751 2.63407L9.44052 4.45246L9.14372 4.71223C8.721 5.09741 8.22633 5.07949 7.81261 4.66744L7.50681 4.36288V2.56241C7.50681 0.376757 7.56977 0.170732 8.31627 0.027411C8.44219 0.000538349 8.62207 0.000538349 8.721 0.027411Z" fill="#94A3B8"/>
<path d="M24.8743 1.83691C25.8906 2.00711 26.9699 2.82225 27.4196 3.73592C27.7524 4.42566 27.8333 4.98998 27.8333 6.72776V8.28638H14.3333H0.833328L0.869305 6.4232C0.896288 4.95415 0.941257 4.48836 1.05818 4.16589C1.44492 3.16264 2.33533 2.28479 3.30668 1.95336C3.66644 1.83691 4.08016 1.80108 5.14146 1.79212H6.51754L6.54452 3.13576C6.56251 4.31817 6.58949 4.52419 6.76038 4.84666C7.54286 6.30675 9.44958 6.30675 10.2321 4.84666C10.4029 4.51523 10.4209 4.33608 10.4299 3.13576V1.79212L14.3153 1.76525L18.2097 1.74734V2.9387C18.2097 3.72696 18.2547 4.28233 18.3447 4.57793C18.5605 5.32141 19.388 5.9574 20.1255 5.9574C20.5662 5.9574 21.1778 5.72451 21.4746 5.43786C21.9782 4.96311 22.0322 4.775 22.0772 3.22534L22.1221 1.79212L23.2914 1.78317C23.9299 1.77421 24.6495 1.80108 24.8743 1.83691Z" fill="#94A3B8"/>
<path d="M27.7972 9.83596C27.8152 9.89867 27.8242 13.1503 27.8152 17.0647L27.7882 24.186L27.5814 24.6966C27.3026 25.3774 26.8709 25.9238 26.2862 26.3179C25.2699 27.0166 26.2323 26.9629 14.5761 26.9897C3.05474 27.0166 3.56739 27.0345 2.56906 26.4433C1.71463 25.9328 1.13901 25.0907 0.950138 24.0964C0.869192 23.7113 0.851204 21.5346 0.869192 16.6616L0.896173 9.76431L14.3242 9.73743C25.2699 9.71952 27.7613 9.73743 27.7972 9.83596ZM16.5098 12.5859C16.087 12.7024 15.7093 13.0876 15.5924 13.5175C15.3226 14.5208 16.4648 15.4255 17.4002 14.9418C18.3445 14.4491 18.3535 13.1771 17.4002 12.6934C16.9415 12.4695 16.9235 12.4695 16.5098 12.5859ZM11.3112 12.6755C10.3669 13.0965 10.3129 14.3685 11.2123 14.9149C11.59 15.1478 12.0308 15.1389 12.4535 14.906C12.8942 14.6551 13.083 14.3148 13.083 13.7594C13.083 13.3832 13.0381 13.2578 12.8042 12.989C12.3725 12.5053 11.9048 12.4068 11.3112 12.6755ZM6.16666 12.7472C5.5101 13.2309 5.36619 13.9923 5.82489 14.5835C6.4095 15.3449 7.64168 15.2016 8.01043 14.3237C8.17232 13.9296 8.17232 13.625 7.99244 13.2757C7.78558 12.8905 7.64168 12.7561 7.25493 12.6218C6.86819 12.4785 6.47246 12.5232 6.16666 12.7472ZM21.2946 17.2349C19.9275 17.853 20.629 19.9043 22.104 19.6266C22.7786 19.5012 23.2822 18.6592 23.0664 18.0142C22.9045 17.5305 22.3379 17.0827 21.8522 17.0737C21.7533 17.0737 21.5014 17.1454 21.2946 17.2349ZM16.15 17.3245C15.5474 17.7545 15.3945 18.4532 15.7633 19.0623C16.4288 20.1282 18.1197 19.6266 18.1197 18.3636C18.1197 17.3783 16.9325 16.7512 16.15 17.3245ZM11.3112 17.2439C10.151 17.7634 10.4028 19.4295 11.68 19.6356C12.1207 19.7072 12.6693 19.4475 12.9032 19.0802C13.0201 18.8921 13.083 18.6323 13.083 18.3367C13.083 17.9515 13.0381 17.8261 12.8042 17.5574C12.3725 17.0737 11.9048 16.9752 11.3112 17.2439ZM6.26559 17.2528C5.47412 17.638 5.31223 18.6413 5.94181 19.2593C6.47246 19.7878 7.20097 19.7878 7.73162 19.2504C8.37918 18.6054 8.2083 17.6112 7.37186 17.2349C6.90417 17.02 6.75127 17.02 6.26559 17.2528ZM21.2676 21.8302C20.7639 22.0899 20.5211 22.5199 20.5751 23.0574C20.719 24.392 22.5178 24.6518 23.0214 23.4067C23.1114 23.1738 23.1473 22.923 23.1114 22.7349C23.0124 22.1974 22.3739 21.651 21.8522 21.6331C21.7443 21.6331 21.4834 21.7227 21.2676 21.8302ZM16.15 21.8839C15.7543 22.1795 15.5744 22.502 15.5744 22.914C15.5744 24.2308 17.2473 24.7145 17.9398 23.5859C18.6144 22.4751 17.1843 21.1136 16.15 21.8839ZM11.1224 21.866C10.5917 22.2064 10.4118 23.0305 10.7446 23.5859C11.1224 24.2039 11.8239 24.392 12.4535 24.0427C12.8942 23.7919 13.083 23.4515 13.083 22.8961C13.083 22.5199 13.0381 22.3945 12.8042 22.1258C12.3725 21.6421 11.653 21.5256 11.1224 21.866Z" fill="#94A3B8"/>
</svg>
