<?xml version="1.0" encoding="UTF-8"?>
<svg version="1.1" xmlns="http://www.w3.org/2000/svg" width="106" height="98">
<path d="M0 0 C9.55060895 7.06365111 15.46094837 14.94534511 19.25 26.3125 C20.58552559 41.68622067 18.44876641 52.03799414 8.4375 64.3125 C0.27498662 72.77383372 -10.04171898 77.32816657 -21.75 77.6875 C-34.19091806 77.29028039 -44.59081371 72.06356251 -53.125 63 C-60.3649442 54.26162473 -64.72103658 43.7707316 -63.75 32.3125 C-62.33214088 23.92449308 -59.66008159 17.24934746 -54.75 10.3125 C-54.29753906 9.66410156 -53.84507813 9.01570313 -53.37890625 8.34765625 C-41.31372184 -7.2721434 -16.38271476 -10.34846182 0 0 Z " fill="#E6FDF5" transform="translate(75.75,11.6875)"/>
<path d="M0 0 C1.38294718 0.01329757 2.76582404 0.03715018 4.1484375 0.0703125 C4.85484375 0.07933594 5.56125 0.08835937 6.2890625 0.09765625 C8.03399848 0.12123647 9.77876045 0.15710789 11.5234375 0.1953125 C11.8534375 3.4953125 12.1834375 6.7953125 12.5234375 10.1953125 C16.4834375 10.5253125 20.4434375 10.8553125 24.5234375 11.1953125 C24.550262 15.34118832 24.57019065 19.48689288 24.5859375 23.6328125 C24.59431641 24.81681641 24.60269531 26.00082031 24.61132812 27.22070312 C24.61616211 28.90776367 24.61616211 28.90776367 24.62109375 30.62890625 C24.62894897 32.19209595 24.62894897 32.19209595 24.63696289 33.78686523 C24.5234375 36.1953125 24.5234375 36.1953125 23.5234375 37.1953125 C19.05074787 37.4768015 14.56643015 37.42712684 10.0859375 37.4453125 C8.81943359 37.4659375 7.55292969 37.4865625 6.24804688 37.5078125 C5.04083984 37.51296875 3.83363281 37.518125 2.58984375 37.5234375 C1.47552979 37.5327832 0.36121582 37.54212891 -0.78686523 37.55175781 C-1.67446533 37.43413086 -2.56206543 37.31650391 -3.4765625 37.1953125 C-5.9723465 33.4516365 -5.73450035 31.44410738 -5.7421875 26.97265625 C-5.74410095 26.271371 -5.7460144 25.57008575 -5.74798584 24.84754944 C-5.74934517 23.36735678 -5.74566632 21.88715209 -5.73730469 20.40698242 C-5.72658505 18.13758706 -5.7372162 15.86898039 -5.75 13.59960938 C-5.74867867 12.16145658 -5.74611684 10.72330428 -5.7421875 9.28515625 C-5.73993164 7.97409912 -5.73767578 6.66304199 -5.73535156 5.31225586 C-5.35990833 0.79029011 -4.50388315 0.25302714 0 0 Z " fill="#0D714D" transform="translate(44.4765625,28.8046875)"/>
<path d="M0 0 C1.65 0.33 3.3 0.66 5 1 C5 2.32 5 3.64 5 5 C6.32 5 7.64 5 9 5 C9 6.32 9 7.64 9 9 C7.35 9 5.7 9 4 9 C4 10.65 4 12.3 4 14 C2.68 14 1.36 14 0 14 C0 12.35 0 10.7 0 9 C-1.65 9 -3.3 9 -5 9 C-5 7.68 -5 6.36 -5 5 C-3.35 5 -1.7 5 0 5 C0 3.35 0 1.7 0 0 Z " fill="#DBFEF3" transform="translate(52,45)"/>
<path d="M0 0 C6.75 5.625 6.75 5.625 9 9 C6.03 9 3.06 9 0 9 C0 6.03 0 3.06 0 0 Z " fill="#207556" transform="translate(59,29)"/>
<path d="M0 0 C0.05395478 1.62463842 0.09277195 3.24978541 0.125 4.875 C0.14820313 5.77992187 0.17140625 6.68484375 0.1953125 7.6171875 C0 10 0 10 -2 12 C-3 11 -3 11 -3.09765625 8.71484375 C-3.08605469 7.79832031 -3.07445312 6.88179687 -3.0625 5.9375 C-3.05347656 5.01839844 -3.04445312 4.09929688 -3.03515625 3.15234375 C-3.02355469 2.44207031 -3.01195312 1.73179688 -3 1 C-1 0 -1 0 0 0 Z " fill="#A4DCC9" transform="translate(59,28)"/>
<path d="M0 0 C2 1 2 1 2 1 Z M-4 1 C-1.03 1.495 -1.03 1.495 2 2 C0.29171079 4.10633718 -0.52148416 4.93801608 -3.26171875 5.29296875 C-4.06222656 5.25816406 -4.86273438 5.22335938 -5.6875 5.1875 C-6.49574219 5.16042969 -7.30398437 5.13335937 -8.13671875 5.10546875 C-8.75160156 5.07066406 -9.36648437 5.03585938 -10 5 C-10 4.67 -10 4.34 -10 4 C-6.535 3.505 -6.535 3.505 -3 3 C-3.33 2.34 -3.66 1.68 -4 1 Z " fill="#C9F1E2" transform="translate(70,34)"/>
<path d="M0 0 C1.65 0 3.3 0 5 0 C4.34 0.66 3.68 1.32 3 2 C2.83312552 4.58354218 2.83312552 4.58354218 3 7 C0.69 6.67 -1.62 6.34 -4 6 C-2.68 5.67 -1.36 5.34 0 5 C0 3.35 0 1.7 0 0 Z " fill="#398D6E" transform="translate(56,54)"/>
<path d="M0 0 C2.475 0.495 2.475 0.495 5 1 C5 2.32 5 3.64 5 5 C3.35 5 1.7 5 0 5 C0 3.35 0 1.7 0 0 Z " fill="#C0F0E0" transform="translate(52,45)"/>
<path d="M0 0 C2.31 0 4.62 0 7 0 C6.67 0.66 6.34 1.32 6 2 C4.68 1.67 3.36 1.34 2 1 C2 2.65 2 4.3 2 6 C0.35 6 -1.3 6 -3 6 C-2.34 5.34 -1.68 4.68 -1 4 C-0.3574765 1.93125966 -0.3574765 1.93125966 0 0 Z " fill="#2A7C5E" transform="translate(50,44)"/>
<path d="M0 0 C1.98 0.66 3.96 1.32 6 2 C4 4 4 4 1.375 4.125 C0.59125 4.08375 -0.1925 4.0425 -1 4 C-0.67 2.68 -0.34 1.36 0 0 Z " fill="#E9FBF4" transform="translate(53,49)"/>
</svg>
