<svg width="46" height="46" viewBox="0 0 46 46" fill="none" xmlns="http://www.w3.org/2000/svg">
<circle cx="23" cy="23" r="23" fill="#FBFAFC"/>
<path fill-rule="evenodd" clip-rule="evenodd" d="M17.6574 24.613C17.2364 24.1813 17 23.5961 17 22.986C17 22.3758 17.2364 21.7906 17.6574 21.3589L26.1331 12.674C26.5548 12.2423 27.1266 11.9999 27.7228 12C28.0181 12.0001 28.3104 12.0597 28.5831 12.1755C28.8558 12.2913 29.1036 12.4609 29.3123 12.6748C29.521 12.8887 29.6865 13.1426 29.7994 13.422C29.9123 13.7014 29.9704 14.0008 29.9703 14.3032C29.9703 14.6056 29.912 14.905 29.799 15.1843C29.686 15.4637 29.5203 15.7175 29.3115 15.9312L22.4257 22.986L29.313 30.0407C29.5278 30.253 29.6992 30.507 29.8171 30.7878C29.935 31.0687 29.9972 31.3707 29.9999 31.6765C30.0026 31.9822 29.9459 32.2854 29.833 32.5684C29.7201 32.8514 29.5533 33.1086 29.3424 33.3249C29.1314 33.5411 28.8805 33.7122 28.6043 33.8281C28.3282 33.944 28.0322 34.0024 27.7337 33.9999C27.4353 33.9974 27.1403 33.934 26.866 33.8135C26.5917 33.693 26.3436 33.5177 26.1361 33.2979L17.6544 24.613H17.6574Z" fill="#11182E"/>
</svg>
