<?xml version="1.0" encoding="UTF-8"?>
<svg version="1.1" xmlns="http://www.w3.org/2000/svg" width="398" height="342">
<path d="M0 0 C22.59583743 17.50553118 36.68128082 40.82036206 41.84033203 68.86621094 C44.964849 97.54168439 39.45862324 127.01387145 21.25830078 150.07714844 C19.93732833 151.62941957 18.6042388 153.17147383 17.25830078 154.70214844 C16.62150391 155.47042969 15.98470703 156.23871094 15.32861328 157.03027344 C-1.37156267 176.74855347 -26.12456506 187.94761199 -51.36669922 191.45214844 C-52.82317417 191.56332973 -54.28216974 191.64337544 -55.74169922 191.70214844 C-56.79873047 191.75371094 -57.85576172 191.80527344 -58.94482422 191.85839844 C-85.49162447 192.53618908 -111.6692189 184.37942522 -131.74169922 166.70214844 C-132.96953125 165.68894531 -132.96953125 165.68894531 -134.22216797 164.65527344 C-153.48255505 148.29140968 -165.94512753 123.72280312 -168.74169922 98.70214844 C-170.35455038 66.95503008 -163.88149365 38.65206504 -142.31982422 14.53027344 C-141.04365234 13.13035156 -141.04365234 13.13035156 -139.74169922 11.70214844 C-139.15904297 11.03699219 -138.57638672 10.37183594 -137.97607422 9.68652344 C-103.0828049 -28.02640401 -39.96412612 -29.77982821 0 0 Z M-44.49169922 66.35449219 C-45.39041748 67.2546254 -46.28913574 68.15475861 -47.21508789 69.08216858 C-49.57756497 71.44926107 -51.93785034 73.81849483 -54.29705811 76.18884277 C-56.71555103 78.61765586 -59.13695868 81.04355947 -61.55810547 83.46972656 C-66.28862876 88.21122213 -71.01627895 92.95556742 -75.74169922 97.70214844 C-83.07790519 91.51985593 -83.07790519 91.51985593 -86.24169922 88.12402344 C-86.81919922 87.52074219 -87.39669922 86.91746094 -87.99169922 86.29589844 C-89.1661911 85.05848734 -90.33279935 83.81354919 -91.49169922 82.56152344 C-95.37323537 78.541361 -98.16125148 76.56221744 -103.74169922 75.70214844 C-107.79200759 77.15414578 -109.34208783 78.10273135 -111.74169922 81.70214844 C-112.37927204 85.00593485 -112.61212755 86.54832005 -111.74169922 89.70214844 C-110.06300382 92.04775255 -110.06300382 92.04775255 -107.83935547 94.32324219 C-107.02249268 95.197146 -106.20562988 96.0710498 -105.36401367 96.97143555 C-104.4986499 97.8725708 -103.63328613 98.77370605 -102.74169922 99.70214844 C-101.90533936 100.57685791 -101.06897949 101.45156738 -100.20727539 102.3527832 C-97.65640943 104.99080803 -95.07868938 107.599574 -92.49169922 110.20214844 C-91.62029297 111.09417969 -90.74888672 111.98621094 -89.85107422 112.90527344 C-88.58263672 114.18144531 -88.58263672 114.18144531 -87.28857422 115.48339844 C-86.53415039 116.24716797 -85.77972656 117.0109375 -85.00244141 117.79785156 C-81.69409701 120.58457794 -79.30690942 121.77567379 -74.94264221 121.57066345 C-70.9204428 120.47931613 -68.7535595 118.38986556 -65.93579102 115.47973633 C-65.3903212 114.93660294 -64.84485138 114.39346954 -64.28285217 113.83387756 C-62.48996565 112.04260088 -60.7155223 110.23418014 -58.94091797 108.42480469 C-57.69737789 107.17447335 -56.45279951 105.92517388 -55.20722961 104.67686462 C-52.60328603 102.06225452 -50.00756068 99.43985575 -47.41821289 96.81079102 C-44.09493804 93.43654413 -40.75882821 90.07537852 -37.41743755 86.71907902 C-34.2338399 83.52071107 -31.05550138 80.31714209 -27.87841797 77.11230469 C-27.27009314 76.49906908 -26.6617683 75.88583347 -26.03500938 75.25401497 C-24.32069011 73.52345799 -22.61001956 71.78938471 -20.90063477 70.05395508 C-20.39001495 69.53907532 -19.87939514 69.02419556 -19.353302 68.49371338 C-16.25986537 65.3429256 -14.85089986 63.85967528 -14.42919922 59.38964844 C-14.79045863 55.12678733 -15.76161976 53.6822279 -18.74169922 50.70214844 C-28.77283076 45.68658267 -38.2070852 60.03196423 -44.49169922 66.35449219 Z " fill="#04B773" transform="translate(261.74169921875,79.2978515625)"/>
<path d="M0 0 C0.33 0.66 0.66 1.32 1 2 C2.50744781 1.75504587 2.50744781 1.75504587 4.04534912 1.50514317 C10.75810901 0.67499556 17.52310843 0.88548036 24.27441406 0.91770935 C25.83636727 0.9214068 27.3983216 0.92465515 28.9602766 0.92749459 C33.24061711 0.93656951 37.52091457 0.95199693 41.8012321 0.96847737 C46.42143839 0.98514807 51.04165892 0.99590511 55.66188049 1.00738525 C63.66283386 1.02807281 71.66376881 1.05249596 79.66470337 1.07946587 C91.23267155 1.11845427 102.8006506 1.15179408 114.36864007 1.18376113 C133.1375373 1.23578034 151.9064179 1.29235936 170.67529297 1.35180664 C188.90608066 1.40953985 207.13687284 1.4651134 225.36767578 1.51782227 C226.50313044 1.52110777 227.6385851 1.52439327 228.80844748 1.52777833 C237.68862315 1.55345675 246.56879918 1.57901004 255.44897532 1.60452378 C298.96600566 1.72958513 342.48299568 1.86556059 386 2 C386 111.89 386 221.78 386 335 C259.61 335 133.22 335 3 335 C1.26636191 330.66590479 0.75009954 328.91519011 0.75111103 324.52725029 C0.74651223 323.43377592 0.74191344 322.34030155 0.73717529 321.21369159 C0.74231885 320.0178923 0.74746241 318.82209301 0.75276184 317.59005737 C0.75034743 316.31539458 0.74793301 315.04073179 0.74544543 313.72744286 C0.73903256 310.1912431 0.74509968 306.65515786 0.75320971 303.11896563 C0.75978792 299.30421617 0.75483784 295.48947948 0.75132751 291.67472839 C0.74628429 284.20066751 0.75192943 276.72665086 0.76117782 269.25259547 C0.7715648 260.54486461 0.77149151 251.83714331 0.77100524 243.12940742 C0.77050446 227.58593676 0.77966854 212.04248667 0.79418945 196.49902344 C0.80826254 181.42707952 0.81536084 166.35515371 0.81469727 151.28320312 C0.81465731 150.35580656 0.81461735 149.42841 0.81457619 148.47291051 C0.81453583 147.54709841 0.81449548 146.62128632 0.8144539 145.66741931 C0.81376303 128.50139896 0.8196619 111.33538627 0.82860712 94.16936841 C0.83161796 88.10508808 0.83268604 82.04080916 0.83313942 75.97652817 C0.83382341 68.57761415 0.83831352 61.17871305 0.84747223 53.77980451 C0.85207257 50.00735616 0.85514229 46.23492427 0.85387802 42.46247292 C0.85257167 38.36557858 0.8590586 34.26873266 0.86628723 30.17184448 C0.86396433 28.39822204 0.86396433 28.39822204 0.8615945 26.58876884 C0.88170237 19.67221374 1.24261533 12.87567625 2 6 C1.34 6 0.68 6 0 6 C0 6.66 0 7.32 0 8 C-0.66 7.67 -1.32 7.34 -2 7 C-2.125 4.625 -2.125 4.625 -2 2 C-1.34 1.34 -0.68 0.68 0 0 Z M4 6 C3.90077409 8.22079278 3.87367581 10.44480786 3.87301636 12.66781616 C3.87145637 13.37300845 3.86989638 14.07820073 3.86828911 14.80476248 C3.86427668 17.18545489 3.86746971 19.56608437 3.87060547 21.94677734 C3.86925151 23.6464695 3.86747161 25.34616136 3.86529541 27.04585266 C3.86071973 31.67601977 3.86251137 36.30616471 3.8656745 40.93633223 C3.86819823 45.77295462 3.86586044 50.60957505 3.86428833 55.44619751 C3.86246632 63.57220807 3.86487339 71.69820956 3.86962891 79.82421875 C3.87506793 89.22690763 3.87331161 98.62957481 3.8678025 108.03226316 C3.86326789 116.09341187 3.86262264 124.15455404 3.86524117 132.21570361 C3.86680249 137.0352995 3.86700172 141.85488519 3.86370468 146.67448044 C3.86082106 151.20683751 3.86281076 155.73916657 3.86859894 160.27152061 C3.86992405 161.93764512 3.86953662 163.60377197 3.86733627 165.26989555 C3.86461494 167.53936798 3.86801807 169.80874993 3.87301636 172.07821655 C3.87339338 173.34991385 3.87377041 174.62161114 3.87415886 175.93184471 C3.85975683 179.0410777 3.85975683 179.0410777 5 182 C6.04800781 182.14695313 6.04800781 182.14695313 7.1171875 182.296875 C8.02726562 182.44640625 8.93734375 182.5959375 9.875 182.75 C10.77992187 182.88921875 11.68484375 183.0284375 12.6171875 183.171875 C15 184 15 184 16.33203125 185.91796875 C17.21836232 188.68062642 16.91248943 190.2625317 16 193 C14.8125 194.8125 14.8125 194.8125 13 196 C9.9375 196.125 9.9375 196.125 7 196 C6.34 196.33 5.68 196.66 5 197 C3.98023616 200.05929152 3.87427153 202.12474324 3.87301636 205.32730103 C3.87019653 206.43223404 3.86737671 207.53716705 3.86447144 208.67558289 C3.86649567 209.88817276 3.8685199 211.10076263 3.87060547 212.35009766 C3.86885315 213.62664719 3.86710083 214.90319672 3.86529541 216.21842957 C3.86073318 219.72028313 3.86250543 223.22210727 3.8656745 226.72396135 C3.86820324 230.38436495 3.86585922 234.04476599 3.86428833 237.70516968 C3.86246861 243.85032606 3.86486827 249.99547044 3.86962891 256.140625 C3.87507599 263.25420773 3.87330485 270.36776182 3.8678025 277.48134387 C3.86327154 283.58243354 3.86262059 289.68351457 3.86524117 295.78460538 C3.86680341 299.43150831 3.86699904 303.07839776 3.86370468 306.72529984 C3.86029235 310.78644776 3.86501539 314.84754591 3.87060547 318.90869141 C3.86858124 320.12532974 3.86655701 321.34196808 3.86447144 322.59547424 C3.86729126 323.69476761 3.87011108 324.79406097 3.87301636 325.92666626 C3.87339338 326.88788706 3.87377041 327.84910786 3.87415886 328.83945656 C3.75865126 330.98024944 3.75865126 330.98024944 5 332 C7.95828968 332.09798302 10.89324112 332.12991615 13.85194397 332.12025452 C14.79201544 332.12110894 15.73208691 332.12196337 16.70064539 332.12284368 C19.87605137 332.12450136 23.05140546 332.11897243 26.22680664 332.11352539 C28.49293517 332.11324355 30.75906379 332.11340118 33.02519226 332.1139679 C39.19849782 332.11425601 45.37178413 332.10835703 51.54508519 332.10139394 C57.98866889 332.09516272 64.43225298 332.09455679 70.87583923 332.09336853 C81.69791031 332.09060882 92.51997345 332.08435327 103.34204102 332.07543945 C114.49080367 332.06626607 125.63956441 332.05918488 136.78833008 332.05493164 C137.47507634 332.05466892 138.1618226 332.05440619 138.86937935 332.05413551 C142.31444509 332.05283051 145.75951085 332.05156679 149.20457661 332.05032361 C177.80305587 332.0399501 206.40152766 332.02225689 235 332 C235.02578125 331.10796875 235.0515625 330.2159375 235.078125 329.296875 C235.13484375 328.12640625 235.1915625 326.9559375 235.25 325.75 C235.29640625 324.58984375 235.3428125 323.4296875 235.390625 322.234375 C236.0985951 318.47668753 236.98266502 317.277952 240 315 C243.96236867 313.919354 246.08057231 313.60024883 249.875 315.25 C252 317 252 317 253 320 C253.09225211 321.49774018 253.1300019 322.99942974 253.125 324.5 C253.12757813 325.2734375 253.13015625 326.046875 253.1328125 326.84375 C253 329 253 329 252 332 C269.19338969 332.02332856 286.38677447 332.04097896 303.58017635 332.05181217 C311.562815 332.05697522 319.54544383 332.06401809 327.52807617 332.07543945 C334.48323799 332.08538602 341.43839269 332.09185336 348.39356142 332.09408849 C352.07851927 332.09539565 355.76345678 332.09848179 359.44840813 332.10573006 C363.55537708 332.1137434 367.66231037 332.11399116 371.76928711 332.11352539 C372.99998932 332.11712067 374.23069153 332.12071594 375.49868774 332.12442017 C376.61073074 332.1230455 377.72277374 332.12167084 378.86851501 332.12025452 C380.32725241 332.12163721 380.32725241 332.12163721 381.81545925 332.12304783 C383.97747056 332.24460337 383.97747056 332.24460337 385 331 C385.09511266 328.35261911 385.12555635 325.73140999 385.11352539 323.08374023 C385.11374443 321.83994095 385.11374443 321.83994095 385.1139679 320.5710144 C385.11326851 317.81684802 385.10547493 315.06274839 385.09765625 312.30859375 C385.09579216 310.40430234 385.09436822 308.50001045 385.09336853 306.59571838 C385.08954263 301.57332037 385.07971173 296.55095108 385.06866455 291.52856445 C385.05845198 286.4077188 385.05387124 281.28686852 385.04882812 276.16601562 C385.03808953 266.11066443 385.02101224 256.0553346 385 246 C384.67 246 384.34 246 384 246 C384 247.65 384 249.3 384 251 C383.29875 251.268125 382.5975 251.53625 381.875 251.8125 C378.95757369 252.95293871 378.95757369 252.95293871 376.1875 254.5625 C370.8216544 256.98239115 366.35782098 257.72359932 360.8125 255.8125 C355.89675367 253.66306582 352.8121886 251.48434468 350.1875 246.6875 C348.23839875 240.6350277 348.51774559 235.83329786 351 230 C353.64032799 225.19083115 355.72596883 222.6952243 361 221 C368.21920878 220.08488903 373.52959897 220.37775405 379.37890625 224.90625 C381.08855474 226.27965065 381.08855474 226.27965065 384 226 C384 227.98 384 229.96 384 232 C384.33 232 384.66 232 385 232 C385 157.09 385 82.18 385 5 C279.07 5 173.14 5 64 5 C64.99 5.33 65.98 5.66 67 6 C66.40298507 13.28358209 66.40298507 13.28358209 64.875 16 C61.85498438 17.610675 59.33952535 17.36431186 56 17 C53.55423173 13.33134759 53.76392746 11.32799657 54 7 C54.33 6.34 54.66 5.68 55 5 C47.89755001 4.97473213 40.79511152 4.95716799 33.69262695 4.94506836 C31.27432828 4.94002651 28.85603267 4.93319322 26.43774414 4.92456055 C22.97020717 4.91248843 19.50271034 4.90677037 16.03515625 4.90234375 C14.94662857 4.89718246 13.85810089 4.89202118 12.73658752 4.88670349 C11.73562546 4.88662796 10.73466339 4.88655243 9.70336914 4.88647461 C8.81734512 4.884254 7.93132111 4.88203339 7.01844788 4.87974548 C5.0030131 4.77571959 5.0030131 4.77571959 4 6 Z " fill="#9AC7E7" transform="translate(12,2)"/>
<path d="M0 0 C126.39 0 252.78 0 383 0 C383 108.9 383 217.8 383 330 C382.67 330 382.34 330 382 330 C381.67 302.94 381.34 275.88 381 248 C377.37 249.98 373.74 251.96 370 254 C363.80635146 255.57152276 359.52343872 254.95040826 354 252 C349.12305035 248.9835571 346.70300191 245.48745059 345 240 C344.34345649 232.51540397 346.30429047 226.83790915 351 221 C356.0393581 217.01050817 360.20781453 216.50362685 366.546875 216.2734375 C370 217 370 217 381 223 C381.33 150.07 381.66 77.14 382 2 C277.06 2.33 172.12 2.66 64 3 C64 5.64 64 8.28 64 11 C62.4375 13.5 62.4375 13.5 60 15 C56.4375 15.5 56.4375 15.5 53 15 C51.0625 13.4375 51.0625 13.4375 50 11 C49.75 7.3125 49.75 7.3125 50 4 C50.33 3.67 50.66 3.34 51 3 C34.83 3 18.66 3 2 3 C1.67 56.46 1.34 109.92 1 165 C0.67 165 0.34 165 0 165 C0 110.55 0 56.1 0 0 Z " fill="#589DD1" transform="translate(15,5)"/>
<path d="M0 0 C4.42619981 3.13028151 7.93847399 6.90817778 8.89453125 12.33984375 C9.27910851 18.20464699 8.92887538 22.12456477 5.89453125 27.33984375 C1.92924411 31.64651323 -2.19054653 35.35402338 -8.10546875 36.33984375 C-14.5234419 36.23632805 -19.22266551 34.59470333 -24.10546875 30.33984375 C-25.80434621 28.06325004 -26.88131141 25.93505731 -28.10546875 23.33984375 C-28.43546875 22.67984375 -28.76546875 22.01984375 -29.10546875 21.33984375 C-29.93845302 14.93776466 -29.31237086 10.31026191 -25.53125 5.02734375 C-18.64500029 -3.12295728 -9.32962102 -5.17085504 0 0 Z " fill="#CDF0E2" transform="translate(57.10546875,290.66015625)"/>
<path d="M0 0 C2.73046875 1.4765625 2.73046875 1.4765625 4.8125 3.375 C6.04168628 7.66806932 5.94717844 11.99025704 5.9375 16.4375 C5.94136719 18.21833984 5.94136719 18.21833984 5.9453125 20.03515625 C5.71432598 25.84378796 5.71432598 25.84378796 4.8125 28.375 C-0.70899135 32.76114076 -7.14501037 35.49045065 -14.1875 35.375 C-19.90579408 34.12717492 -24.12583125 31.53112616 -28.1875 27.375 C-31.42977678 21.53890179 -32.02119829 16.77926803 -30.4375 10.3125 C-28.17469052 4.99489772 -25.69088408 0.76666377 -20.359375 -1.921875 C-13.21951262 -4.23334124 -6.63519396 -3.27876945 0 0 Z " fill="#CDF0E2" transform="translate(391.1875,224.625)"/>
<path d="M0 0 C0.33 0.66 0.66 1.32 1 2 C2.50744781 1.75504587 2.50744781 1.75504587 4.04534912 1.50514317 C10.75810901 0.67499556 17.52310843 0.88548036 24.27441406 0.91770935 C25.83636727 0.9214068 27.3983216 0.92465515 28.9602766 0.92749459 C33.24061711 0.93656951 37.52091457 0.95199693 41.8012321 0.96847737 C46.42143839 0.98514807 51.04165892 0.99590511 55.66188049 1.00738525 C63.66283386 1.02807281 71.66376881 1.05249596 79.66470337 1.07946587 C91.23267155 1.11845427 102.8006506 1.15179408 114.36864007 1.18376113 C133.1375373 1.23578034 151.9064179 1.29235936 170.67529297 1.35180664 C188.90608066 1.40953985 207.13687281 1.46512512 225.36767578 1.51782227 C226.49167133 1.52107198 227.61566687 1.5243217 228.77372289 1.5276699 C234.41255257 1.54395975 240.05138238 1.56020738 245.69021225 1.57643402 C292.460162 1.71107666 339.23008718 1.85311976 386 2 C386 2.33 386 2.66 386 3 C259.61 3 133.22 3 3 3 C3.33 57.78 3.66 112.56 4 169 C3.505 175.435 3.505 175.435 3 182 C2.91594472 184.30447539 2.85625851 186.6102516 2.84178162 188.91621399 C2.82709839 190.72261353 2.82709839 190.72261353 2.81211853 192.56550598 C2.80636307 193.83722153 2.8006076 195.10893707 2.79467773 196.41918945 C2.78506886 197.81025463 2.77505718 199.20131706 2.76467896 200.59237671 C2.73794915 204.32494119 2.71676952 208.05751791 2.69667697 211.79012322 C2.67461732 215.7072059 2.6473276 219.62425229 2.62062073 223.54130554 C2.57096112 230.93924819 2.5259246 238.33721127 2.48259836 245.73519343 C2.43299559 254.16583008 2.37816388 262.59643027 2.32291877 271.02703154 C2.2095098 288.35132056 2.10258339 305.67564357 2 323 C1.67 323 1.34 323 1 323 C0.97710064 284.20464943 0.95948499 245.40929988 0.94893467 206.61394392 C0.947684 202.03161039 0.94638967 197.44927687 0.94506836 192.86694336 C0.94480605 191.95470065 0.94454374 191.04245795 0.94427348 190.10257152 C0.93992467 175.34045425 0.93204145 160.57834087 0.9228472 145.81622591 C0.91348874 130.66383676 0.90793974 115.51144965 0.90591151 100.35905772 C0.90454084 91.01265908 0.90021492 81.66627148 0.89208353 72.31987623 C0.88678903 65.90676928 0.88520186 59.49366801 0.88649862 53.08055904 C0.88713777 49.38307722 0.88617245 45.68561466 0.88079453 41.98813629 C0.87499603 37.97199273 0.87701984 33.95588986 0.87974548 29.93974304 C0.87683264 28.78115412 0.8739198 27.6225652 0.87091869 26.42886752 C0.8834812 19.56527239 1.24990175 12.82304157 2 6 C1.34 6 0.68 6 0 6 C0 6.66 0 7.32 0 8 C-0.66 7.67 -1.32 7.34 -2 7 C-2.125 4.625 -2.125 4.625 -2 2 C-1.34 1.34 -0.68 0.68 0 0 Z " fill="#B9D9F1" transform="translate(12,2)"/>
<path d="M0 0 C3.10501256 1.84622368 3.83621763 2.50865288 5 6 C5.09203743 7.51861755 5.13001284 9.04110426 5.125 10.5625 C5.12757813 11.34753906 5.13015625 12.13257813 5.1328125 12.94140625 C5 15 5 15 4 17 C47.56 17 91.12 17 136 17 C136 17.66 136 18.32 136 19 C10.27 19 -115.46 19 -245 19 C-244.67 18.34 -244.34 17.68 -244 17 C-130.15 17.495 -130.15 17.495 -14 18 C-14 13.71 -14 9.42 -14 5 C-10.04903262 -0.55271092 -6.48848884 -1.58901767 0 0 Z " fill="#69BDFC" transform="translate(261,316)"/>
<path d="M0 0 C125.73 0 251.46 0 381 0 C381 0.33 381 0.66 381 1 C276.06 1.33 171.12 1.66 63 2 C63 4.64 63 7.28 63 10 C61.4375 12.5 61.4375 12.5 59 14 C55.4375 14.5 55.4375 14.5 52 14 C50.0625 12.4375 50.0625 12.4375 49 10 C48.75 6.3125 48.75 6.3125 49 3 C49.33 2.67 49.66 2.34 50 2 C33.5 2 17 2 0 2 C0 1.34 0 0.68 0 0 Z " fill="#B3DCFB" transform="translate(16,6)"/>
<path d="M0 0 C0.33 0 0.66 0 1 0 C1.33 4.29 1.66 8.58 2 13 C3.2375 12.938125 4.475 12.87625 5.75 12.8125 C8.49491106 12.82707475 9.90521383 12.95625254 12.4375 14.125 C14.6351705 16.7622046 14.93170718 18.58535902 15 22 C14 24.8125 14 24.8125 12 27 C8.56152201 27.79821811 5.51883921 28 2 28 C2 71.89 2 115.78 2 161 C0.02 161.99 0.02 161.99 -2 163 C-1.89249905 143.66691291 -1.77969217 124.33386362 -1.66066074 105.000844 C-1.60550797 96.02311758 -1.55205663 87.04538719 -1.50268555 78.06762695 C-1.45962263 70.23775943 -1.41329111 62.40791904 -1.36312145 54.57809371 C-1.33669727 50.43669785 -1.31185089 46.29530676 -1.29092598 42.15387917 C-1.27112972 38.24609255 -1.24692286 34.33835674 -1.21950912 30.43061638 C-1.21025876 29.00574811 -1.20254221 27.5808688 -1.19658089 26.15598297 C-1.15882783 17.39267117 -0.79999963 8.72788279 0 0 Z " fill="#51A5E5" transform="translate(15,171)"/>
<path d="M0 0 C3.9396246 2.39803236 5.829361 4.53028746 7 9 C7.50032303 12.91919708 7.17830418 14.66320322 5.3125 18.1875 C2.5580928 21.53745471 0.48417734 23.63646185 -3.921875 24.28125 C-8.41340304 24.48387533 -11.43631651 23.95276632 -15 21 C-17.86667766 17.54021662 -18.54304397 14.49460018 -18.34765625 9.9921875 C-17.53464835 5.33337819 -14.99482897 2.70090223 -11.25 0.0625 C-7.14087256 -1.28086858 -4.12510667 -1.25029006 0 0 Z " fill="#CFF1E4" transform="translate(343,44)"/>
<path d="M0 0 C0.33 0.66 0.66 1.32 1 2 C2.50744781 1.75504587 2.50744781 1.75504587 4.04534912 1.50514317 C10.75810901 0.67499556 17.52310843 0.88548036 24.27441406 0.91770935 C25.83636727 0.9214068 27.3983216 0.92465515 28.9602766 0.92749459 C33.24061711 0.93656951 37.52091457 0.95199693 41.8012321 0.96847737 C46.42143839 0.98514807 51.04165892 0.99590511 55.66188049 1.00738525 C63.66283386 1.02807281 71.66376881 1.05249596 79.66470337 1.07946587 C91.23267155 1.11845427 102.8006506 1.15179408 114.36864007 1.18376113 C133.1375373 1.23578034 151.9064179 1.29235936 170.67529297 1.35180664 C188.90608066 1.40953985 207.13687281 1.46512512 225.36767578 1.51782227 C226.49167133 1.52107198 227.61566687 1.5243217 228.77372289 1.5276699 C234.41255257 1.54395975 240.05138238 1.56020738 245.69021225 1.57643402 C292.460162 1.71107666 339.23008718 1.85311976 386 2 C386 2.33 386 2.66 386 3 C259.28 3 132.56 3 2 3 C2 3.99 2 4.98 2 6 C1.34 6 0.68 6 0 6 C0 6.66 0 7.32 0 8 C-0.66 7.67 -1.32 7.34 -2 7 C-2.125 4.625 -2.125 4.625 -2 2 C-1.34 1.34 -0.68 0.68 0 0 Z " fill="#90D8FF" transform="translate(12,2)"/>
<path d="M0 0 C3.10501256 1.84622368 3.83621763 2.50865288 5 6 C5.11659598 7.49676706 5.17498959 8.99875061 5.1875 10.5 C5.20167969 11.2734375 5.21585937 12.046875 5.23046875 12.84375 C5 15 5 15 3 18 C0.04935852 18.2208564 -2.68368231 18.28060989 -5.625 18.1875 C-6.42679688 18.17396484 -7.22859375 18.16042969 -8.0546875 18.14648438 C-10.03674378 18.11109051 -12.01845551 18.05728234 -14 18 C-14.7839267 6.10173482 -14.7839267 6.10173482 -11.6875 1.75 C-7.38051194 -1.05455036 -4.92452874 -1.20600704 0 0 Z " fill="#D0F0E3" transform="translate(261,316)"/>
<path d="M0 0 C0.33 0.99 0.66 1.98 1 3 C2.2375 2.938125 3.475 2.87625 4.75 2.8125 C7.49491106 2.82707475 8.90521383 2.95625254 11.4375 4.125 C13.6351705 6.7622046 13.93170718 8.58535902 14 12 C13 14.8125 13 14.8125 11 17 C7.56152201 17.79821811 4.51883921 18 1 18 C0.67 18.99 0.34 19.98 0 21 C0 14.07 0 7.14 0 0 Z " fill="#D3F1E7" transform="translate(16,181)"/>
<path d="M0 0 C0.78503906 0.01417969 1.57007812 0.02835937 2.37890625 0.04296875 C3.55259766 0.05263672 3.55259766 0.05263672 4.75 0.0625 C6.94140625 0.23046875 6.94140625 0.23046875 9.94140625 1.23046875 C10.42333396 8.45938441 10.42333396 8.45938441 8.37890625 11.73046875 C5.00716448 13.80538676 2.8255009 13.79542797 -1.05859375 13.23046875 C-2.99609375 11.66796875 -2.99609375 11.66796875 -4.05859375 9.23046875 C-4.37109375 5.60546875 -4.37109375 5.60546875 -4.05859375 2.23046875 C-2.05859375 0.23046875 -2.05859375 0.23046875 0 0 Z " fill="#D1F1E5" transform="translate(69.05859375,6.76953125)"/>
<path d="M0 0 C2.20766656 3.31149984 3.08612084 6.45585742 4.0625 10.25 C4.23587891 10.89324219 4.40925781 11.53648437 4.58789062 12.19921875 C9.06523437 29.25086505 8.7094062 49.01249905 4 66 C3.67 66 3.34 66 3 66 C3.03029297 65.40687012 3.06058594 64.81374023 3.09179688 64.20263672 C5.16388123 36.95129535 5.16388123 36.95129535 0.6328125 10.3359375 C-0.32401545 6.80394295 -0.20214342 3.63858161 0 0 Z " fill="#43C090" transform="translate(297,127)"/>
<path d="M0 0 C1.10555457 3.4579752 0.98902656 6.39968291 0.6875 10 C0.60886719 11.03125 0.53023438 12.0625 0.44921875 13.125 C0 16 0 16 -1.01367188 17.88354492 C-2.16140483 20.34634121 -2.24412623 22.03169053 -2.23046875 24.73828125 C-2.22853516 25.64126953 -2.22660156 26.54425781 -2.22460938 27.47460938 C-2.21236328 28.41111328 -2.20011719 29.34761719 -2.1875 30.3125 C-2.18685547 31.23740234 -2.18621094 32.16230469 -2.18554688 33.11523438 C-2.66667873 41.56792732 -2.66667873 41.56792732 0 49 C0.23653523 51.52596259 0.42173692 54.03107207 0.5625 56.5625 C0.60568359 57.27341797 0.64886719 57.98433594 0.69335938 58.71679688 C0.79971777 60.47761912 0.90038846 62.2387832 1 64 C-8.42467608 46.9946062 -5.70330732 20.94133318 -0.875 2.98828125 C-0.58625 2.00214844 -0.2975 1.01601562 0 0 Z " fill="#5EC59E" transform="translate(97,133)"/>
<path d="M0 0 C1.32 0 2.64 0 4 0 C4 0.66 4 1.32 4 2 C4.99 2.33 5.98 2.66 7 3 C7.33 6.63 7.66 10.26 8 14 C7.34 14 6.68 14 6 14 C6 15.32 6 16.64 6 18 C5.34 18 4.68 18 4 18 C4 18.66 4 19.32 4 20 C3.34 20 2.68 20 2 20 C1.34 21.32 0.68 22.64 0 24 C-0.66 24 -1.32 24 -2 24 C-2 24.66 -2 25.32 -2 26 C-3.65 26.33 -5.3 26.66 -7 27 C-6.125 25.97916667 -5.25 24.95833333 -4.375 23.9375 C-3.83359375 23.29683594 -3.2921875 22.65617187 -2.734375 21.99609375 C-1.61378708 20.7064081 -0.45885259 19.44544579 0.734375 18.22265625 C3.58455172 15.22997069 4.88655454 13.58785377 5.6875 9.4375 C4.79116936 4.95584682 3.16116532 3.24019445 0 0 Z " fill="#4EC498" transform="translate(241,129)"/>
<path d="M0 0 C0.4846875 0.28875 0.969375 0.5775 1.46875 0.875 C0.47875 1.37 0.47875 1.37 -0.53125 1.875 C-1.624375 1.38 -2.7175 0.885 -3.84375 0.375 C-7.67619259 -1.1839597 -8.77496334 -1.56972564 -12.53125 -0.125 C-14.55045337 1.17906884 -16.55049973 2.51323419 -18.53125 3.875 C-20.17922236 4.58662443 -21.84290408 5.26531953 -23.53125 5.875 C-24.52125 6.37 -24.52125 6.37 -25.53125 6.875 C-25.2052551 3.83238092 -24.55229739 2.8948781 -22.28125 0.75 C-14.59313515 -4.49189649 -7.94948555 -4.402792 0 0 Z " fill="#DFF3EB" transform="translate(57.53125,291.125)"/>
<path d="M0 0 C0.33 0.66 0.66 1.32 1 2 C2.71219727 1.74875366 2.71219727 1.74875366 4.45898438 1.49243164 C8.89542469 0.94055591 13.19590645 0.95948666 17.65625 1.12109375 C18.44398804 1.14470474 19.23172607 1.16831573 20.04333496 1.19264221 C22.52911164 1.26846612 25.01451043 1.35283319 27.5 1.4375 C29.19789893 1.49080236 30.89581563 1.54354201 32.59375 1.59570312 C36.72940036 1.72396931 40.86473459 1.85989151 45 2 C45 2.33 45 2.66 45 3 C30.81 3 16.62 3 2 3 C2 3.99 2 4.98 2 6 C1.34 6 0.68 6 0 6 C0 6.66 0 7.32 0 8 C-0.66 7.67 -1.32 7.34 -2 7 C-2.125 4.625 -2.125 4.625 -2 2 C-1.34 1.34 -0.68 0.68 0 0 Z " fill="#99DCFE" transform="translate(12,2)"/>
<path d="M0 0 C1.32 0.33 2.64 0.66 4 1 C4.84757725 5.40605632 5.13475983 9.57785895 5.125 14.0625 C5.12757813 15.24972656 5.13015625 16.43695313 5.1328125 17.66015625 C5.01692665 20.57434445 4.67386177 23.17085017 4 26 C2.68 26.33 1.36 26.66 0 27 C0 25.02 0 23.04 0 21 C0.99 21.33 1.98 21.66 3 22 C2.88562349 19.27001324 2.75888594 16.5415418 2.625 13.8125 C2.57859375 12.65911133 2.57859375 12.65911133 2.53125 11.48242188 C2.31383889 7.26102289 1.90256928 3.85927672 0 0 Z " fill="#CDF6F8" transform="translate(392,227)"/>
<path d="M0 0 C0.33 0 0.66 0 1 0 C1.33 12.21 1.66 24.42 2 37 C0.68 37.66 -0.64 38.32 -2 39 C-2.042721 37.33388095 -2.04063832 35.66617115 -2 34 C-1.505 33.505 -1.505 33.505 -1 33 C-0.84019563 30.55391002 -0.74070553 28.13268942 -0.68359375 25.68359375 C-0.6524221 24.58701195 -0.6524221 24.58701195 -0.62062073 23.46827698 C-0.55504976 21.12478344 -0.49620568 18.78117461 -0.4375 16.4375 C-0.39432192 14.85220145 -0.35070787 13.26691471 -0.30664062 11.68164062 C-0.1993608 7.78787963 -0.0981151 3.89400228 0 0 Z " fill="#5DAFEF" transform="translate(15,295)"/>
<path d="M0 0 C0.66 0.33 1.32 0.66 2 1 C-2.74536422 4.77195618 -6.87029743 6.31815065 -13 6 C-15.58373238 5.25232653 -17.60581597 4.27350215 -20 3 C-20 2.67 -20 2.34 -20 2 C-18.33710937 2.03480469 -18.33710937 2.03480469 -16.640625 2.0703125 C-15.17709008 2.08907577 -13.71354786 2.10727537 -12.25 2.125 C-11.52039062 2.14175781 -10.79078125 2.15851563 -10.0390625 2.17578125 C-6.10463572 2.21154877 -3.40878611 1.96915314 0 0 Z " fill="#E9F7F3" transform="translate(57,321)"/>
<path d="M0 0 C0 4.33333333 0 8.66666667 0 13 C2.27024968 13.08097324 4.54132075 13.13917704 6.8125 13.1875 C8.70935547 13.23970703 8.70935547 13.23970703 10.64453125 13.29296875 C13.96596445 13.30827421 13.96596445 13.30827421 15.94921875 11.48828125 C16.29597656 10.99714844 16.64273437 10.50601562 17 10 C16.34 11.65 15.68 13.3 15 15 C9.39 15 3.78 15 -2 15 C-2.1953125 5.0390625 -2.1953125 5.0390625 -2 2 C-1.34 1.34 -0.68 0.68 0 0 Z " fill="#E8FBFB" transform="translate(249,319)"/>
<path d="M0 0 C0.33 0.66 0.66 1.32 1 2 C0.34 2 -0.32 2 -1 2 C-1.66 3.32 -2.32 4.64 -3 6 C-3.99 6 -4.98 6 -6 6 C-6.20625 6.5775 -6.4125 7.155 -6.625 7.75 C-8.5274665 10.863127 -10.86294893 12.20739939 -14 14 C-14.99 14 -15.98 14 -17 14 C-11.89149829 8.43477794 -6.28920898 4.16327918 0 0 Z " fill="#56C79C" transform="translate(139,77)"/>
<path d="M0 0 C2 3 2 3 1.875 5.4375 C0.76167478 8.69795242 -0.15213101 10.02839839 -3 12 C-5.75808497 12.33223586 -8.20478781 12.18634748 -11 12 C-11.33 12.99 -11.66 13.98 -12 15 C-12 13.02 -12 11.04 -12 9 C-8.37 9 -4.74 9 -1 9 C-0.67 6.03 -0.34 3.06 0 0 Z " fill="#F6FBF8" transform="translate(28,187)"/>
<path d="M0 0 C3.96 0.33 7.92 0.66 12 1 C12 1.66 12 2.32 12 3 C12.99 3.33 13.98 3.66 15 4 C14.67 4.66 14.34 5.32 14 6 C12.41375765 5.57316761 10.8310902 5.13303842 9.25 4.6875 C8.36828125 4.44386719 7.4865625 4.20023437 6.578125 3.94921875 C4 3 4 3 0 0 Z " fill="#3CBF8E" transform="translate(151,259)"/>
<path d="M0 0 C1.14926266 0.95421808 2.29430541 1.91352045 3.4375 2.875 C4.07558594 3.40867187 4.71367187 3.94234375 5.37109375 4.4921875 C7 6 7 6 8 8 C2.375 9.125 2.375 9.125 -1 8 C-0.67 5.36 -0.34 2.72 0 0 Z " fill="#37C28F" transform="translate(269,86)"/>
<path d="M0 0 C0.33 0.99 0.66 1.98 1 3 C0.01 4.485 0.01 4.485 -1 6 C-1.66 6 -2.32 6 -3 6 C-3.33 7.65 -3.66 9.3 -4 11 C-5.65 10.67 -7.3 10.34 -9 10 C-8.06409496 8.8944811 -7.12620142 7.79064547 -6.1875 6.6875 C-5.66542969 6.07261719 -5.14335937 5.45773438 -4.60546875 4.82421875 C-3.12827531 3.14575321 -1.59960869 1.56117966 0 0 Z " fill="#3DC291" transform="translate(209,180)"/>
<path d="M0 0 C0.33 0.99 0.66 1.98 1 3 C0.01 4.485 0.01 4.485 -1 6 C-1.66 6 -2.32 6 -3 6 C-3.33 7.65 -3.66 9.3 -4 11 C-5.65 10.67 -7.3 10.34 -9 10 C-8.06409496 8.8944811 -7.12620142 7.79064547 -6.1875 6.6875 C-5.66542969 6.07261719 -5.14335937 5.45773438 -4.60546875 4.82421875 C-3.12827531 3.14575321 -1.59960869 1.56117966 0 0 Z " fill="#3DC291" transform="translate(225,164)"/>
<path d="M0 0 C1.11353866 3.74626219 0.80746732 5.47543872 -1 9 C-1.9793879 10.02019573 -2.97895449 11.02149805 -4 12 C-5.17574711 14.09989652 -5.17574711 14.09989652 -6 16 C-6.66 16 -7.32 16 -8 16 C-6.42986223 10.03347646 -3.24970218 5.17090975 0 0 Z " fill="#52C399" transform="translate(110,106)"/>
<path d="M0 0 C0.66 0 1.32 0 2 0 C0.83805848 6.46712188 -1.1248748 12.09622349 -4 18 C-4.33 18 -4.66 18 -5 18 C-5 16.35 -5 14.7 -5 13 C-4.34 13 -3.68 13 -3 13 C-3.061875 12.34 -3.12375 11.68 -3.1875 11 C-2.93182247 6.90915946 -1.54304956 3.79333016 0 0 Z " fill="#47C092" transform="translate(298,193)"/>
<path d="M0 0 C1.09337693 3.44579398 1.01923365 6.41021795 0.75 10 C0.68296875 11.03125 0.6159375 12.0625 0.546875 13.125 C-0.03938686 16.20706233 -0.93166201 17.68701989 -3 20 C-3.40850553 12.91923749 -1.90420731 6.80074041 0 0 Z " fill="#51C398" transform="translate(97,133)"/>
<path d="M0 0 C0.66 0 1.32 0 2 0 C0.44298069 4.67105792 -2.08447373 8.08705685 -5 12 C-5.66 11.67 -6.32 11.34 -7 11 C-7 10.34 -7 9.68 -7 9 C-6.01 9 -5.02 9 -4 9 C-4 6.69 -4 4.38 -4 2 C-2.68 2.33 -1.36 2.66 0 3 C0 2.01 0 1.02 0 0 Z " fill="#46C292" transform="translate(288,217)"/>
<path d="M0 0 C2.94721162 2.74395564 5.19168608 5.38337216 7 9 C6.67 9.66 6.34 10.32 6 11 C4.125 10.875 4.125 10.875 2 10 C0.40155515 6.40349908 0 3.96602757 0 0 Z " fill="#45C395" transform="translate(282,100)"/>
<path d="M0 0 C2.25390625 2.05078125 2.25390625 2.05078125 4 4 C1.87363187 3.71848084 -0.25108528 3.42446737 -2.375 3.125 C-3.55835938 2.96257813 -4.74171875 2.80015625 -5.9609375 2.6328125 C-9 2 -9 2 -11 0 C-7.23797543 -1.25400819 -3.76155222 -1.19127853 0 0 Z " fill="#E2F4EF" transform="translate(343,44)"/>
<path d="M0 0 C0.103125 1.051875 0.20625 2.10375 0.3125 3.1875 C0.97733415 6.87430754 1.88566296 8.96638599 4 12 C2.0625 11.6875 2.0625 11.6875 0 11 C-0.33 10.01 -0.66 9.02 -1 8 C-1.66 7.67 -2.32 7.34 -3 7 C-3 5.02 -3 3.04 -3 1 C-1 0 -1 0 0 0 Z " fill="#48C596" transform="translate(150,162)"/>
<path d="M0 0 C4.67105792 1.55701931 8.08705685 4.08447373 12 7 C10.265625 7.67578125 10.265625 7.67578125 8 8 C5.859375 6.85546875 5.859375 6.85546875 3.75 5.1875 C3.04359375 4.64480469 2.3371875 4.10210937 1.609375 3.54296875 C1.07828125 3.03378906 0.5471875 2.52460937 0 2 C0 1.34 0 0.68 0 0 Z " fill="#4CC398" transform="translate(252,74)"/>
<path d="M0 0 C1.43739513 -0.02712066 2.87493863 -0.04645067 4.3125 -0.0625 C5.51326172 -0.07990234 5.51326172 -0.07990234 6.73828125 -0.09765625 C9 0 9 0 12 1 C12 3.64 12 6.28 12 9 C11.67 9 11.34 9 11 9 C10.7525 8.030625 10.505 7.06125 10.25 6.0625 C9.37796169 2.91901219 9.37796169 2.91901219 7.1875 2.1875 C6.465625 2.125625 5.74375 2.06375 5 2 C4.0925 1.814375 3.185 1.62875 2.25 1.4375 C1.5075 1.293125 0.765 1.14875 0 1 C0 0.67 0 0.34 0 0 Z " fill="#DEF7F4" transform="translate(67,7)"/>
<path d="M0 0 C0.66 0.33 1.32 0.66 2 1 C1.21625 1.556875 0.4325 2.11375 -0.375 2.6875 C-3.08704858 5.07668565 -3.96133543 6.60073413 -5 10 C-5.66 10 -6.32 10 -7 10 C-7.33 10.99 -7.66 11.98 -8 13 C-7.46760392 8.47463334 -5.72876727 5.61160373 -3 2 C-2.01 1.34 -1.02 0.68 0 0 Z " fill="#E7F8F0" transform="translate(369,224)"/>
<path d="M0 0 C0 3 0 3 -2.0625 5.25 C-5.83273798 7.49609922 -7.82015699 6.98349247 -12 6 C-12 5.34 -12 4.68 -12 4 C-11.38511719 3.96261719 -10.77023438 3.92523438 -10.13671875 3.88671875 C-9.32847656 3.82097656 -8.52023438 3.75523437 -7.6875 3.6875 C-6.88699219 3.62949219 -6.08648437 3.57148438 -5.26171875 3.51171875 C-2.63727666 2.91793306 -1.69179328 2.04219706 0 0 Z " fill="#5AC69E" transform="translate(193,196)"/>
<path d="M0 0 C1.32 0.66 2.64 1.32 4 2 C0.535 4.97 0.535 4.97 -3 8 C-2.67 6.02 -2.34 4.04 -2 2 C-1.34 2 -0.68 2 0 2 C0 1.34 0 0.68 0 0 Z " fill="#4EC79B" transform="translate(205,153)"/>
<path d="M0 0 C-0.66 1.32 -1.32 2.64 -2 4 C-2.66 4 -3.32 4 -4 4 C-4 4.66 -4 5.32 -4 6 C-5.65 6.33 -7.3 6.66 -9 7 C-8.07347299 5.82460004 -7.13336613 4.65989423 -6.1875 3.5 C-5.66542969 2.8503125 -5.14335937 2.200625 -4.60546875 1.53125 C-3 0 -3 0 0 0 Z " fill="#54C69B" transform="translate(243,149)"/>
<path d="M0 0 C1.32 0.66 2.64 1.32 4 2 C0.535 4.97 0.535 4.97 -3 8 C-2.67 6.02 -2.34 4.04 -2 2 C-1.34 2 -0.68 2 0 2 C0 1.34 0 0.68 0 0 Z " fill="#4EC69B" transform="translate(221,137)"/>
<path d="M0 0 C1.32 0 2.64 0 4 0 C4 0.66 4 1.32 4 2 C4.99 2.33 5.98 2.66 7 3 C7 5.97 7 8.94 7 12 C6.67 12 6.34 12 6 12 C5.62875 10.14375 5.62875 10.14375 5.25 8.25 C4.3289242 4.48560327 3.08652634 2.46922107 0 0 Z " fill="#6ED1AB" transform="translate(241,129)"/>
<path d="M0 0 C2.64 0.33 5.28 0.66 8 1 C8.33 2.65 8.66 4.3 9 6 C5.06326356 4.68775452 2.77280706 3.08089673 0 0 Z " fill="#49C396" transform="translate(135,249)"/>
<path d="M0 0 C0.33 0.99 0.66 1.98 1 3 C-0.125 5.125 -0.125 5.125 -2 7 C-4.6875 7.75 -4.6875 7.75 -7 8 C-6.02133662 6.85373678 -5.04205413 5.70800212 -4.0625 4.5625 C-3.51722656 3.92441406 -2.97195312 3.28632813 -2.41015625 2.62890625 C-1.63204305 1.73008851 -0.84063472 0.84063472 0 0 Z " fill="#66CDA7" transform="translate(233,156)"/>
<path d="M0 0 C2 2 2 2 2 6 C1.34 6 0.68 6 0 6 C0 6.66 0 7.32 0 8 C-0.66 7.67 -1.32 7.34 -2 7 C-2.125 4.625 -2.125 4.625 -2 2 C-1.34 1.34 -0.68 0.68 0 0 Z " fill="#F8FEFE" transform="translate(12,2)"/>
<path d="M0 0 C1.65 0.33 3.3 0.66 5 1 C2.64722731 3.72426311 0.37503669 4.8141763 -3 6 C-2 4 -1 2 0 0 Z " fill="#4EC597" transform="translate(253,251)"/>
<path d="M0 0 C1.32 0 2.64 0 4 0 C4 1.65 4 3.3 4 5 C2.68 5.33 1.36 5.66 0 6 C0 4.02 0 2.04 0 0 Z " fill="#E3F6EE" transform="translate(392,248)"/>
<path d="M0 0 C1.46067199 0.45082469 2.91848032 0.91093537 4.375 1.375 C5.18710938 1.63023438 5.99921875 1.88546875 6.8359375 2.1484375 C9 3 9 3 11 5 C10.01 5.33 9.02 5.66 8 6 C8 5.34 8 4.68 8 4 C7.236875 4.04125 6.47375 4.0825 5.6875 4.125 C3 4 3 4 0 2 C0 1.34 0 0.68 0 0 Z " fill="#5CC8A0" transform="translate(236,66)"/>
<path d="M0 0 C0.33 0 0.66 0 1 0 C1.33 2.64 1.66 5.28 2 8 C0.02 8.99 0.02 8.99 -2 10 C-2.22036864 6.14354879 -1.60355101 3.50776784 0 0 Z " fill="#92C8F0" transform="translate(15,324)"/>
<path d="M0 0 C0.99 0 1.98 0 3 0 C3 1.65 3 3.3 3 5 C3.66 5 4.32 5 5 5 C4.67 6.32 4.34 7.64 4 9 C0 2.25 0 2.25 0 0 Z " fill="#5FC8A1" transform="translate(102,208)"/>
<path d="M0 0 C2.29633824 3.44450737 2.54016485 5.93812283 3 10 C2.34 10 1.68 10 1 10 C-0.60725635 6.78548731 -0.05748185 3.56387464 0 0 Z " fill="#54C69B" transform="translate(297,127)"/>
<path d="M0 0 C1.65 1.65 3.3 3.3 5 5 C2.92446352 5.5534764 1.15634036 6 -1 6 C-0.67 4.02 -0.34 2.04 0 0 Z " fill="#47C493" transform="translate(277,94)"/>
<path d="M0 0 C0.33 0.99 0.66 1.98 1 3 C0.01 4.485 0.01 4.485 -1 6 C-2.32 5.67 -3.64 5.34 -5 5 C-3.35 3.35 -1.7 1.7 0 0 Z " fill="#5ECBA3" transform="translate(209,180)"/>
<path d="M0 0 C0.33 0.99 0.66 1.98 1 3 C0.01 4.485 0.01 4.485 -1 6 C-2.32 5.67 -3.64 5.34 -5 5 C-3.35 3.35 -1.7 1.7 0 0 Z " fill="#5ECBA3" transform="translate(225,164)"/>
<path d="M0 0 C0.66 0 1.32 0 2 0 C2.33 2.64 2.66 5.28 3 8 C2.34 8 1.68 8 1 8 C0.67 5.36 0.34 2.72 0 0 Z " fill="#43BE8F" transform="translate(299,137)"/>
<path d="M0 0 C1.32 0 2.64 0 4 0 C4 0.99 4 1.98 4 3 C2.68 3 1.36 3 0 3 C0 2.01 0 1.02 0 0 Z " fill="#A1CAE0" transform="translate(8,169)"/>
<path d="M0 0 C1.32 0 2.64 0 4 0 C4 0.99 4 1.98 4 3 C2.68 3 1.36 3 0 3 C0 2.01 0 1.02 0 0 Z " fill="#A2CAE0" transform="translate(2,169)"/>
<path d="M0 0 C0.99 0 1.98 0 3 0 C3 0.99 3 1.98 3 3 C2.01 3 1.02 3 0 3 C0 2.01 0 1.02 0 0 Z " fill="#A8CEE7" transform="translate(205,0)"/>
</svg>
