<?xml version="1.0" encoding="UTF-8"?>
<svg version="1.1" xmlns="http://www.w3.org/2000/svg" width="487" height="474">
<path d="M0 0 C2.46076483 2.17639293 4.8498115 4.40807333 7.22265625 6.6796875 C8.32480469 7.68708984 8.32480469 7.68708984 9.44921875 8.71484375 C31.95346002 29.98652057 45.4028663 61.62149945 46.6015625 92.35546875 C47.62602807 131.34675616 36.14710359 164.15203314 9.22265625 192.6796875 C8.53816406 193.42863281 7.85367188 194.17757812 7.1484375 194.94921875 C-14.34139026 217.63071903 -46.88082109 230.81471648 -77.85546875 231.96875 C-116.19541159 232.77012849 -148.37454249 220.01180918 -176.4609375 194.21484375 C-198.29349683 173.19972814 -213.4370401 142.9528361 -214.93847656 112.40087891 C-215.32414144 81.45351507 -215.32414144 81.45351507 -211.77734375 68.6796875 C-211.55691406 67.87837402 -211.33648437 67.07706055 -211.109375 66.25146484 C-205.75545272 47.45962255 -197.49339764 30.56483352 -184.77734375 15.6796875 C-183.96394531 14.71546875 -183.15054688 13.75125 -182.3125 12.7578125 C-176.67817608 6.31349889 -170.58817653 0.8519721 -163.77734375 -4.3203125 C-162.62878906 -5.20976562 -162.62878906 -5.20976562 -161.45703125 -6.1171875 C-113.30926342 -41.69757186 -45.42396188 -37.94913271 0 0 Z M-45.66281128 61.20439148 C-46.67983984 62.21282277 -47.68880134 63.22943434 -48.69091797 64.25268555 C-49.24774765 64.80907715 -49.80457733 65.36546875 -50.37828064 65.9387207 C-52.20340606 67.76592372 -54.01769465 69.60349534 -55.83203125 71.44140625 C-57.1007527 72.71572729 -58.37014138 73.98938436 -59.64016724 75.2624054 C-62.97092131 78.60457951 -66.292565 81.95566617 -69.61236572 85.30871582 C-73.00563198 88.73274412 -76.40747311 92.14822971 -79.80859375 95.56445312 C-86.47324411 102.26121751 -93.12829721 108.96743273 -99.77734375 115.6796875 C-103.74126438 112.34662934 -107.5866002 108.99160346 -111.1875 105.26171875 C-111.94998047 104.48248047 -112.71246094 103.70324219 -113.49804688 102.90039062 C-115.06700487 101.28694175 -116.63207986 99.66970836 -118.19335938 98.04882812 C-124.4979915 91.40612522 -124.4979915 91.40612522 -132.9375 88.4296875 C-138.0273647 89.09858142 -140.45028338 90.54606704 -143.77734375 94.6796875 C-145.36059132 97.84618263 -145.42108611 101.25426944 -144.77734375 104.6796875 C-141.70154502 109.90988348 -137.78924764 113.9443434 -133.4921875 118.1953125 C-132.79468887 118.89235291 -132.09719025 119.58939331 -131.3785553 120.30755615 C-129.91090867 121.77219465 -128.44084538 123.23441509 -126.96850586 124.69433594 C-124.71342583 126.9310939 -122.46651625 129.17581656 -120.22070312 131.421875 C-118.79083667 132.84682803 -117.36051384 134.27132331 -115.9296875 135.6953125 C-115.25775864 136.36612854 -114.58582977 137.03694458 -113.89353943 137.72808838 C-113.26601273 138.34923523 -112.63848602 138.97038208 -111.99194336 139.61035156 C-111.44219345 140.15628967 -110.89244354 140.70222778 -110.32603455 141.26470947 C-107.38999285 143.94725559 -105.3727933 144.98719269 -101.46484375 145.0546875 C-100.72621094 145.08304687 -99.98757812 145.11140625 -99.2265625 145.140625 C-93.08443956 143.98469118 -88.50952618 138.7006652 -84.26879883 134.42993164 C-83.64851303 133.81315048 -83.02822723 133.19636932 -82.3891449 132.56089783 C-80.3533503 130.53385961 -78.32490494 128.4996482 -76.296875 126.46484375 C-74.8780336 125.04735058 -73.45889551 123.63015433 -72.03947449 122.21324158 C-69.07163745 119.2483474 -66.10743354 116.27988048 -63.14575195 113.30883789 C-59.35288867 109.50457026 -55.55110332 105.70936587 -51.74655628 101.91678715 C-48.81670433 98.99416745 -45.89163905 96.06679446 -42.96799278 93.13796806 C-41.56804817 91.73669129 -40.16662186 90.33689317 -38.76368141 88.9386158 C-36.80347056 86.98349366 -34.84980126 85.02205776 -32.89770508 83.05883789 C-32.31946991 82.48465118 -31.74123474 81.91046448 -31.14547729 81.31887817 C-27.18833795 77.31994372 -24.02367021 73.97873449 -23.40234375 68.1796875 C-23.89763871 63.55693451 -25.27658236 61.1286985 -28.58984375 57.9296875 C-35.39614624 54.04037179 -40.09965284 56.3367823 -45.66281128 61.20439148 Z " fill="#03B772" transform="translate(315.77734375,139.3203125)"/>
<path d="M0 0 C5.27167658 3.56409019 9.13853211 8.33419122 11.07421875 14.40234375 C12.16349188 22.39383797 11.47880287 28.6219601 6.84375 35.30859375 C2.29876195 40.68632795 -2.87871806 43.66882044 -9.92578125 44.40234375 C-17.03494403 44.50212147 -23.42441113 42.67080677 -28.6875 37.7578125 C-34.35611291 31.45782866 -35.38451691 26.03024764 -35.2421875 17.6328125 C-34.66606728 11.75069623 -32.34790596 8.14049618 -28.67578125 3.65234375 C-20.01509115 -3.43367543 -10.28388406 -5.1880995 0 0 Z " fill="#CDF0E2" transform="translate(55.92578125,395.59765625)"/>
<path d="M0 0 C6.71821605 3.76703569 10.4978094 8.17600815 13.41796875 15.2109375 C14.81585372 23.45845883 13.43521 29.67176978 8.86328125 36.6953125 C5.37507757 40.91708691 1.17446554 43.18793857 -3.95703125 44.8984375 C-11.37123107 45.56846148 -17.89087381 45.56872646 -23.95703125 40.8984375 C-29.98709544 35.28629855 -32.94009175 30.33544938 -33.26953125 22.0234375 C-33.05300843 14.00006411 -30.67201211 9.03831382 -24.96875 3.44140625 C-17.65888447 -2.16518965 -8.65306889 -3.2234682 0 0 Z " fill="#CDF0E2" transform="translate(464.95703125,312.1015625)"/>
<path d="M0 0 C4.44336088 3.75217141 6.53800417 7.13981971 7.25 12.9375 C6.57339326 18.2536958 4.83536886 21.69500937 0.8125 25.1875 C-3.62160219 28.42069951 -6.77694944 28.74181699 -12.1875 28.375 C-17.49621914 26.29314936 -21.0212051 23.8186655 -23.5 18.625 C-24.67013961 13.09343091 -24.07956501 9.06355162 -21.4375 4.0625 C-15.49366078 -3.03708573 -8.24741956 -4.20456684 0 0 Z " fill="#D0F0E4" transform="translate(412.1875,91.625)"/>
<path d="M0 0 C3.07469523 1.70251719 5.40613254 3.81226508 7 7 C7.52137294 11.82911 7.73402673 15.74166846 5.25 20 C2.554099 22.39635645 0.4719134 23.89730837 -3.18359375 24.15234375 C-7.35602232 23.75462526 -9.52925598 23.36056989 -12.9375 20.75 C-15.7083407 17.05554573 -17.03674856 14.7271823 -16.9375 10.0625 C-15.69939974 6.01803914 -13.91497613 4.05717009 -11 1 C-7.51556578 -0.74221711 -3.80112955 -0.58675154 0 0 Z " fill="#CEF0E3" transform="translate(308,427)"/>
<path d="M0 0 C4.45850936 0.79616239 5.90783917 1.93313458 8.5 5.625 C9.125 9.125 9.125 9.125 8.5 12.625 C6.22103757 15.62020777 4.495378 17.2268488 1 18.625 C-2.3182753 18.625 -3.87876644 17.60863621 -6.5 15.625 C-9.00031654 11.87452518 -9.03603554 10.06643734 -8.5 5.625 C-5.90783917 1.93313458 -4.45850936 0.79616239 0 0 Z " fill="#D3F1E6" transform="translate(74.5,42.375)"/>
<path d="M0 0 C2.36497439 1.86708505 3.66030715 3.32061431 5 6 C5.40616229 9.65546065 5.21434253 11.58917682 3.5 14.875 C0.62243886 17.32092697 -1.27319052 17.67428198 -5.03125 17.421875 C-8.20804014 16.74113426 -9.86342845 15.39554993 -12 13 C-13.44237527 9.57435872 -13.11756353 8.29978701 -11.75 4.8125 C-8.61677095 -0.22304669 -5.6561539 -0.59538462 0 0 Z " fill="#D3F1E6" transform="translate(17,264)"/>
<path d="M0 0 C0.33 0 0.66 0 1 0 C1.05397335 2.4377963 1.09365616 4.87439685 1.125 7.3125 C1.15013672 8.34793945 1.15013672 8.34793945 1.17578125 9.40429688 C1.21217794 13.17135396 1.14378864 14.78431704 -1 18 C-1.30898577 20.69522004 -1.30898577 20.69522004 -1.265625 23.734375 C-1.26820312 24.86617187 -1.27078125 25.99796875 -1.2734375 27.1640625 C-1.26570313 28.34742188 -1.25796875 29.53078125 -1.25 30.75 C-1.25773437 31.91789062 -1.26546875 33.08578125 -1.2734375 34.2890625 C-1.25983835 40.28628624 -0.8383006 45.25355651 1 51 C1.35723913 53.80716887 1.50089474 56.61151991 1.625 59.4375 C1.66367188 60.16904297 1.70234375 60.90058594 1.7421875 61.65429688 C1.83533984 63.43583532 1.91870286 65.21788122 2 67 C-7.85523136 52.21715295 -4.62217237 23.13153729 -1.5 6.625 C-1.04360322 4.4012905 -0.54309794 2.20471901 0 0 Z " fill="#5CC59D" transform="translate(104,208)"/>
<path d="M0 0 C1.25876953 -0.00128906 2.51753906 -0.00257812 3.81445312 -0.00390625 C5.11189453 -0.00003906 6.40933594 0.00382812 7.74609375 0.0078125 C9.04740234 0.00394531 10.34871094 0.00007813 11.68945312 -0.00390625 C13.57567383 -0.00197266 13.57567383 -0.00197266 15.5 0 C17.20845093 0.00169189 17.20845093 0.00169189 18.95141602 0.00341797 C22.10985099 0.12986034 25.081462 0.54212579 28.18359375 1.1328125 C28.18359375 1.4628125 28.18359375 1.7928125 28.18359375 2.1328125 C27.23742187 2.11186523 26.29125 2.09091797 25.31640625 2.06933594 C21.72314284 1.99558844 18.12994215 1.95053706 14.53613281 1.91308594 C12.99630398 1.89327079 11.45654717 1.8662104 9.91699219 1.83105469 C-1.31570333 1.58143923 -11.04998208 2.94742261 -21.81640625 6.1328125 C-24.68826221 6.90537451 -27.08586191 7.24498824 -30.06640625 7.1953125 C-31.92265625 7.164375 -31.92265625 7.164375 -33.81640625 7.1328125 C-30.22736592 4.74011895 -26.70644214 4.00093595 -22.56640625 3.0703125 C-21.82777344 2.89693359 -21.08914062 2.72355469 -20.328125 2.54492188 C-13.55317065 0.98560698 -6.97312324 0.00689872 0 0 Z " fill="#81D5B6" transform="translate(223.81640625,108.8671875)"/>
<path d="M0 0 C0.33 0 0.66 0 1 0 C2.35004653 7.09518439 2.23941154 14.18299364 2.25 21.375 C2.25233643 22.09187988 2.25467285 22.80875977 2.25708008 23.54736328 C2.26993975 33.96370154 1.79051223 43.90100337 -1 54 C-1.33 54 -1.66 54 -2 54 C-1.86125385 50.22887069 -1.71278907 46.45818555 -1.5625 42.6875 C-1.52318359 41.61564453 -1.48386719 40.54378906 -1.44335938 39.43945312 C-1.40146484 38.41142578 -1.35957031 37.38339844 -1.31640625 36.32421875 C-1.27974854 35.37635498 -1.24309082 34.42849121 -1.20532227 33.4519043 C-1 31 -1 31 0 28 C0.0833804 25.86205475 0.10733747 23.72157991 0.09765625 21.58203125 C0.09443359 20.32841797 0.09121094 19.07480469 0.08789062 17.78320312 C0.07951172 16.47287109 0.07113281 15.16253906 0.0625 13.8125 C0.05748317 12.47721519 0.05292059 11.14192859 0.04882812 9.80664062 C0.03702695 6.53771527 0.02056297 3.26888009 0 0 Z " fill="#4EC498" transform="translate(360,218)"/>
<path d="M0 0 C0.58203125 1.890625 0.58203125 1.890625 1 4 C-0.3125 5.75 -0.3125 5.75 -2 7 C-2.66 7 -3.32 7 -4 7 C-4.103125 7.598125 -4.20625 8.19625 -4.3125 8.8125 C-5.10636936 11.33844795 -5.95572409 12.34885407 -8 14 C-8.99 14.33 -9.98 14.66 -11 15 C-11.33 15.99 -11.66 16.98 -12 18 C-13.65 18 -15.3 18 -17 18 C-17.33 18.66 -17.66 19.32 -18 20 C-21.3 20 -24.6 20 -28 20 C-28 19.67 -28 19.34 -28 19 C-27.3709375 18.93683594 -26.741875 18.87367188 -26.09375 18.80859375 C-18.75781063 17.75902411 -15.08738334 15.22975415 -10 10 C-9.1028125 9.11441406 -8.205625 8.22882813 -7.28125 7.31640625 C-4.83578213 4.8949809 -2.41110416 2.45557124 0 0 Z " fill="#54CB9E" transform="translate(239,265)"/>
<path d="M0 0 C-1 2 -1 2 -2.7421875 2.67578125 C-3.79792969 2.99095703 -3.79792969 2.99095703 -4.875 3.3125 C-8.10276978 4.43469953 -8.86873073 4.82360691 -11 7.6875 C-11.33 8.450625 -11.66 9.21375 -12 10 C-13.3921875 9.690625 -13.3921875 9.690625 -14.8125 9.375 C-18.15173402 8.63307034 -18.15173402 8.63307034 -21 11 C-23.1875 10.625 -23.1875 10.625 -25 10 C-3.53416149 -1.76708075 -3.53416149 -1.76708075 0 0 Z " fill="#3AC08E" transform="translate(189,117)"/>
<path d="M0 0 C0.7940625 -0.01417969 1.588125 -0.02835937 2.40625 -0.04296875 C4.5 0.1875 4.5 0.1875 6.5 2.1875 C2.54 2.1875 -1.42 2.1875 -5.5 2.1875 C-6.16 3.5075 -6.82 4.8275 -7.5 6.1875 C-8.49 7.6725 -8.49 7.6725 -9.5 9.1875 C-9.17370401 13.29882941 -8.65681413 17.22128012 -7.5 21.1875 C-10.24089824 18.82036061 -11.52493482 16.68148354 -12.5 13.1875 C-12.38150544 7.61825548 -10.19717399 5.06502395 -6.5 1.1875 C-4.14653604 0.01076802 -2.6193967 0.02126134 0 0 Z " fill="#E3F4EF" transform="translate(303.5,426.8125)"/>
<path d="M0 0 C0.66 0 1.32 0 2 0 C2 0.99 2 1.98 2 3 C3.0209375 2.505 3.0209375 2.505 4.0625 2 C7.50840238 0.82692685 10.38397422 0.85819507 14 1 C11.63988133 2.18005934 9.29234498 3.31136821 6.875 4.375 C3.73813673 6.14800968 3.2133925 6.73757677 2 10 C1.75970041 12.59154919 1.75970041 12.59154919 1.875 15.25 C1.89304688 16.14203125 1.91109375 17.0340625 1.9296875 17.953125 C1.95289063 18.62859375 1.97609375 19.3040625 2 20 C1.01 19.67 0.02 19.34 -1 19 C-1 15.7 -1 12.4 -1 9 C-0.34 9 0.32 9 1 9 C1 7.68 1 6.36 1 5 C0.34 4.67 -0.32 4.34 -1 4 C-0.67 2.68 -0.34 1.36 0 0 Z " fill="#41C291" transform="translate(170,226)"/>
<path d="M0 0 C0.33 1.32 0.66 2.64 1 4 C-0.3125 5.75 -0.3125 5.75 -2 7 C-2.66 7 -3.32 7 -4 7 C-4.1546875 7.8971875 -4.1546875 7.8971875 -4.3125 8.8125 C-5.35142277 12.11816335 -7.11603989 13.44752493 -10 15.25 C-12 16 -12 16 -15 15 C-10.05 10.05 -5.1 5.1 0 0 Z " fill="#29BA84" transform="translate(255,249)"/>
<path d="M0 0 C0.33 1.32 0.66 2.64 1 4 C-0.3125 5.75 -0.3125 5.75 -2 7 C-2.66 7 -3.32 7 -4 7 C-4.1546875 7.8971875 -4.1546875 7.8971875 -4.3125 8.8125 C-5.35142277 12.11816335 -7.11603989 13.44752493 -10 15.25 C-12 16 -12 16 -15 15 C-10.05 10.05 -5.1 5.1 0 0 Z " fill="#29BA84" transform="translate(271,233)"/>
<path d="M0 0 C4.3573226 1.47130373 7.71934134 3.83080615 11.3125 6.625 C11.86228516 7.04523438 12.41207031 7.46546875 12.97851562 7.8984375 C14.32292168 8.92720039 15.66201413 9.9629009 17 11 C16.34 11.66 15.68 12.32 15 13 C14.01 12.67 13.02 12.34 12 12 C12 11.34 12 10.68 12 10 C9.03 9.505 9.03 9.505 6 9 C5.67 7.68 5.34 6.36 5 5 C3.68 4.67 2.36 4.34 1 4 C0.67 2.68 0.34 1.36 0 0 Z " fill="#35BC89" transform="translate(300,129)"/>
<path d="M0 0 C1.23046875 1.5 1.23046875 1.5 2 4 C1.13384073 6.84989256 -0.2744208 9.38686862 -1.6875 12 C-2.05294922 12.7115625 -2.41839844 13.423125 -2.79492188 14.15625 C-4.62138123 17.65886973 -6.48411537 20.93301683 -9 24 C-9.33 23.01 -9.66 22.02 -10 21 C-9.01 19.515 -9.01 19.515 -8 18 C-7.34 18 -6.68 18 -6 18 C-6 16.02 -6 14.04 -6 12 C-5.34 12 -4.68 12 -4 12 C-3.34 9.36 -2.68 6.72 -2 4 C-1.34 4 -0.68 4 0 4 C0 2.68 0 1.36 0 0 Z " fill="#53C69C" transform="translate(351,286)"/>
<path d="M0 0 C2.21860226 2.21860226 2.61849652 3.46906836 3.5078125 6.4296875 C3.77207031 7.30753906 4.03632813 8.18539062 4.30859375 9.08984375 C4.57800781 10.00894531 4.84742188 10.92804688 5.125 11.875 C5.40214844 12.78636719 5.67929687 13.69773438 5.96484375 14.63671875 C7.15929152 18.65547651 8 21.76214832 8 26 C7.34 26 6.68 26 6 26 C5.80664062 25.20335937 5.61328125 24.40671875 5.4140625 23.5859375 C3.84213986 17.11086602 3.84213986 17.11086602 1.875 10.75 C0.73592472 7.17004913 0.38640706 3.73526824 0 0 Z " fill="#50C499" transform="translate(352,190)"/>
<path d="M0 0 C0.66 0.99 1.32 1.98 2 3 C1.34 3 0.68 3 0 3 C-0.03738281 3.59167969 -0.07476562 4.18335938 -0.11328125 4.79296875 C-0.52641887 9.75872091 -1.31346073 12.74631282 -4 17 C-4.71923208 20.69523952 -4.71923208 20.69523952 -5 24 C-5.66 23.67 -6.32 23.34 -7 23 C-6.42389687 17.45044957 -4.97901452 12.73970503 -2.9375 7.5625 C-2.65583984 6.83095703 -2.37417969 6.09941406 -2.08398438 5.34570312 C-1.39586753 3.56126454 -0.69885394 1.78026095 0 0 Z " fill="#4EC599" transform="translate(112,185)"/>
<path d="M0 0 C1.98 0 3.96 0 6 0 C2.6189962 4.13621084 -0.66590534 7.81316569 -5 11 C-5.99 9.68 -6.98 8.36 -8 7 C-5.525 7.495 -5.525 7.495 -3 8 C-3 6.68 -3 5.36 -3 4 C-2.01 4 -1.02 4 0 4 C0 2.68 0 1.36 0 0 Z " fill="#4BC798" transform="translate(220,245)"/>
<path d="M0 0 C2.86562595 2.47906057 4.1617794 5.12161059 5.6875 8.5625 C6.12449219 9.53316406 6.56148438 10.50382813 7.01171875 11.50390625 C8 14 8 14 8 16 C7.34 16 6.68 16 6 16 C6 16.66 6 17.32 6 18 C5.34 17.67 4.68 17.34 4 17 C4.33 15.35 4.66 13.7 5 12 C4.34 12 3.68 12 3 12 C3 10.35 3 8.7 3 7 C2.34 7 1.68 7 1 7 C0.67 4.69 0.34 2.38 0 0 Z " fill="#42C091" transform="translate(344,174)"/>
<path d="M0 0 C-7.19690314 3.86749468 -14.88833159 5.45915104 -23 5 C-16.33930189 0.55953459 -7.86842447 -0.45394757 0 0 Z " fill="#51C398" transform="translate(213,111)"/>
<path d="M0 0 C0.33 0 0.66 0 1 0 C2.68561267 5.21443596 3.38512698 9.97539135 3.625 15.4375 C3.66367188 16.16904297 3.70234375 16.90058594 3.7421875 17.65429688 C3.83533984 19.43583532 3.91870286 21.21788122 4 23 C-0.48355057 16.27467414 -0.30050602 7.84654605 0 0 Z " fill="#48BF92" transform="translate(102,252)"/>
<path d="M0 0 C0.58203125 1.890625 0.58203125 1.890625 1 4 C-0.3125 5.75 -0.3125 5.75 -2 7 C-2.66 7 -3.32 7 -4 7 C-4.33 8.32 -4.66 9.64 -5 11 C-6.32 11.33 -7.64 11.66 -9 12 C-8.45015228 8.12488273 -6.72444669 6.40423494 -3.9375 3.75 C-3.20402344 3.04359375 -2.47054687 2.3371875 -1.71484375 1.609375 C-1.14894531 1.07828125 -0.58304688 0.5471875 0 0 Z " fill="#29BA84" transform="translate(239,265)"/>
<path d="M0 0 C1.32 0.33 2.64 0.66 4 1 C1.03 3.97 -1.94 6.94 -5 10 C-5.66 9.01 -6.32 8.02 -7 7 C-6.67 6.01 -6.34 5.02 -6 4 C-4.35 4 -2.7 4 -1 4 C-0.67 2.68 -0.34 1.36 0 0 Z " fill="#5BCBA1" transform="translate(242,225)"/>
<path d="M0 0 C0.99 0 1.98 0 3 0 C3 0.66 3 1.32 3 2 C6.3 1.67 9.6 1.34 13 1 C9.77739289 3.14840474 7.71606424 3.60723087 3.9375 4.25 C2.87402344 4.44078125 1.81054688 4.6315625 0.71484375 4.828125 C-0.62900391 4.91320312 -0.62900391 4.91320312 -2 5 C-2.66 4.34 -3.32 3.68 -4 3 C-2.68 2.67 -1.36 2.34 0 2 C0 1.34 0 0.68 0 0 Z " fill="#44C191" transform="translate(256,364)"/>
<path d="M0 0 C0.66 0 1.32 0 2 0 C2 1.65 2 3.3 2 5 C2.66 5 3.32 5 4 5 C3.34 7.97 2.68 10.94 2 14 C0.68 14.33 -0.64 14.66 -2 15 C-1.67 14.38125 -1.34 13.7625 -1 13.125 C0.40387684 8.73788488 0.15967523 4.56848573 0 0 Z " fill="#44C393" transform="translate(291,201)"/>
<path d="M0 0 C0.66 0.33 1.32 0.66 2 1 C0.38405168 3.04119788 -1.2856382 5.04072937 -3 7 C-3.66 7 -4.32 7 -5 7 C-5 7.99 -5 8.98 -5 10 C-6.65 10 -8.3 10 -10 10 C-3.84965831 2.51708428 -3.84965831 2.51708428 0 0 Z " fill="#4EC599" transform="translate(153,134)"/>
<path d="M0 0 C1.31611677 0.95336021 2.62778961 1.91285774 3.9375 2.875 C4.66839844 3.40867187 5.39929688 3.94234375 6.15234375 4.4921875 C8 6 8 6 9 8 C8.05125 7.979375 7.1025 7.95875 6.125 7.9375 C3.09333717 7.77448174 3.09333717 7.77448174 1 9 C0.67 6.03 0.34 3.06 0 0 Z " fill="#2ABB85" transform="translate(201,276)"/>
<path d="M0 0 C0.66 0.33 1.32 0.66 2 1 C0.67881495 3.6423701 -0.65809192 4.01619984 -3.3125 5.25 C-4.09238281 5.62640625 -4.87226563 6.0028125 -5.67578125 6.390625 C-8 7 -8 7 -10.29296875 6.109375 C-10.85628906 5.74328125 -11.41960937 5.3771875 -12 5 C-10.04578965 4.13644222 -8.08648653 3.28440066 -6.125 2.4375 C-5.03445312 1.96183594 -3.94390625 1.48617187 -2.8203125 0.99609375 C-1.88960937 0.66738281 -0.95890625 0.33867188 0 0 Z " fill="#51C69A" transform="translate(187,116)"/>
<path d="M0 0 C0.66 0 1.32 0 2 0 C0.9318153 5.11365014 -0.23107476 10.07227969 -2 15 C-2.33 15 -2.66 15 -3 15 C-3.05395478 13.37536158 -3.09277195 11.75021459 -3.125 10.125 C-3.14820313 9.22007812 -3.17140625 8.31515625 -3.1953125 7.3828125 C-3 5 -3 5 -1 3 C-0.67 2.01 -0.34 1.02 0 0 Z " fill="#4FC498" transform="translate(356,273)"/>
<path d="M0 0 C2.93200474 2.85276137 5.64315404 5.65079784 8 9 C7.67 9.66 7.34 10.32 7 11 C3.73539027 9.19587357 2.11070205 8.16605307 0 5 C-0.125 2.3125 -0.125 2.3125 0 0 Z " fill="#44C393" transform="translate(333,158)"/>
<path d="M0 0 C6.81598387 -0.33278764 11.92122066 -0.24201565 18 3 C15.29120665 4.35439668 12.99066732 4.06501451 10 4 C10 3.01 10 2.02 10 1 C6.7 1 3.4 1 0 1 C0 0.67 0 0.34 0 0 Z " fill="#E6F7F1" transform="translate(38,393)"/>
<path d="M0 0 C1.98 0 3.96 0 6 0 C3.0094833 3.33557632 0.06815373 5.15083921 -4 7 C-4 6.01 -4 5.02 -4 4 C-3.01 4 -2.02 4 -1 4 C-0.67 2.68 -0.34 1.36 0 0 Z " fill="#3DBF8E" transform="translate(303,345)"/>
<path d="M0 0 C1.14926266 0.95421808 2.29430541 1.91352045 3.4375 2.875 C4.07558594 3.40867187 4.71367187 3.94234375 5.37109375 4.4921875 C7 6 7 6 8 8 C5.69 7.67 3.38 7.34 1 7 C0.67 4.69 0.34 2.38 0 0 Z " fill="#2CB884" transform="translate(185,260)"/>
<path d="M0 0 C1 2 1 2 0.328125 4.12890625 C-0.02765625 4.93199219 -0.3834375 5.73507813 -0.75 6.5625 C-1.09546875 7.36816406 -1.4409375 8.17382812 -1.796875 9.00390625 C-3 11 -3 11 -6 12 C-4.68139111 7.38486888 -2.78644563 3.90102388 0 0 Z " fill="#63CEA5" transform="translate(122,167)"/>
<path d="M0 0 C0.66 0.99 1.32 1.98 2 3 C-0.52956528 6.0916909 -3.22454612 6.90931332 -7 8 C-6.02133662 6.85373678 -5.04205413 5.70800212 -4.0625 4.5625 C-3.51722656 3.92441406 -2.97195313 3.28632813 -2.41015625 2.62890625 C-1.63204305 1.73008851 -0.84063472 0.84063472 0 0 Z " fill="#41C291" transform="translate(285,219)"/>
<path d="M0 0 C0.33 1.65 0.66 3.3 1 5 C0.0925 4.38125 -0.815 3.7625 -1.75 3.125 C-4.14948817 1.55610389 -6.40961612 0.19556179 -9 -1 C-5.23375329 -2.25541557 -3.62811066 -1.37061958 0 0 Z " fill="#4DC99B" transform="translate(290,196)"/>
<path d="M0 0 C0.99 0.33 1.98 0.66 3 1 C2.02471263 2.33617352 1.04466681 3.6688751 0.0625 5 C-0.48277344 5.7425 -1.02804687 6.485 -1.58984375 7.25 C-2.28787109 8.11625 -2.28787109 8.11625 -3 9 C-3.33 9 -3.66 9 -4 9 C-4 7.02 -4 5.04 -4 3 C-2.68 3 -1.36 3 0 3 C0 2.01 0 1.02 0 0 Z " fill="#48C495" transform="translate(335,316)"/>
<path d="M0 0 C1.14926266 0.95421808 2.29430541 1.91352045 3.4375 2.875 C4.07558594 3.40867187 4.71367187 3.94234375 5.37109375 4.4921875 C7 6 7 6 8 8 C5.6875 7.8125 5.6875 7.8125 3 7 C0 2.96551724 0 2.96551724 0 0 Z " fill="#34B987" transform="translate(193,268)"/>
<path d="M0 0 C1.14926266 0.95421808 2.29430541 1.91352045 3.4375 2.875 C4.07558594 3.40867188 4.71367187 3.94234375 5.37109375 4.4921875 C7 6 7 6 8 8 C5.6875 7.8125 5.6875 7.8125 3 7 C0 2.96551724 0 2.96551724 0 0 Z " fill="#34B887" transform="translate(177,252)"/>
<path d="M0 0 C0.33 0.66 0.66 1.32 1 2 C-1.17508418 6.69360269 -1.17508418 6.69360269 -4.1875 7.8125 C-4.785625 7.874375 -5.38375 7.93625 -6 8 C-4.26440562 4.942048 -2.61527381 2.36620011 0 0 Z " fill="#5BC79E" transform="translate(134,152)"/>
<path d="M0 0 C0.66 0.33 1.32 0.66 2 1 C0.41641358 4.16717283 -0.45263699 5.73268318 -3.6875 7.3125 C-4.450625 7.539375 -5.21375 7.76625 -6 8 C-4.55746343 4.63408134 -2.66735273 2.48952921 0 0 Z " fill="#78D3B3" transform="translate(141,144)"/>
<path d="M0 0 C8.57142857 0.85714286 8.57142857 0.85714286 12 3 C7.06729471 4.6442351 4.45975807 3.18615592 0 1 C0 0.67 0 0.34 0 0 Z " fill="#58C89E" transform="translate(254,111)"/>
<path d="M0 0 C0.33 0 0.66 0 1 0 C1.25 2.25 1.25 2.25 1 5 C-1 7.3125 -1 7.3125 -3 9 C-2.5020163 5.26512223 -2.12508244 3.18762365 0 0 Z " fill="#E3F3EC" transform="translate(436,320)"/>
<path d="M0 0 C1.125 1.6875 1.125 1.6875 2 4 C1.125 6.75 1.125 6.75 0 9 C-0.66 9 -1.32 9 -2 9 C-2 7.35 -2 5.7 -2 4 C-1.34 4 -0.68 4 0 4 C0 2.68 0 1.36 0 0 Z " fill="#47C093" transform="translate(351,286)"/>
<path d="M0 0 C1.65 1.65 3.3 3.3 5 5 C4.401875 5.144375 3.80375 5.28875 3.1875 5.4375 C1.43849596 5.8872439 -0.28677023 6.42892341 -2 7 C-1.34 4.69 -0.68 2.38 0 0 Z " fill="#30BA87" transform="translate(172,246)"/>
<path d="M0 0 C1.67542976 0.28604898 3.34385343 0.61781233 5 1 C3.35 2.65 1.7 4.3 0 6 C-0.38218767 4.34385343 -0.71395102 2.67542976 -1 1 C-0.67 0.67 -0.34 0.34 0 0 Z " fill="#54C99E" transform="translate(252,213)"/>
<path d="M0 0 C1.67542976 0.28604898 3.34385343 0.61781233 5 1 C3.35 2.65 1.7 4.3 0 6 C-0.38218767 4.34385343 -0.71395102 2.67542976 -1 1 C-0.67 0.67 -0.34 0.34 0 0 Z " fill="#54C99F" transform="translate(268,197)"/>
<path d="M0 0 C2.31 0.33 4.62 0.66 7 1 C7.33 2.32 7.66 3.64 8 5 C4.62496331 3.8141763 2.35277269 2.72426311 0 0 Z " fill="#54C498" transform="translate(158,348)"/>
<path d="M0 0 C0.66 1.32 1.32 2.64 2 4 C0.1875 5.0625 0.1875 5.0625 -2 6 C-2.99 5.67 -3.98 5.34 -5 5 C-3.35 3.35 -1.7 1.7 0 0 Z " fill="#40C291" transform="translate(245,259)"/>
<path d="M0 0 C0.66 1.32 1.32 2.64 2 4 C0.1875 5.0625 0.1875 5.0625 -2 6 C-2.99 5.67 -3.98 5.34 -5 5 C-3.35 3.35 -1.7 1.7 0 0 Z " fill="#40C291" transform="translate(261,243)"/>
<path d="M0 0 C0.66 1.32 1.32 2.64 2 4 C0.1875 5.0625 0.1875 5.0625 -2 6 C-2.99 5.67 -3.98 5.34 -5 5 C-3.35 3.35 -1.7 1.7 0 0 Z " fill="#40C291" transform="translate(277,227)"/>
<path d="M0 0 C1.37432457 3.81756824 0.67975039 7.07255329 0 11 C-0.66 10.67 -1.32 10.34 -2 10 C-1.54177532 6.53058454 -1.10868317 3.32604951 0 0 Z " fill="#58C89E" transform="translate(107,198)"/>
<path d="M0 0 C0.33 1.32 0.66 2.64 1 4 C-0.32 4.99 -1.64 5.98 -3 7 C-3.66 6.34 -4.32 5.68 -5 5 C-3.35 3.35 -1.7 1.7 0 0 Z " fill="#45C293" transform="translate(239,265)"/>
<path d="M0 0 C0.33 1.32 0.66 2.64 1 4 C-0.32 4.99 -1.64 5.98 -3 7 C-3.66 6.34 -4.32 5.68 -5 5 C-3.35 3.35 -1.7 1.7 0 0 Z " fill="#45C293" transform="translate(255,249)"/>
<path d="M0 0 C0.33 1.32 0.66 2.64 1 4 C-0.32 4.99 -1.64 5.98 -3 7 C-3.66 6.34 -4.32 5.68 -5 5 C-3.35 3.35 -1.7 1.7 0 0 Z " fill="#45C293" transform="translate(271,233)"/>
<path d="M0 0 C1.98 0 3.96 0 6 0 C4.35 1.65 2.7 3.3 1 5 C0.67 3.35 0.34 1.7 0 0 Z " fill="#5ECBA3" transform="translate(229,236)"/>
<path d="M0 0 C1.98 0 3.96 0 6 0 C4.35 1.65 2.7 3.3 1 5 C0.67 3.35 0.34 1.7 0 0 Z " fill="#5ECBA3" transform="translate(245,220)"/>
<path d="M0 0 C1.98 0 3.96 0 6 0 C4.35 1.65 2.7 3.3 1 5 C0.67 3.35 0.34 1.7 0 0 Z " fill="#5ECBA3" transform="translate(261,204)"/>
</svg>
