<?xml version="1.0" encoding="UTF-8"?>
<svg version="1.1" xmlns="http://www.w3.org/2000/svg" width="194" height="193">
<path d="M0 0 C22.40874194 -0.02332665 44.81748188 -0.04097802 67.22623348 -0.05181217 C77.63023725 -0.05697563 88.03423349 -0.06401926 98.43823242 -0.07543945 C107.50290274 -0.08538478 116.5675676 -0.09185307 125.63224322 -0.09408849 C130.43502608 -0.09539586 135.23779334 -0.09848333 140.04057121 -0.10573006 C144.555668 -0.11248789 149.07074268 -0.11461745 153.58584404 -0.11310768 C155.2479718 -0.11338412 156.91010026 -0.11539064 158.57222366 -0.11920547 C160.83149692 -0.12413904 163.09068534 -0.12299955 165.34996033 -0.12025452 C166.61742568 -0.12117631 167.88489103 -0.1220981 169.19076443 -0.12304783 C172 0 172 0 173 1 C173.11655816 3.84884107 173.16802295 6.67375491 173.17700195 9.52368164 C173.18357315 10.41805939 173.19014435 11.31243713 173.19691467 12.23391724 C173.21670759 15.20933101 173.22832655 18.18469405 173.23828125 21.16015625 C173.24235678 22.17528227 173.2464323 23.19040829 173.25063133 24.2362957 C173.27152248 29.61415277 173.28580821 34.99198413 173.29516602 40.36987305 C173.30620738 45.91932339 173.34057239 51.46837019 173.38033772 57.01767826 C173.40652622 61.28745758 173.41486009 65.55714138 173.41844749 69.82699394 C173.42331151 71.87185819 173.43492017 73.91671823 173.45348549 75.96150398 C173.47791303 78.83150892 173.47690464 81.7004789 173.4699707 84.57055664 C173.48918579 85.82948479 173.48918579 85.82948479 173.50878906 87.11384583 C173.44922375 93.90835169 171.51986021 99.07206526 167.0703125 104.2421875 C166.42835938 104.78101563 165.78640625 105.31984375 165.125 105.875 C164.48820313 106.42929688 163.85140625 106.98359375 163.1953125 107.5546875 C157.26304723 111.4602714 150.90910033 111.40979726 144.04443359 111.61669922 C142.98416143 111.65429792 141.92388927 111.69189663 140.83148766 111.73063469 C129.98434072 112.08719233 119.14104118 112.14564723 108.2890625 112.1328125 C106.21414173 112.13348954 104.13922104 112.13446285 102.06430054 112.13571167 C97.76372506 112.1371679 93.46317065 112.1351008 89.16259766 112.13037109 C83.70351817 112.12465328 78.24448766 112.12797911 72.78540993 112.13394356 C68.51784915 112.13758737 64.25029965 112.13639356 59.98273849 112.13381577 C57.97128671 112.13315815 55.95983384 112.13393312 53.94838333 112.13629532 C44.28807491 112.14516381 34.64045787 112.08090477 24.98974609 111.61669922 C24.26353373 111.58635653 23.53732136 111.55601383 22.78910255 111.52475166 C16.71962692 111.1849476 11.70370452 109.9459368 7 106 C0.92140031 98.74327996 -0.24209331 93.35490237 -0.58984375 84.1328125 C-0.63302231 82.98990753 -0.67620087 81.84700256 -0.72068787 80.66946411 C-1.20913812 65.52128826 -0.88531868 50.3784754 -0.60510254 35.22894287 C-0.53288478 31.23865329 -0.4690044 27.24822968 -0.40429688 23.2578125 C-0.27741415 15.50505972 -0.14173666 7.75249702 0 0 Z M32.625 20.5625 C30.37659481 23.93510779 30.43216055 26.02512383 31 30 C32.47993156 32.56338689 32.47993156 32.56338689 35 34 C37.95691709 34.75015195 37.95691709 34.75015195 41 34 C44.08333333 32.08333333 44.08333333 32.08333333 46 29 C46.06641554 25.14789873 45.87229157 23.00151995 43.3125 20.0625 C39.29121631 18.21488317 36.36125542 18.10443723 32.625 20.5625 Z M63 23 C62.35730245 26.99900698 62.36086105 29.04129157 64.625 32.4375 C67.75683492 34.49791771 69.31544773 34.6767545 73 34 C76.08333333 32.08333333 76.08333333 32.08333333 78 29 C78 25.43116591 77.68455497 23.11690548 75.8125 20.0625 C70.85265829 17.15500659 66.54255872 18.93647676 63 23 Z M95 23 C94.35730245 26.99900698 94.36086105 29.04129157 96.625 32.4375 C99.75683492 34.49791771 101.31544773 34.6767545 105 34 C108.08333333 32.08333333 108.08333333 32.08333333 110 29 C110.06700571 25.11366864 109.88788161 22.98301178 107.25 20.0625 C102.09302916 17.62726377 98.76346565 18.80642399 95 23 Z M31 52 C30.36265538 55.96569988 30.38000328 58.03280512 32.5625 61.4375 C35.96719488 63.61999672 38.03430012 63.63734462 42 63 C44.67838573 61.06873898 44.67838573 61.06873898 46 58 C46 54.15050705 45.86589381 51.95866815 43.25 49.0625 C38.09302916 46.62726377 34.76346565 47.80642399 31 52 Z M63 52 C62.36265538 55.96569988 62.38000328 58.03280512 64.5625 61.4375 C67.96719488 63.61999672 70.03430012 63.63734462 74 63 C76.67838573 61.06873898 76.67838573 61.06873898 78 58 C78 54.15050705 77.86589381 51.95866815 75.25 49.0625 C70.09302916 46.62726377 66.76346565 47.80642399 63 52 Z M95 53 C94.3232455 56.68455227 94.50208229 58.24316508 96.5625 61.375 C99.93510779 63.62340519 102.02512383 63.56783945 106 63 C108.56338689 61.52006844 108.56338689 61.52006844 110 59 C110.75015195 56.04308291 110.75015195 56.04308291 110 53 C107.70985284 49.9900923 106.20864386 48.30216097 102.5 47.375 C98.79135614 48.30216097 97.29014716 49.9900923 95 53 Z M127 52 C126.36265538 55.96569988 126.38000328 58.03280512 128.5625 61.4375 C131.96719488 63.61999672 134.03430012 63.63734462 138 63 C140.67838573 61.06873898 140.67838573 61.06873898 142 58 C142 54.15050705 141.86589381 51.95866815 139.25 49.0625 C134.09302916 46.62726377 130.76346565 47.80642399 127 52 Z M64 80 C62.55569145 82.88861709 62.62311494 84.79647701 63 88 C64.97966263 91.06307631 64.97966263 91.06307631 68 93 C71.66441916 93.07478406 73.39914885 92.42692056 76.375 90.3125 C78.51417751 87.26828585 78.60817046 85.64902278 78 82 C76.06359458 79.34640738 74.62141377 78.2390053 71.5625 77.0625 C68.20897857 76.98070679 66.65072129 78.01195903 64 80 Z M96 80 C94.59542263 82.80915474 94.75104843 84.88810534 95 88 C95.99034226 90.40383995 95.99034226 90.40383995 98 92 C101.50268174 93.14217883 103.33229915 93.23740475 106.8125 92 C109.28688723 90.07327571 109.28688723 90.07327571 110.0625 86.625 C110.28784035 82.97571481 110.28784035 82.97571481 108.375 80.125 C103.81159182 76.04195058 100.80173955 76.39869534 96 80 Z M128 80 C126.59542263 82.80915474 126.75104843 84.88810534 127 88 C127.99034226 90.40383995 127.99034226 90.40383995 130 92 C133.65878362 93.19308162 135.29997692 93.32667744 138.8125 91.6875 C141.58067959 89.55204717 141.90165453 88.6322209 142.4375 85.1875 C141.96289888 81.72969186 141.68293411 81.2930628 139.1875 79.125 C134.4054543 75.93696954 132.49362079 76.92541735 128 80 Z " fill="#1AA0F9" transform="translate(7,68)"/>
<path d="M0 0 C0.93134766 0.00902344 1.86269531 0.01804687 2.82226562 0.02734375 C5.1109436 0.05081737 7.39908672 0.08365271 9.6875 0.125 C9.71328125 1.35476562 9.7390625 2.58453125 9.765625 3.8515625 C9.82193006 5.48440932 9.87927685 7.11722045 9.9375 8.75 C9.95167969 9.55824219 9.96585938 10.36648437 9.98046875 11.19921875 C10.20012184 16.60268471 11.09804609 19.84038183 14.6875 24.125 C17.7649905 26.03803463 19.54559708 26.12753398 23.1875 26.0625 C27.34916007 24.94776962 28.96728168 23.40526327 31.6875 20.125 C34.68379401 14.13241199 33.31585547 6.81460157 33.6875 0.125 C50.5175 0.125 67.3475 0.125 84.6875 0.125 C85.1825 9.035 85.1825 9.035 85.6875 18.125 C88.83540216 23.7654719 88.83540216 23.7654719 93.6875 26.125 C99.51600812 26.03545992 99.51600812 26.03545992 104.39453125 23.0703125 C107.23807083 19.41779318 107.42933377 16.51717651 107.4375 12.0625 C107.63024971 3.92994501 107.63024971 3.92994501 108.6875 0.125 C130.91545027 -0.90195869 130.91545027 -0.90195869 139.28515625 6.546875 C149.01276907 17.09693905 145.6875 28.90650525 145.6875 43.125 C88.5975 43.125 31.5075 43.125 -27.3125 43.125 C-28.40681117 37.65344413 -28.37867887 32.85301076 -28.1875 27.3125 C-28.1771875 26.35279297 -28.166875 25.39308594 -28.15625 24.40429688 C-27.87928425 16.60131946 -25.6901921 11.83187395 -20.46875 6.1015625 C-19.9221875 5.65554687 -19.375625 5.20953125 -18.8125 4.75 C-18.2659375 4.28851562 -17.719375 3.82703125 -17.15625 3.3515625 C-11.59358086 -0.34902672 -6.47395094 -0.11895599 0 0 Z " fill="#19A0F9" transform="translate(34.3125,16.875)"/>
<path d="M0 0 C56.76 0 113.52 0 172 0 C172 0.33 172 0.66 172 1 C115.9 1.33 59.8 1.66 2 2 C2 33.02 2 64.04 2 96 C2.66 96 3.32 96 4 96 C4 96.99 4 97.98 4 99 C4.66 99 5.32 99 6 99 C6.33 99.99 6.66 100.98 7 102 C8.96466413 103.06775224 10.96855359 104.06553465 13 105 C13.99 105.66 14.98 106.32 16 107 C16 107.66 16 108.32 16 109 C62.53 109 109.06 109 157 109 C154.5397616 111.4602384 153.74673394 111.28738465 150.3531189 111.40939331 C149.39398905 111.44746157 148.4348592 111.48552982 147.44666481 111.52475166 C146.40642851 111.55509436 145.36619221 111.58543705 144.29443359 111.61669922 C143.21611456 111.65429792 142.13779552 111.69189663 141.02680016 111.73063469 C130.11447631 112.08347118 119.20609172 112.14572416 108.2890625 112.1328125 C106.21414173 112.13348954 104.13922104 112.13446285 102.06430054 112.13571167 C97.76372506 112.1371679 93.46317065 112.1351008 89.16259766 112.13037109 C83.70351817 112.12465328 78.24448766 112.12797911 72.78540993 112.13394356 C68.51784915 112.13758737 64.25029965 112.13639356 59.98273849 112.13381577 C57.97128671 112.13315815 55.95983384 112.13393312 53.94838333 112.13629532 C44.28807491 112.14516381 34.64045787 112.08090477 24.98974609 111.61669922 C24.26353373 111.58635653 23.53732136 111.55601383 22.78910255 111.52475166 C16.71962692 111.1849476 11.70370452 109.9459368 7 106 C-13.04974257 82.06432794 -0.28132171 19.41119814 0 0 Z " fill="#64B7EC" transform="translate(7,68)"/>
<path d="M0 0 C2.34590451 9.38361804 -0.22867135 19.35839185 -1 29 C55.1 28.67 111.2 28.34 169 28 C169 19.75 169 11.5 169 3 C174.19039218 10.78558826 171 21.64288743 171 31 C113.91 31 56.82 31 -2 31 C-3.11487367 25.42563163 -2.95565774 20.57615925 -2.6875 14.9375 C-2.65205078 13.94427734 -2.61660156 12.95105469 -2.58007812 11.92773438 C-2.53689453 10.97060547 -2.49371094 10.01347656 -2.44921875 9.02734375 C-2.41143311 8.15843506 -2.37364746 7.28952637 -2.3347168 6.39428711 C-1.98407883 3.88611311 -1.25771884 2.18149928 0 0 Z " fill="#77C1EB" transform="translate(9,29)"/>
<path d="M0 0 C3.625 0.1875 3.625 0.1875 6.625 2.1875 C8.18561467 6.46132178 7.80907838 11.07332989 7.8125 15.5625 C7.82474609 16.40039062 7.83699219 17.23828125 7.84960938 18.1015625 C7.86076604 22.83199052 7.61192488 26.79535026 5.625 31.1875 C2.81584526 32.59207737 0.73689466 32.43645157 -2.375 32.1875 C-4.54150391 30.99365234 -4.54150391 30.99365234 -6.375 29.1875 C-6.86083984 26.81494141 -6.86083984 26.81494141 -6.8359375 24.0390625 C-6.83207031 23.03359375 -6.82820313 22.028125 -6.82421875 20.9921875 C-6.79972656 19.94289063 -6.77523437 18.89359375 -6.75 17.8125 C-6.74871094 16.7709375 -6.74742188 15.729375 -6.74609375 14.65625 C-6.58162388 0.36564577 -6.58162388 0.36564577 0 0 Z " fill="#26A4F8" transform="translate(55.375,5.8125)"/>
<path d="M0 0 C56.76 0 113.52 0 172 0 C172.0825 15.18 172.165 30.36 172.25 46 C172.28641602 50.78242187 172.32283203 55.56484375 172.36035156 60.4921875 C172.37841797 66.359375 172.37841797 66.359375 172.3817749 69.11132812 C172.38789295 71.02184786 172.40191091 72.93235273 172.42230225 74.84277344 C172.45173553 77.74701519 172.45561903 80.65031816 172.45410156 83.5546875 C172.468494 84.39716034 172.48288643 85.23963318 172.497715 86.1076355 C172.45021197 92.93478764 170.52574917 98.12400045 166 103.27734375 C165.34 103.82519531 164.68 104.37304688 164 104.9375 C163.34 105.50339844 162.68 106.06929688 162 106.65234375 C159.96572276 108.02309697 158.39847889 108.57705395 156 109 C156 108.01 156 107.02 156 106 C156.639375 105.896875 157.27875 105.79375 157.9375 105.6875 C158.618125 105.460625 159.29875 105.23375 160 105 C160.33 104.01 160.66 103.02 161 102 C162.32 102 163.64 102 165 102 C166.50930183 98.6136749 166.50930183 98.6136749 167 95 C167.66 95 168.32 95 169 95 C168.99777939 93.95509903 168.99555878 92.91019806 168.99327087 91.83363342 C168.97295431 81.96190564 168.95798692 72.09018213 168.94818783 62.21843815 C168.9429806 57.14390755 168.93592233 52.0693939 168.92456055 46.99487305 C168.91365472 42.0930356 168.90770691 37.19121441 168.90512276 32.28936577 C168.90328234 30.42398256 168.89968856 28.5586002 168.89426994 26.69322395 C168.88695726 24.0702844 168.88601334 21.44741108 168.88647461 18.82446289 C168.88287933 18.0620076 168.87928406 17.29955231 168.87557983 16.51399231 C168.88560303 11.20896733 169.40608767 6.34521101 170 1 C113.9 1 57.8 1 0 1 C0 0.67 0 0.34 0 0 Z " fill="#3BA4EB" transform="translate(8,69)"/>
<path d="M0 0 C3.5 0.5 3.5 0.5 5.375 1.8125 C9.48571998 7.97857997 7.5690681 17.54631913 7.1875 24.5625 C7.12949219 25.64660156 7.07148438 26.73070313 7.01171875 27.84765625 C6.75841797 29.16056641 6.75841797 29.16056641 6.5 30.5 C2.78500878 32.97666082 0.89092112 33.04886514 -3.5 32.5 C-7.66523658 27.97966261 -6.94296561 22.26952477 -6.875 16.5 C-6.88660156 15.51515625 -6.89820312 14.5303125 -6.91015625 13.515625 C-6.85933576 0.97990511 -6.85933576 0.97990511 0 0 Z " fill="#199FF8" transform="translate(130.5,5.5)"/>
<path d="M0 0 C3.5 0.5 3.5 0.5 5.375 1.8125 C9.48571998 7.97857997 7.5690681 17.54631913 7.1875 24.5625 C7.12949219 25.64660156 7.07148438 26.73070313 7.01171875 27.84765625 C6.75841797 29.16056641 6.75841797 29.16056641 6.5 30.5 C2.78500878 32.97666082 0.89092112 33.04886514 -3.5 32.5 C-7.66523658 27.97966261 -6.94296561 22.26952477 -6.875 16.5 C-6.88660156 15.51515625 -6.89820312 14.5303125 -6.91015625 13.515625 C-6.85933576 0.97990511 -6.85933576 0.97990511 0 0 Z M-2.5 1.5 C-4.74434537 4.86651805 -4.70138902 5.71596988 -4.4765625 9.60546875 C-4.425 10.58837891 -4.3734375 11.57128906 -4.3203125 12.58398438 C-4.25585938 13.60814453 -4.19140625 14.63230469 -4.125 15.6875 C-4.06828125 16.72326172 -4.0115625 17.75902344 -3.953125 18.82617188 C-3.81163334 21.38481271 -3.66022134 23.94247484 -3.5 26.5 C-2.84 26.83 -2.18 27.16 -1.5 27.5 C-1.5 28.49 -1.5 29.48 -1.5 30.5 C0.48 30.5 2.46 30.5 4.5 30.5 C5.25363052 27.14908229 5.61979937 24.06890188 5.59765625 20.63671875 C5.59443359 19.75048828 5.59121094 18.86425781 5.58789062 17.95117188 C5.57951172 17.03916016 5.57113281 16.12714844 5.5625 15.1875 C5.55798828 14.25615234 5.55347656 13.32480469 5.54882812 12.36523438 C5.53709234 10.07675627 5.52067363 7.78841192 5.5 5.5 C4.84 5.5 4.18 5.5 3.5 5.5 C3.5 4.18 3.5 2.86 3.5 1.5 C0.58365871 1.2497843 0.58365871 1.2497843 -2.5 1.5 Z " fill="#55B2ED" transform="translate(130.5,5.5)"/>
<path d="M0 0 C16.83 0 33.66 0 51 0 C51 5.28 51 10.56 51 16 C50.67 16 50.34 16 50 16 C50 11.05 50 6.1 50 1 C33.83 1 17.66 1 1 1 C1 7.27 1 13.54 1 20 C0.67 20.66 0.34 21.32 0 22 C0.99 22.33 1.98 22.66 3 23 C3 23.99 3 24.98 3 26 C2.36191406 26.06058594 1.72382812 26.12117188 1.06640625 26.18359375 C-0.17302734 26.30927734 -0.17302734 26.30927734 -1.4375 26.4375 C-2.67306641 26.55931641 -2.67306641 26.55931641 -3.93359375 26.68359375 C-5.98662025 26.78930815 -5.98662025 26.78930815 -7 28 C-8.9570822 28.07302546 -10.91666988 28.08363306 -12.875 28.0625 C-13.94492187 28.05347656 -15.01484375 28.04445313 -16.1171875 28.03515625 C-17.06851563 28.02355469 -18.01984375 28.01195313 -19 28 C-19.99 28 -20.98 28 -22 28 C-22 26.02 -22 24.04 -22 22 C-21.50371094 22.30035156 -21.00742187 22.60070312 -20.49609375 22.91015625 C-16.87449058 24.93742937 -14.53441468 25.99094212 -10.3125 26.0625 C-6.36886711 24.79756115 -4.62222638 23.16209652 -2 20 C0.99629401 14.00741199 -0.37164453 6.68960157 0 0 Z " fill="#69B9EF" transform="translate(68,17)"/>
<path d="M0 0 C16.17 0 32.34 0 49 0 C49.495 7.425 49.495 7.425 50 15 C52.35285798 19.83289748 54.31372848 23.22295021 59 26 C58.01 26.33 57.02 26.66 56 27 C55.01 26.34 54.02 25.68 53 25 C53 24.34 53 23.68 53 23 C52.34 23 51.68 23 51 23 C51 22.34 51 21.68 51 21 C49.35 21.33 47.7 21.66 46 22 C46.33 20.35 46.66 18.7 47 17 C47.33 11.72 47.66 6.44 48 1 C32.49 1 16.98 1 1 1 C1 3.97 1 6.94 1 10 C0.67 10 0.34 10 0 10 C0 6.7 0 3.4 0 0 Z " fill="#2C9BE6" transform="translate(69,18)"/>
<path d="M0 0 C21.44503859 -0.9907872 21.44503859 -0.9907872 29 5 C32.07966682 7.82002278 34.50549211 10.71426497 35 15 C34.01 15 33.02 15 32 15 C32 14.01 32 13.02 32 12 C31.01 11.67 30.02 11.34 29 11 C29 9.68 29 8.36 29 7 C27.68 6.67 26.36 6.34 25 6 C25 5.34 25 4.68 25 4 C20.26120232 2.85149303 15.53708638 2.67098443 10.6875 2.4375 C9.85154297 2.39431641 9.01558594 2.35113281 8.15429688 2.30664062 C6.10303065 2.20114693 4.0515352 2.10012685 2 2 C2 6.62 2 11.24 2 16 C1.34 16.33 0.68 16.66 0 17 C0 11.39 0 5.78 0 0 Z " fill="#4FA9E6" transform="translate(143,17)"/>
<path d="M0 0 C3.875 0.4375 3.875 0.4375 6.875 1.4375 C6.875 2.4275 6.875 3.4175 6.875 4.4375 C7.535 4.4375 8.195 4.4375 8.875 4.4375 C10.3533226 7.39414519 9.93532783 10.17979737 9.875 13.4375 C8.885 13.9325 8.885 13.9325 7.875 14.4375 C7.545 15.4275 7.215 16.4175 6.875 17.4375 C3.17373141 19.90501239 1.25276468 19.74471156 -3.125 19.4375 C-5.72387253 18.59462242 -6.75677973 17.93459737 -8.375 15.75 C-9.46206669 12.39821103 -9.54854476 9.94687084 -9.125 6.4375 C-6.66695557 2.21273614 -4.92887923 0.07275098 0 0 Z M-5.5 4 C-7.74840519 7.37260779 -7.69283945 9.46262383 -7.125 13.4375 C-5.64506844 16.00088689 -5.64506844 16.00088689 -3.125 17.4375 C-0.16808291 18.18765195 -0.16808291 18.18765195 2.875 17.4375 C5.95833333 15.52083333 5.95833333 15.52083333 7.875 12.4375 C7.94141554 8.58539873 7.74729157 6.43901995 5.1875 3.5 C1.16621631 1.65238317 -1.76374458 1.54193723 -5.5 4 Z " fill="#5EB6EB" transform="translate(45.125,84.5625)"/>
<path d="M0 0 C0.89267578 0.00644531 1.78535156 0.01289063 2.70507812 0.01953125 C4.09823242 0.04466797 4.09823242 0.04466797 5.51953125 0.0703125 C6.45990234 0.07933594 7.40027344 0.08835937 8.36914062 0.09765625 C10.69036093 0.12122194 13.01106769 0.15412134 15.33203125 0.1953125 C15.39261719 1.44828125 15.45320313 2.70125 15.515625 3.9921875 C15.60005381 5.64323974 15.68470064 7.29428085 15.76953125 8.9453125 C15.80884766 9.7703125 15.84816406 10.5953125 15.88867188 11.4453125 C15.93056641 12.24453125 15.97246094 13.04375 16.015625 13.8671875 C16.05228271 14.6003418 16.08894043 15.33349609 16.12670898 16.08886719 C16.3331791 18.20708855 16.76335211 20.1472581 17.33203125 22.1953125 C16.67203125 22.1953125 16.01203125 22.1953125 15.33203125 22.1953125 C13.22154465 17.91617629 13.09176386 14.05216184 13.20703125 9.3828125 C13.24828125 7.0109375 13.28953125 4.6390625 13.33203125 2.1953125 C6.40203125 2.1953125 -0.52796875 2.1953125 -7.66796875 2.1953125 C-4.46390413 0.05926942 -3.67196128 -0.04677658 0 0 Z " fill="#65BAEE" transform="translate(28.66796875,16.8046875)"/>
<path d="M0 0 C2.70108504 0.090916 5.36930311 0.23740766 8.0625 0.4375 C9.20041992 0.51581055 9.20041992 0.51581055 10.36132812 0.59570312 C12.24121722 0.72575835 14.12065685 0.86228038 16 1 C16 2.32 16 3.64 16 5 C16.66 5 17.32 5 18 5 C18.08131463 6.43655854 18.13933559 7.8744483 18.1875 9.3125 C18.23970703 10.51326172 18.23970703 10.51326172 18.29296875 11.73828125 C17.93801608 14.47851584 17.10633718 15.29171079 15 17 C14.01 16.67 13.02 16.34 12 16 C12.495 15.62875 12.99 15.2575 13.5 14.875 C15.25026046 13.00931202 15.25026046 13.00931202 15.4375 10.0625 C15.21000806 6.95637022 15.21000806 6.95637022 13.4375 4.5625 C10.98253455 2.67105942 10.98253455 2.67105942 7.4375 3.0625 C4.20479689 3.9441463 2.9435369 4.3705089 1 7 C1 5.35 1 3.7 1 2 C0.34 1.67 -0.32 1.34 -1 1 C-0.67 0.67 -0.34 0.34 0 0 Z " fill="#42AAEF" transform="translate(101,114)"/>
<path d="M0 0 C0.33 0 0.66 0 1 0 C1.33 7.26 1.66 14.52 2 22 C3.32 22 4.64 22 6 22 C8 22 10 22 12 22 C12.33 21.01 12.66 20.02 13 19 C13.1875 21.375 13.1875 21.375 13 24 C9.51131349 26.32579101 8.10281481 26.41865457 4 26 C1.83300781 24.81323242 1.83300781 24.81323242 0 23 C-0.45410156 20.5480957 -0.45410156 20.5480957 -0.390625 17.67578125 C-0.37773438 16.64775391 -0.36484375 15.61972656 -0.3515625 14.56054688 C-0.31804688 13.48869141 -0.28453125 12.41683594 -0.25 11.3125 C-0.23195312 10.22904297 -0.21390625 9.14558594 -0.1953125 8.02929688 C-0.14813508 5.35197854 -0.08232249 2.67643091 0 0 Z " fill="#66BBF2" transform="translate(49,12)"/>
<path d="M0 0 C0.515625 0.495 1.03125 0.99 1.5625 1.5 C4.86721204 3.53366895 7.18453778 3.3468602 11 3 C11.99 2.34 12.98 1.68 14 1 C13.3125 2.875 13.3125 2.875 12 5 C9.5 6.125 9.5 6.125 7 7 C6.34 7.66 5.68 8.32 5 9 C2.375 9.125 2.375 9.125 0 9 C0.33 7.02 0.66 5.04 1 3 C-0.32 3 -1.64 3 -3 3 C-2.67 2.34 -2.34 1.68 -2 1 C-1.34 1.33 -0.68 1.66 0 2 C0 1.34 0 0.68 0 0 Z " fill="#47AEF2" transform="translate(38,127)"/>
<path d="M0 0 C3 2 3 2 4 5 C4.47422063 13.00596 3.70957157 21.02999074 3 29 C2.01 29 1.02 29 0 29 C0.15847412 28.27530518 0.31694824 27.55061035 0.48022461 26.80395508 C0.96098223 24.21048338 1.19757322 21.7680216 1.31640625 19.13671875 C1.35830078 18.25048828 1.40019531 17.36425781 1.44335938 16.45117188 C1.48267578 15.53916016 1.52199219 14.62714844 1.5625 13.6875 C1.62727539 12.29047852 1.62727539 12.29047852 1.69335938 10.86523438 C1.79897225 8.57695546 1.90107752 6.28857628 2 4 C1.34 4 0.68 4 0 4 C0 2.68 0 1.36 0 0 Z " fill="#61B1E0" transform="translate(134,7)"/>
<path d="M0 0 C2 3 2 3 1.5625 5.75 C-1.08526438 11.2573499 -4.78286022 15.07283245 -10.4375 17.4375 C-11.283125 17.623125 -12.12875 17.80875 -13 18 C-13 17.01 -13 16.02 -13 15 C-12.360625 14.896875 -11.72125 14.79375 -11.0625 14.6875 C-10.0415625 14.3471875 -10.0415625 14.3471875 -9 14 C-8.67 13.01 -8.34 12.02 -8 11 C-6.68 11 -5.36 11 -4 11 C-2.49069817 7.6136749 -2.49069817 7.6136749 -2 4 C-1.34 4 -0.68 4 0 4 C0 2.68 0 1.36 0 0 Z " fill="#51B0EC" transform="translate(177,160)"/>
<path d="M0 0 C0.99 0.33 1.98 0.66 3 1 C3 1.99 3 2.98 3 4 C3.66 4 4.32 4 5 4 C5.33 4.99 5.66 5.98 6 7 C7.96466413 8.06775224 9.96855359 9.06553465 12 10 C12.99 10.66 13.98 11.32 15 12 C15 12.99 15 13.98 15 15 C8.85794848 13.28593911 4.95458676 10.88892538 1.6875 5.375 C0 2 0 2 0 0 Z " fill="#51AEEB" transform="translate(8,163)"/>
<path d="M0 0 C0.99 0.33 1.98 0.66 3 1 C2.34 1.66 1.68 2.32 1 3 C0.5373125 7.61752491 0.5373125 7.61752491 2.0625 11.875 C4.92113133 13.53485045 7.74739303 13.69315029 11 14 C10.67 14.66 10.34 15.32 10 16 C2.54148472 16.36681223 2.54148472 16.36681223 0.0625 14.6875 C-2.54123078 10.55216288 -2.07707226 6.70140802 -2 2 C-1.34 2 -0.68 2 0 2 C0 1.34 0 0.68 0 0 Z " fill="#5BB3EC" transform="translate(70,117)"/>
<path d="M0 0 C1.258125 -0.020625 2.51625 -0.04125 3.8125 -0.0625 C4.52019531 -0.07410156 5.22789063 -0.08570312 5.95703125 -0.09765625 C8 0 8 0 11 1 C11 1.99 11 2.98 11 4 C11.66 4 12.32 4 13 4 C14.4783226 6.95664519 14.06032783 9.74229737 14 13 C13.01 13.33 12.02 13.66 11 14 C11.0825 12.9275 11.165 11.855 11.25 10.75 C11.30334419 7.06246954 11.30334419 7.06246954 9.5 4.625 C5.9849369 2.34020899 3.1654919 2.27769946 -1 2 C-0.67 1.34 -0.34 0.68 0 0 Z " fill="#5CB5EA" transform="translate(41,85)"/>
<path d="M0 0 C0 0.33 0 0.66 0 1 C-1.670625 1.433125 -1.670625 1.433125 -3.375 1.875 C-7.00291092 2.69241329 -7.00291092 2.69241329 -9 5 C-9.35173852 8.79877599 -9.52701444 11.14360153 -7.5 14.4375 C-7.005 14.953125 -6.51 15.46875 -6 16 C-6.66 16.33 -7.32 16.66 -8 17 C-8 16.34 -8 15.68 -8 15 C-9.32 14.67 -10.64 14.34 -12 14 C-11.98735883 9.92322371 -11.83650903 5.99786135 -11 2 C-7.26960398 -1.13692393 -4.59592403 -1.4869166 0 0 Z " fill="#6BBDF0" transform="translate(112,86)"/>
<path d="M0 0 C1.32 0.33 2.64 0.66 4 1 C4.22245393 2.60226955 4.42746669 4.20696767 4.625 5.8125 C4.74101563 6.70582031 4.85703125 7.59914063 4.9765625 8.51953125 C5 11 5 11 3 14 C3.66 14.33 4.32 14.66 5 15 C1.90521121 16.03159626 0.47368607 15.97482862 -2.6875 15.5625 C-3.49574219 15.46066406 -4.30398437 15.35882813 -5.13671875 15.25390625 C-5.75160156 15.17011719 -6.36648437 15.08632812 -7 15 C-7 14.67 -7 14.34 -7 14 C-5.329375 13.5978125 -5.329375 13.5978125 -3.625 13.1875 C0.21840951 12.34190981 0.21840951 12.34190981 2 9 C1.59404786 4.34184319 1.59404786 4.34184319 0 0 Z " fill="#53B3ED" transform="translate(82,88)"/>
<path d="M0 0 C1.32 0 2.64 0 4 0 C4 0.66 4 1.32 4 2 C4.66 2 5.32 2 6 2 C7.4783226 4.95664519 7.06032783 7.74229737 7 11 C6.34 11 5.68 11 5 11 C4.67 12.65 4.34 14.3 4 16 C1.36 16 -1.28 16 -4 16 C-3.4225 15.7525 -2.845 15.505 -2.25 15.25 C0.4764021 13.73533217 2.14944008 12.53595248 4 10 C3.93541482 6.31864501 3.78095253 3.96838114 1.4375 1.0625 C0.963125 0.711875 0.48875 0.36125 0 0 Z " fill="#5CB5EB" transform="translate(112,87)"/>
<path d="M0 0 C5.46003007 1.33171465 9.29700943 3.83779951 13 8 C14.4375 11.375 14.4375 11.375 15 14 C14.01 14 13.02 14 12 14 C12 13.01 12 12.02 12 11 C11.01 10.67 10.02 10.34 9 10 C9 8.68 9 7.36 9 6 C7.68 5.67 6.36 5.34 5 5 C5 4.34 5 3.68 5 3 C3.35 2.67 1.7 2.34 0 2 C0 1.34 0 0.68 0 0 Z " fill="#58B3ED" transform="translate(163,18)"/>
<path d="M0 0 C0.33 0 0.66 0 1 0 C1.2475 1.258125 1.495 2.51625 1.75 3.8125 C2.48837994 6.83557727 2.79382006 7.8059483 5.125 10 C5.74375 10.33 6.3625 10.66 7 11 C5.68 11.33 4.36 11.66 3 12 C2.67 11.01 2.34 10.02 2 9 C0.35 9.33 -1.3 9.66 -3 10 C-3.66 8.68 -4.32 7.36 -5 6 C-3.68 6 -2.36 6 -1 6 C-1.020625 5.195625 -1.04125 4.39125 -1.0625 3.5625 C-1 1 -1 1 0 0 Z " fill="#45AEF1" transform="translate(133,150)"/>
<path d="M0 0 C2.97 0.33 5.94 0.66 9 1 C10.46876252 5.40628756 11.41393552 8.50111425 10 13 C9.67 13.66 9.34 14.32 9 15 C8.34 14.67 7.68 14.34 7 14 C7.268125 12.948125 7.53625 11.89625 7.8125 10.8125 C8.42690836 6.8972085 8.42690836 6.8972085 5.75 4.1875 C3.01700877 1.95077221 3.01700877 1.95077221 0 0 Z " fill="#57B3EB" transform="translate(108,144)"/>
<path d="M0 0 C0.391875 0.556875 0.78375 1.11375 1.1875 1.6875 C3.27132534 4.34617371 5.58212142 6.6441183 8 9 C8.66 9.66 9.32 10.32 10 11 C9.01 11.33 8.02 11.66 7 12 C6.01 11.34 5.02 10.68 4 10 C4 9.34 4 8.68 4 8 C3.34 8 2.68 8 2 8 C2 7.34 2 6.68 2 6 C0.35 6.33 -1.3 6.66 -3 7 C-2.25 2.25 -2.25 2.25 0 0 Z " fill="#4CB0EE" transform="translate(118,33)"/>
<path d="M0 0 C0.103125 0.639375 0.20625 1.27875 0.3125 1.9375 C0.539375 2.618125 0.76625 3.29875 1 4 C1.99 4.33 2.98 4.66 4 5 C3.67 5.99 3.34 6.98 3 8 C4.65 7.67 6.3 7.34 8 7 C8 7.99 8 8.98 8 10 C5.69 10 3.38 10 1 10 C-0.80411967 7.24075815 -1.0127245 6.11027897 -0.625 2.75 C-0.41875 1.8425 -0.2125 0.935 0 0 Z " fill="#3BA8ED" transform="translate(126,28)"/>
<path d="M0 0 C2.31 0 4.62 0 7 0 C6.34 4.29 5.68 8.58 5 13 C4.01 12.67 3.02 12.34 2 12 C2.33 11.34 2.66 10.68 3 10 C3.14375422 6.62177584 3.07536348 4.22609045 2 1 C1.34 0.67 0.68 0.34 0 0 Z " fill="#45ABEA" transform="translate(81,146)"/>
<path d="M0 0 C1.32 0.33 2.64 0.66 4 1 C4.08131463 2.43655854 4.13933559 3.8744483 4.1875 5.3125 C4.22230469 6.11300781 4.25710937 6.91351563 4.29296875 7.73828125 C3.93801608 10.47851584 3.10633718 11.29171079 1 13 C0.01 12.67 -0.98 12.34 -2 12 C-1.505 11.62875 -1.01 11.2575 -0.5 10.875 C1.62732389 8.21584514 1.27676873 6.32122475 1 3 C0.67 2.01 0.34 1.02 0 0 Z " fill="#52B0ED" transform="translate(115,118)"/>
<path d="M0 0 C3.625 0.1875 3.625 0.1875 6.625 2.1875 C6.295 3.5075 5.965 4.8275 5.625 6.1875 C4.965 5.1975 4.305 4.2075 3.625 3.1875 C-1.39035052 3.51710216 -1.39035052 3.51710216 -5.375 6.1875 C-4.3073741 0.23929856 -4.3073741 0.23929856 0 0 Z " fill="#59B0E9" transform="translate(55.375,5.8125)"/>
<path d="M0 0 C0.99 0 1.98 0 3 0 C3.08131463 1.43655854 3.13933559 2.8744483 3.1875 4.3125 C3.22230469 5.11300781 3.25710937 5.91351563 3.29296875 6.73828125 C2.93801608 9.47851584 2.10633718 10.29171079 0 12 C-0.99 11.67 -1.98 11.34 -3 11 C-2.505 10.484375 -2.01 9.96875 -1.5 9.4375 C0.49649241 6.19319983 0.21564385 3.73782666 0 0 Z " fill="#54B1EC" transform="translate(148,119)"/>
<path d="M0 0 C3.63 0 7.26 0 11 0 C10.67 0.99 10.34 1.98 10 3 C8.39125 2.6596875 8.39125 2.6596875 6.75 2.3125 C3.1403481 1.7078748 3.1403481 1.7078748 0.625 3.0625 C-1.51431765 5.6132249 -1.7095662 7.73261975 -2 11 C-2.33 11 -2.66 11 -3 11 C-3 8.36 -3 5.72 -3 3 C-2.34 3 -1.68 3 -1 3 C-0.67 2.01 -0.34 1.02 0 0 Z " fill="#63BBEE" transform="translate(40,115)"/>
<path d="M0 0 C2.60704898 2.60704898 2.23905333 4.47338241 2.265625 8.02734375 C2 10 2 10 0 13 C-0.99 13 -1.98 13 -3 13 C-2.17812739 8.61667943 -1.09845718 4.32059823 0 0 Z " fill="#3DA7EF" transform="translate(149,150)"/>
<path d="M0 0 C0.33 0 0.66 0 1 0 C1.28875 1.093125 1.5775 2.18625 1.875 3.3125 C2.81893204 7.04013845 2.81893204 7.04013845 5 10 C2.23735711 10.59732819 -0.16032769 11 -3 11 C-3 10.01 -3 9.02 -3 8 C-2.01 8 -1.02 8 0 8 C0 5.36 0 2.72 0 0 Z " fill="#4DB2F5" transform="translate(69,92)"/>
<path d="M0 0 C-0.33 1.98 -0.66 3.96 -1 6 C-1.680625 5.34 -2.36125 4.68 -3.0625 4 C-6.64457375 1.56114128 -8.75519536 1.66707415 -13 2 C-13 1.34 -13 0.68 -13 0 C-11.20909747 -0.19466332 -9.41723495 -0.38051213 -7.625 -0.5625 C-6.12839844 -0.71912109 -6.12839844 -0.71912109 -4.6015625 -0.87890625 C-2 -1 -2 -1 0 0 Z " fill="#4FADEE" transform="translate(86,115)"/>
<path d="M0 0 C0.45572917 2.01822917 0.91145833 4.03645833 1.3671875 6.0546875 C1.90474428 8.20719964 1.90474428 8.20719964 4 10 C1.6875 9.875 1.6875 9.875 -1 9 C-4 4.13793103 -4 4.13793103 -4 1 C-2 0 -2 0 0 0 Z " fill="#53B1EE" transform="translate(102,121)"/>
<path d="M0 0 C0.99 1.0209375 0.99 1.0209375 2 2.0625 C6.17990592 4.76202257 8.22107226 3.9719853 13 3 C13 3.66 13 4.32 13 5 C12.01 5 11.02 5 10 5 C9.67 5.66 9.34 6.32 9 7 C2.25 6.25 2.25 6.25 0 4 C0 2.68 0 1.36 0 0 Z " fill="#56B0EA" transform="translate(70,156)"/>
<path d="M0 0 C0.66 0 1.32 0 2 0 C1.93489583 1.98567708 1.86979167 3.97135417 1.8046875 5.95703125 C1.86745538 8.31359719 1.86745538 8.31359719 4 11 C4.99 11.66 5.98 12.32 7 13 C5.68 13.33 4.36 13.66 3 14 C2.67 13.01 2.34 12.02 2 11 C1.34 11 0.68 11 0 11 C0 7.37 0 3.74 0 0 Z " fill="#66BCF1" transform="translate(101,148)"/>
<path d="M0 0 C0.91007813 0.00902344 1.82015625 0.01804687 2.7578125 0.02734375 C3.45648438 0.03894531 4.15515625 0.05054687 4.875 0.0625 C5.205 1.3825 5.535 2.7025 5.875 4.0625 C5.359375 3.711875 4.84375 3.36125 4.3125 3 C0.90584913 1.68974967 -1.59976024 2.3443956 -5.125 3.0625 C-6.115 3.5575 -6.115 3.5575 -7.125 4.0625 C-7.125 3.0725 -7.125 2.0825 -7.125 1.0625 C-4.60024538 -0.19987731 -2.81299534 -0.03606404 0 0 Z " fill="#61B6ED" transform="translate(142.125,114.9375)"/>
<path d="M0 0 C1.258125 -0.020625 2.51625 -0.04125 3.8125 -0.0625 C4.52019531 -0.07410156 5.22789063 -0.08570312 5.95703125 -0.09765625 C8 0 8 0 11 1 C11 1.66 11 2.32 11 3 C7.04 2.67 3.08 2.34 -1 2 C-0.67 1.34 -0.34 0.68 0 0 Z " fill="#46A9E9" transform="translate(41,85)"/>
<path d="M0 0 C3.96 1.98 3.96 1.98 8 4 C4 6 4 6 1 7 C0 6 0 6 -0.0625 2.9375 C-0.041875 1.968125 -0.02125 0.99875 0 0 Z " fill="#47ACF2" transform="translate(46,39)"/>
<path d="M0 0 C0.33 0.99 0.66 1.98 1 3 C1.66 3.33 2.32 3.66 3 4 C0.09907498 5.93395001 -0.89674737 6.30131941 -4.1875 6.625 C-5.445625 6.74875 -6.70375 6.8725 -8 7 C-7.13375 6.38125 -7.13375 6.38125 -6.25 5.75 C-3.97483401 3.98042645 -2.00004601 2.07147622 0 0 Z " fill="#52B2EF" transform="translate(141,37)"/>
<path d="M0 0 C0.66 0.33 1.32 0.66 2 1 C0.86500606 4.29148243 0.00716624 4.9959869 -3.125 6.75 C-4.548125 7.36875 -4.548125 7.36875 -6 8 C-4.55746343 4.63408134 -2.66735273 2.48952921 0 0 Z " fill="#5FB9ED" transform="translate(16,21)"/>
<path d="M0 0 C1.32 0.33 2.64 0.66 4 1 C4.1875 4.375 4.1875 4.375 4 8 C3.01 8.66 2.02 9.32 1 10 C1.020625 8.906875 1.04125 7.81375 1.0625 6.6875 C1.18544452 3.05615809 1.18544452 3.05615809 0 0 Z " fill="#58B3EE" transform="translate(51,118)"/>
<path d="M0 0 C0.33 0 0.66 0 1 0 C1.1875 2.375 1.1875 2.375 1 5 C-2.4352048 7.29013653 -3.985331 7.17842973 -8 7 C-8 6.67 -8 6.34 -8 6 C-6.35 6 -4.7 6 -3 6 C-3 5.01 -3 4.02 -3 3 C-2.01 3 -1.02 3 0 3 C0 2.01 0 1.02 0 0 Z " fill="#52ADE7" transform="translate(61,31)"/>
<path d="M0 0 C2.12038635 2.61514317 4.13091744 5.19637616 6 8 C5.01 8.495 5.01 8.495 4 9 C4 8.34 4 7.68 4 7 C2.68 6.67 1.36 6.34 0 6 C0 4.02 0 2.04 0 0 Z " fill="#52ADE8" transform="translate(100,94)"/>
<path d="M0 0 C2.05078125 0.03255208 4.1015625 0.06510417 6.15234375 0.09765625 C6.15234375 0.42765625 6.15234375 0.75765625 6.15234375 1.09765625 C5.05921875 1.38640625 3.96609375 1.67515625 2.83984375 1.97265625 C-0.8877947 2.91658829 -0.8877947 2.91658829 -3.84765625 5.09765625 C-2.72914438 0.14424653 -2.72914438 0.14424653 0 0 Z " fill="#70BEEC" transform="translate(73.84765625,85.90234375)"/>
</svg>
