<?xml version="1.0" encoding="UTF-8"?>
<svg version="1.1" xmlns="http://www.w3.org/2000/svg" width="32" height="32">
<path d="M0 0 C1.6875 0.75 1.6875 0.75 2.6875 1.75 C3.0546875 4.078125 3.0546875 4.078125 2.6875 6.75 C0.5703125 8.734375 0.5703125 8.734375 -2.1875 10.5 C-3.09242187 11.09296875 -3.99734375 11.6859375 -4.9296875 12.296875 C-8.62809571 14.55229771 -10.5971787 14.86296885 -14.9375 14.8125 C-15.94039062 14.80347656 -16.94328125 14.79445313 -17.9765625 14.78515625 C-18.74742188 14.77355469 -19.51828125 14.76195312 -20.3125 14.75 C-20.3125 15.41 -20.3125 16.07 -20.3125 16.75 C-22.6225 16.75 -24.9325 16.75 -27.3125 16.75 C-28.67788938 14.01922124 -28.44481826 11.79439633 -28.4375 8.75 C-28.44007812 7.6775 -28.44265625 6.605 -28.4453125 5.5 C-28.3125 2.75 -28.3125 2.75 -27.3125 0.75 C-25.0025 0.75 -22.6925 0.75 -20.3125 0.75 C-20.3125 1.41 -20.3125 2.07 -20.3125 2.75 C-13.34667274 3.05433226 -5.89722542 -0.63753788 0 0 Z M-1.3125 2.75 C-2.62852523 3.36754259 -3.94023556 3.99428742 -5.25 4.625 C-6.34634766 5.14707031 -6.34634766 5.14707031 -7.46484375 5.6796875 C-9.47582459 6.6184977 -9.47582459 6.6184977 -10.3125 8.75 C-12.96110427 9.34355614 -15.60447322 9.49209269 -18.3125 9.75 C-18.3125 9.09 -18.3125 8.43 -18.3125 7.75 C-16.6625 7.75 -15.0125 7.75 -13.3125 7.75 C-13.3125 6.76 -13.3125 5.77 -13.3125 4.75 C-15.6225 4.75 -17.9325 4.75 -20.3125 4.75 C-20.3125 7.39 -20.3125 10.03 -20.3125 12.75 C-14.20931716 13.25859857 -10.54935464 11.80665783 -5.3125 8.75 C-3.8275 7.88375 -3.8275 7.88375 -2.3125 7 C-1.3225 6.38125 -1.3225 6.38125 -0.3125 5.75 C-0.6425 4.76 -0.9725 3.77 -1.3125 2.75 Z " fill="#17A0FB" transform="translate(28.3125,14.25)"/>
<path d="M0 0 C0 0.99 0 1.98 0 3 C1.32 3.33 2.64 3.66 4 4 C4 5.65 4 7.3 4 9 C2.68 9.33 1.36 9.66 0 10 C0 10.99 0 11.98 0 13 C-3.57763189 13.32523926 -5.39542581 13.42956587 -8.375 11.3125 C-10 9 -10 9 -10.5 6.5 C-9.29974152 0.49870761 -5.61426094 -0.51038736 0 0 Z " fill="#189FFB" transform="translate(19,2)"/>
</svg>
