<svg width="25" height="34" viewBox="0 0 25 34" fill="none" xmlns="http://www.w3.org/2000/svg">
<path d="M4.16667 0C1.86849 0 0 1.90586 0 4.25V29.75C0 32.0941 1.86849 34 4.16667 34H20.8333C23.1315 34 25 32.0941 25 29.75V10.625H16.6667C15.5143 10.625 14.5833 9.67539 14.5833 8.5V0H4.16667ZM16.6667 0V8.5H25L16.6667 0ZM10.4167 15.9375C10.4167 15.3531 10.8854 14.875 11.4583 14.875H13.5417C14.1146 14.875 14.5833 15.3531 14.5833 15.9375V19.125H17.7083C18.2812 19.125 18.75 19.6031 18.75 20.1875V22.3125C18.75 22.8969 18.2812 23.375 17.7083 23.375H14.5833V26.5625C14.5833 27.1469 14.1146 27.625 13.5417 27.625H11.4583C10.8854 27.625 10.4167 27.1469 10.4167 26.5625V23.375H7.29167C6.71875 23.375 6.25 22.8969 6.25 22.3125V20.1875C6.25 19.6031 6.71875 19.125 7.29167 19.125H10.4167V15.9375Z" fill="#35455B"/>
</svg>
