<?xml version="1.0" encoding="UTF-8"?>
<svg version="1.1" xmlns="http://www.w3.org/2000/svg" width="177" height="212">
<path d="M0 0 C0.65421936 -0.00029205 1.30843872 -0.00058411 1.98248291 -0.00088501 C4.13063121 0.00050096 6.27842646 0.01602707 8.42651367 0.03173828 C9.92152212 0.03547103 11.41653302 0.03831676 12.9115448 0.04031372 C16.83575256 0.0479296 20.75981098 0.06756037 24.68395996 0.08972168 C28.69252502 0.11022429 32.70111435 0.11932486 36.7097168 0.12939453 C44.56720701 0.15080833 52.42457611 0.1849194 60.28198242 0.22705078 C60.28340744 0.8047673 60.28483246 1.38248383 60.28630066 1.97770691 C60.30600373 7.9966058 60.36028995 14.01449136 60.43457031 20.03295898 C60.45775187 22.27832771 60.47214638 24.5238052 60.47753906 26.76928711 C60.48682712 29.99938752 60.52781665 33.22777687 60.57495117 36.45751953 C60.57101852 37.45978073 60.56708588 38.46204193 60.56303406 39.49467468 C60.65718001 44.00279602 60.82164449 46.52621579 63.33862305 50.3581543 C66.97697982 52.66834185 69.89789905 52.94051052 74.08276367 52.89892578 C74.83679977 52.91167542 75.59083588 52.92442505 76.36772156 52.93756104 C78.7770223 52.97374469 81.18493523 52.97656728 83.59448242 52.97705078 C85.96422723 52.99898158 88.33377799 53.02797493 90.70341492 53.05938721 C92.17178397 53.07652368 93.64025146 53.08734986 95.10871887 53.08953857 C102.84942245 53.13143084 110.56172223 53.70706498 118.28198242 54.22705078 C118.39793842 67.64870793 118.48672992 81.0702455 118.54104328 94.49230194 C118.56711377 100.72502868 118.60246645 106.95741219 118.65917969 113.18994141 C118.71358858 119.20702987 118.74342213 125.22378861 118.75636864 131.24110413 C118.76559244 133.53440032 118.78360451 135.82767889 118.81063271 138.12083435 C118.84703967 141.33827417 118.85192271 144.55435931 118.84960938 147.77197266 C118.87657394 149.18754456 118.87657394 149.18754456 118.90408325 150.63171387 C118.84854546 157.79132908 116.79992456 162.59767128 111.80373096 167.7521286 C101.19480658 177.16315936 84.13658594 174.38993001 70.90698242 174.39501953 C68.93123349 174.39823913 66.95548478 174.40160372 64.97973633 174.40510559 C60.85456795 174.41106635 56.72942043 174.41294853 52.60424805 174.41235352 C47.34248397 174.41225179 42.08085449 174.42592882 36.81912231 174.44312572 C32.74397171 174.45428981 28.66885329 174.45627141 24.59368896 174.45574379 C22.65459731 174.4569163 20.71550462 174.46129669 18.77642822 174.46907616 C-9.16917498 174.57074892 -9.16917498 174.57074892 -17.33911133 166.65673828 C-24.38272986 159.12327577 -24.01589136 151.10519043 -24.00854492 141.23022461 C-24.01526215 139.93174591 -24.02197937 138.63326721 -24.02890015 137.29544067 C-24.04649922 133.7476229 -24.05125304 130.19990174 -24.05253172 126.65204453 C-24.05395777 124.42988675 -24.05823602 122.20775317 -24.06352615 119.98560143 C-24.08200895 112.2170291 -24.0901993 104.44852522 -24.08862305 96.67993164 C-24.08742334 89.4652582 -24.1084964 82.25088474 -24.14011037 75.03628713 C-24.1663636 68.82113371 -24.17698652 62.60607768 -24.17571223 56.39086932 C-24.17520508 52.68824016 -24.18074949 48.9858776 -24.20206833 45.28330421 C-24.22524341 41.14561495 -24.21587488 37.00858647 -24.20385742 32.87084961 C-24.21509644 31.66264053 -24.22633545 30.45443146 -24.23791504 29.20960999 C-24.18098638 21.45788113 -23.26726099 14.22734995 -19.71801758 7.22705078 C-17.23158378 4.9298252 -14.83488401 3.51558774 -11.71801758 2.22705078 C-10.98831253 1.88384796 -10.25860748 1.54064514 -9.50679016 1.18704224 C-6.18757056 0.04445267 -3.5095321 -0.01321858 0 0 Z M1.28198242 26.22705078 C1.45951855 29.24516501 2.11933457 30.06440293 4.28198242 32.22705078 C8.91054053 32.68937235 13.57053039 32.55102968 18.21948242 32.53955078 C20.17144531 32.5637207 20.17144531 32.5637207 22.1628418 32.58837891 C23.40743164 32.58902344 24.65202148 32.58966797 25.93432617 32.59033203 C27.65123657 32.59480347 27.65123657 32.59480347 29.40283203 32.59936523 C32.27578794 32.45807791 32.27578794 32.45807791 34.19042969 30.86450195 C35.54344182 29.19785099 35.54344182 29.19785099 35.09448242 26.66455078 C34.4357121 24.08263806 34.4357121 24.08263806 32.28198242 22.22705078 C27.84243892 21.73887329 23.37028259 21.85664265 18.90698242 21.85205078 C17.66174805 21.82755859 16.41651367 21.80306641 15.13354492 21.77783203 C13.93729492 21.77396484 12.74104492 21.77009766 11.50854492 21.76611328 C10.41106934 21.75789551 9.31359375 21.74967773 8.18286133 21.74121094 C4.63619444 22.3352075 3.43649753 23.39920869 1.28198242 26.22705078 Z M2.36962891 45.58349609 C1.00830575 47.26655176 1.00830575 47.26655176 1.53198242 49.85205078 C2.05943887 52.15829148 2.05943887 52.15829148 3.28198242 53.22705078 C7.53946669 53.44514834 11.80243966 53.41284239 16.06494141 53.41235352 C18.20715242 53.41453821 20.34884713 53.4326859 22.4909668 53.45166016 C23.84708482 53.45459437 25.2032053 53.45657898 26.55932617 53.45751953 C27.79932373 53.46162842 29.03932129 53.4657373 30.31689453 53.4699707 C33.40120312 53.53916883 33.40120312 53.53916883 35.28198242 51.22705078 C35.11755966 48.15713397 35.11755966 48.15713397 34.28198242 45.22705078 C29.70985003 42.94098459 23.36431489 43.99688222 18.34448242 43.97705078 C16.39251953 43.94611328 16.39251953 43.94611328 14.40112305 43.91455078 C13.1565332 43.90939453 11.91194336 43.90423828 10.62963867 43.89892578 C9.48503174 43.88958008 8.3404248 43.88023438 7.16113281 43.87060547 C4.28856473 43.99532199 4.28856473 43.99532199 2.36962891 45.58349609 Z M23.28198242 106.22705078 C19.77235633 111.9700753 18.02477601 118.01098436 16.21166992 124.46923828 C15.28198242 127.22705078 15.28198242 127.22705078 13.28198242 129.22705078 C10.73194781 129.80856205 8.18061593 130.17972629 5.59448242 130.56689453 C2.92647314 131.05851144 2.92647314 131.05851144 1.28198242 134.22705078 C1.64086277 137.18781369 2.12856263 138.07363099 4.28198242 140.22705078 C9.1017964 140.98482775 13.80640975 140.87055176 18.15698242 138.53955078 C24.75084596 133.66009176 26.95502623 127.91343267 29.28198242 120.22705078 C29.28198242 119.56705078 29.28198242 118.90705078 29.28198242 118.22705078 C29.94198242 118.22705078 30.60198242 118.22705078 31.28198242 118.22705078 C31.45213867 118.98888672 31.62229492 119.75072266 31.79760742 120.53564453 C33.9063185 131.12230902 33.9063185 131.12230902 39.28198242 140.22705078 C41.65420198 140.72840277 41.65420198 140.72840277 44.28198242 140.22705078 C46.51690954 137.9282686 48.00273942 136.00033911 49.09448242 132.97705078 C50.28198242 131.22705078 50.28198242 131.22705078 53.90698242 130.47705078 C55.57760742 130.35330078 55.57760742 130.35330078 57.28198242 130.22705078 C57.57073242 130.96955078 57.85948242 131.71205078 58.15698242 132.47705078 C59.77566247 137.16247562 59.77566247 137.16247562 63.28198242 140.22705078 C67.92268753 140.49899124 72.57171759 140.45868924 77.21948242 140.47705078 C78.52079102 140.49767578 79.82209961 140.51830078 81.1628418 140.53955078 C82.40743164 140.54470703 83.65202148 140.54986328 84.93432617 140.55517578 C86.65123657 140.56919434 86.65123657 140.56919434 88.40283203 140.58349609 C91.2756452 140.46016052 91.2756452 140.46016052 93.18652344 138.86669922 C94.53553434 137.19977318 94.53553434 137.19977318 94.15698242 134.66455078 C93.43809074 131.90088968 93.43809074 131.90088968 90.28198242 130.22705078 C87.92730059 129.95736218 87.92730059 129.95736218 85.31713867 130.02392578 C83.86984375 130.00652344 83.86984375 130.00652344 82.39331055 129.98876953 C80.36466466 129.98097205 78.33589802 129.98872571 76.30737305 130.01220703 C73.51520924 129.96377724 71.00166067 129.86709215 68.28198242 129.22705078 C65.73510742 126.29345703 65.73510742 126.29345703 64.28198242 123.22705078 C60.47024298 120.23947122 57.09186987 119.46754515 52.28198242 119.22705078 C49.22807188 119.71411785 46.263133 120.40909337 43.28198242 121.22705078 C42.84499023 119.78072266 42.84499023 119.78072266 42.39916992 118.30517578 C41.98621664 117.02877472 41.57209165 115.75275232 41.15698242 114.47705078 C40.56530273 112.59759766 40.56530273 112.59759766 39.96166992 110.68017578 C37.98455137 106.61558787 36.28496955 105.24382292 32.28198242 103.22705078 C27.84865803 103.22705078 26.67755996 103.51058875 23.28198242 106.22705078 Z " fill="#1BA0F9" transform="translate(37.718017578125,14.77294921875)"/>
<path d="M0 0 C4.29945482 1.5849969 6.64269822 3.34358956 9.8125 6.6875 C13.35305431 10.40132777 17.02938212 13.81154655 20.90551758 17.16381836 C24.33172174 20.16748796 27.62898317 23.3054751 30.9375 26.4375 C36.05984072 31.27546497 41.2113796 36.03312492 46.59375 40.58203125 C48 42 48 42 48 44 C41.3247966 44.02526945 34.64960543 44.04283268 27.97436523 44.05493164 C25.70157409 44.05997325 23.4287862 44.06680637 21.15600586 44.07543945 C17.89696449 44.08751261 14.63796583 44.09322987 11.37890625 44.09765625 C10.35599991 44.10281754 9.33309357 44.10797882 8.27919006 44.11329651 C7.33829025 44.11337204 6.39739044 44.11344757 5.42797852 44.11352539 C4.59524918 44.115746 3.76251984 44.11796661 2.90455627 44.12025452 C1 44 1 44 0 43 C-0.09268999 41.64905018 -0.11747326 40.29332909 -0.11352539 38.93920898 C-0.11344986 38.07839218 -0.11337433 37.21757538 -0.11329651 36.33067322 C-0.10813522 35.39526199 -0.10297394 34.45985077 -0.09765625 33.49609375 C-0.0962413 32.54307877 -0.09482635 31.59006378 -0.09336853 30.60816956 C-0.08775152 27.55124835 -0.07519616 24.49439923 -0.0625 21.4375 C-0.05748719 19.37044376 -0.05292391 17.30338638 -0.04882812 15.23632812 C-0.03777656 10.15752412 -0.02050055 5.0787743 0 0 Z " fill="#1EA1F8" transform="translate(108,15)"/>
<path d="M0 0 C0.65421936 -0.00029205 1.30843872 -0.00058411 1.98248291 -0.00088501 C4.13063121 0.00050096 6.27842646 0.01602707 8.42651367 0.03173828 C9.92152212 0.03547103 11.41653302 0.03831676 12.9115448 0.04031372 C16.83575256 0.0479296 20.75981098 0.06756037 24.68395996 0.08972168 C29.39799666 0.11383257 34.11208346 0.12297084 38.82616425 0.1346283 C45.97820733 0.15398611 53.12992307 0.19232268 60.28198242 0.22705078 C60.28198242 15.73705078 60.28198242 31.24705078 60.28198242 47.22705078 C59.62198242 47.22705078 58.96198242 47.22705078 58.28198242 47.22705078 C57.12787988 44.9188457 57.16095272 43.61920802 57.16845703 41.05273438 C57.16857033 39.76162247 57.16857033 39.76162247 57.16868591 38.44442749 C57.1738472 37.51417755 57.17900848 36.58392761 57.18432617 35.62548828 C57.18574112 34.67388824 57.18715607 33.72228821 57.18861389 32.74185181 C57.1942223 29.69521981 57.20677623 26.64866066 57.21948242 23.60205078 C57.22449634 21.53955184 57.22905943 19.47705175 57.2331543 17.41455078 C57.24419447 12.35202261 57.26146475 7.28954906 57.28198242 2.22705078 C49.23255573 2.31133742 41.1833528 2.40617447 33.13421822 2.51457787 C29.3968898 2.56457748 25.65959016 2.61090689 21.92211914 2.64892578 C18.31693918 2.68573273 14.71199783 2.73207955 11.10702133 2.78511429 C9.72991994 2.8036828 8.35276736 2.81878166 6.97558975 2.83039474 C5.05043842 2.84721452 3.1254176 2.87738561 1.20043945 2.90820312 C0.10345734 2.92152679 -0.99352478 2.93485046 -2.12374878 2.94857788 C-4.87923568 2.96986921 -4.87923568 2.96986921 -6.71801758 5.22705078 C-7.70801758 5.22705078 -8.69801758 5.22705078 -9.71801758 5.22705078 C-9.71801758 5.88705078 -9.71801758 6.54705078 -9.71801758 7.22705078 C-16.34301758 10.22705078 -16.34301758 10.22705078 -19.71801758 10.22705078 C-20.04801758 10.88705078 -20.37801758 11.54705078 -20.71801758 12.22705078 C-20.71801758 10.03955078 -20.71801758 10.03955078 -19.71801758 7.22705078 C-13.80585772 2.3647137 -7.62948688 -0.0287363 0 0 Z " fill="#4BABE7" transform="translate(37.718017578125,14.77294921875)"/>
<path d="M0 0 C0.82709473 0.81114258 1.65418945 1.62228516 2.50634766 2.45800781 C6.07513638 5.41606613 9.37300457 5.71717256 13.8984375 5.671875 C14.65105865 5.68462463 15.40367981 5.69737427 16.17910767 5.71051025 C18.57812201 5.74662292 20.97573946 5.74951599 23.375 5.75 C25.73802592 5.77193855 28.10085778 5.80092765 30.46377563 5.83233643 C31.92658021 5.84946108 33.38948331 5.8602974 34.85238647 5.86248779 C42.58440355 5.90452594 50.28838752 6.48079881 58 7 C58.09272418 20.43896157 58.16377763 33.87784689 58.20724869 47.31706333 C58.22811376 53.55760061 58.25641237 59.79791885 58.30175781 66.03833008 C58.34525305 72.06188545 58.36914523 78.08523028 58.37950897 84.10893059 C58.38689365 86.40582531 58.40131419 88.70270865 58.42292023 90.99951363 C58.45200223 94.21941052 58.45595388 97.43843994 58.45410156 100.65844727 C58.47567322 102.07941208 58.47567322 102.07941208 58.49768066 103.52908325 C58.46031032 109.54170481 57.43016416 113.03529849 54 118 C53.67 116.68 53.34 115.36 53 114 C53.66 114 54.32 114 55 114 C56.08600156 108.68622198 56.17131148 103.53732371 56.20532227 98.13916016 C56.21522186 97.16292694 56.22512146 96.18669373 56.23532104 95.18087769 C56.26680742 91.96696362 56.29164249 88.7530348 56.31640625 85.5390625 C56.33698689 83.30560938 56.35798365 81.07216006 56.37937927 78.8387146 C56.4344853 72.96977826 56.48394506 67.10080744 56.53222656 61.23181152 C56.58252545 55.23914534 56.63816769 49.24652902 56.69335938 43.25390625 C56.80080063 31.5026468 56.90227662 19.751344 57 8 C56.35742249 8.00222061 55.71484497 8.00444122 55.05279541 8.00672913 C48.36951249 8.0288394 41.68623994 8.04393067 35.00292969 8.05493164 C32.50813373 8.05996278 30.01334072 8.06678834 27.51855469 8.07543945 C23.93423738 8.08755827 20.34995904 8.0932405 16.765625 8.09765625 C15.64883362 8.10281754 14.53204224 8.10797882 13.38140869 8.11329651 C12.34063171 8.11337204 11.29985474 8.11344757 10.22753906 8.11352539 C8.85520111 8.11685631 8.85520111 8.11685631 7.45513916 8.12025452 C5.15858431 8.00776758 3.1991267 7.64780585 1 7 C0.67 4.69 0.34 2.38 0 0 Z " fill="#4CAAE8" transform="translate(98,62)"/>
<path d="M0 0 C0.515625 0.37125 1.03125 0.7425 1.5625 1.125 C-9.50642073 5.92591341 -23.06492555 4.27207557 -34.91796875 4.2578125 C-36.90090446 4.25848732 -38.88384009 4.25945883 -40.86677551 4.26071167 C-45.00453486 4.26217922 -49.14227249 4.26006386 -53.2800293 4.25537109 C-58.56895511 4.24966314 -63.85783029 4.25296556 -69.14675426 4.25894356 C-73.23464842 4.26256512 -77.32253066 4.26140344 -81.41042519 4.25881577 C-83.36036498 4.25815149 -85.31030587 4.25895735 -87.26024437 4.26129532 C-89.98757147 4.26384934 -92.71481757 4.25994315 -95.44213867 4.25439453 C-96.63542282 4.25743088 -96.63542282 4.25743088 -97.85281372 4.26052856 C-102.79699056 4.24199828 -107.54187904 3.82551367 -112.4375 3.125 C-112.4375 2.795 -112.4375 2.465 -112.4375 2.125 C-111.16265244 2.11691315 -109.88780487 2.10882629 -108.57432556 2.10049438 C-96.55332667 2.02297101 -84.53244009 1.93521589 -72.5115881 1.83747292 C-66.33172279 1.78755174 -60.15187424 1.74122114 -53.97192383 1.703125 C-48.00665743 1.66621969 -42.04153258 1.61984512 -36.07638741 1.56693649 C-33.80188037 1.54842049 -31.52734303 1.53330225 -29.25279045 1.52165604 C-26.06413185 1.50474601 -22.87579543 1.47569889 -19.68725586 1.44384766 C-18.28031715 1.44060738 -18.28031715 1.44060738 -16.84495544 1.43730164 C-11.81690416 1.37324616 -4.3479572 -1.56080515 0 0 Z " fill="#96CBEE" transform="translate(143.4375,184.875)"/>
<path d="M0 0 C3.72565836 1.39212145 5.81793284 2.49228776 8.3125 5.625 C8.82425781 6.25664062 9.33601563 6.88828125 9.86328125 7.5390625 C10.23839844 8.02117188 10.61351563 8.50328125 11 9 C8.03 8.505 8.03 8.505 5 8 C5 7.34 5 6.68 5 6 C4.34 6 3.68 6 3 6 C2.67 18.21 2.34 30.42 2 43 C24.77 42.505 24.77 42.505 48 42 C48 42.66 48 43.32 48 44 C41.3247966 44.02526945 34.64960543 44.04283268 27.97436523 44.05493164 C25.70157409 44.05997325 23.4287862 44.06680637 21.15600586 44.07543945 C17.89696449 44.08751261 14.63796583 44.09322987 11.37890625 44.09765625 C10.35599991 44.10281754 9.33309357 44.10797882 8.27919006 44.11329651 C7.33829025 44.11337204 6.39739044 44.11344757 5.42797852 44.11352539 C4.59524918 44.115746 3.76251984 44.11796661 2.90455627 44.12025452 C1 44 1 44 0 43 C-0.09268999 41.64905018 -0.11747326 40.29332909 -0.11352539 38.93920898 C-0.11344986 38.07839218 -0.11337433 37.21757538 -0.11329651 36.33067322 C-0.10813522 35.39526199 -0.10297394 34.45985077 -0.09765625 33.49609375 C-0.0962413 32.54307877 -0.09482635 31.59006378 -0.09336853 30.60816956 C-0.08775152 27.55124835 -0.07519616 24.49439923 -0.0625 21.4375 C-0.05748719 19.37044376 -0.05292391 17.30338638 -0.04882812 15.23632812 C-0.03777656 10.15752412 -0.02050055 5.0787743 0 0 Z " fill="#98D5F8" transform="translate(108,15)"/>
<path d="M0 0 C11.22 0 22.44 0 34 0 C35.26237731 2.52475462 35.09856404 4.31200466 35.0625 7.125 C35.05347656 8.03507812 35.04445312 8.94515625 35.03515625 9.8828125 C35.02355469 10.58148438 35.01195312 11.28015625 35 12 C31.46173745 13.17942085 28.65851274 13.11289189 24.92578125 13.09765625 C23.90003242 13.09553383 23.90003242 13.09553383 22.8535614 13.09336853 C20.67316278 13.08777876 18.49286749 13.07522822 16.3125 13.0625 C14.83268378 13.05748367 13.35286594 13.052921 11.87304688 13.04882812 C8.24866443 13.03781271 4.6243423 13.02055512 1 13 C1 12.34 1 11.68 1 11 C2.30203369 10.970271 2.30203369 10.970271 3.63037109 10.93994141 C6.84726267 10.86190128 10.06377045 10.77521119 13.28027344 10.68261719 C14.67308572 10.64430673 16.06599765 10.60945741 17.45898438 10.578125 C19.45986308 10.53252093 21.46042146 10.47348377 23.4609375 10.4140625 C24.66540527 10.3826416 25.86987305 10.3512207 27.11083984 10.31884766 C30.1260018 10.29084774 30.1260018 10.29084774 32 8 C31.71016731 4.69316534 31.71016731 4.69316534 30 2 C28.03589389 1.90011742 26.06820566 1.86919165 24.1015625 1.8671875 C22.90015625 1.86589844 21.69875 1.86460938 20.4609375 1.86328125 C18.56214844 1.86908203 18.56214844 1.86908203 16.625 1.875 C14.7378125 1.86919922 14.7378125 1.86919922 12.8125 1.86328125 C11.00652344 1.86521484 11.00652344 1.86521484 9.1640625 1.8671875 C8.05498535 1.86831543 6.9459082 1.86944336 5.80322266 1.87060547 C2.91721466 1.87640204 2.91721466 1.87640204 0 3 C0 2.01 0 1.02 0 0 Z " fill="#58AEE8" transform="translate(40,36)"/>
<path d="M0 0 C0.66 0 1.32 0 2 0 C2.20681396 0.59538574 2.41362793 1.19077148 2.62670898 1.80419922 C3.56224634 4.49495283 4.49984735 7.18498282 5.4375 9.875 C5.92573242 11.28072266 5.92573242 11.28072266 6.42382812 12.71484375 C6.73642578 13.61074219 7.04902344 14.50664062 7.37109375 15.4296875 C7.65911865 16.25710449 7.94714355 17.08452148 8.24389648 17.93701172 C8.96447911 20.02237968 8.96447911 20.02237968 10 22 C8.68 21.67 7.36 21.34 6 21 C6 20.01 6 19.02 6 18 C5.34 18 4.68 18 4 18 C2.94503714 14.34279543 1.92328593 10.69314372 1 7 C0.34 9.64 -0.32 12.28 -1 15 C-0.34 15 0.32 15 1 15 C0.67 16.32 0.34 17.64 0 19 C-0.66 19 -1.32 19 -2 19 C-2 18.34 -2 17.68 -2 17 C-3.32 17 -4.64 17 -6 17 C-6 17.99 -6 18.98 -6 20 C-7.98 20.33 -9.96 20.66 -12 21 C-11.2575 20.34 -10.515 19.68 -9.75 19 C-4.60568868 13.84115673 -2.40308356 6.72863397 0 0 Z " fill="#4FABEB" transform="translate(67,133)"/>
<path d="M0 0 C0.82709473 0.81114258 1.65418945 1.62228516 2.50634766 2.45800781 C6.07513638 5.41606613 9.37300457 5.71717256 13.8984375 5.671875 C14.65105865 5.68462463 15.40367981 5.69737427 16.17910767 5.71051025 C18.57812201 5.74662292 20.97573946 5.74951599 23.375 5.75 C25.72910751 5.77185575 28.08305315 5.80069543 30.43707275 5.83044434 C31.98891987 5.8496605 33.54080484 5.86603915 35.0927124 5.8795166 C42.74889688 5.96169534 50.36604715 6.43665699 58 7 C57.67 7.66 57.34 8.32 57 9 C49.66752489 8.88238115 42.33519808 8.75754993 35.00292969 8.62768555 C32.50816639 8.5843534 30.01337377 8.54267709 27.51855469 8.50268555 C23.93415484 8.44494164 20.3499024 8.38125865 16.765625 8.31640625 C15.64883362 8.29969376 14.53204224 8.28298126 13.38140869 8.26576233 C12.34063171 8.24581711 11.29985474 8.22587189 10.22753906 8.20532227 C9.31264709 8.18977798 8.39775513 8.1742337 7.45513916 8.15821838 C5.1744773 8.01124397 3.18869415 7.63722814 1 7 C0.67 4.69 0.34 2.38 0 0 Z " fill="#87C7E8" transform="translate(98,62)"/>
<path d="M0 0 C0.99 0 1.98 0 3 0 C3 2.97 3 5.94 3 9 C-2.43505813 10.81168604 -8.313143 10.18467353 -14 10.1875 C-15.94519531 10.20586914 -15.94519531 10.20586914 -17.9296875 10.22460938 C-19.16976562 10.22654297 -20.40984375 10.22847656 -21.6875 10.23046875 C-22.82574219 10.23457764 -23.96398438 10.23868652 -25.13671875 10.24291992 C-28 10 -28 10 -31 8 C-16.15 7.505 -16.15 7.505 -1 7 C0.06537205 2.52297636 0.06537205 2.52297636 0 0 Z " fill="#7BC7ED" transform="translate(72,60)"/>
<path d="M0 0 C0.44730469 0.38671875 0.89460938 0.7734375 1.35546875 1.171875 C1.96003906 1.69265625 2.56460938 2.2134375 3.1875 2.75 C3.82171875 3.2965625 4.4559375 3.843125 5.109375 4.40625 C6.68220486 5.73210658 8.30440766 6.99912076 9.9375 8.25 C10.618125 8.8275 11.29875 9.405 12 10 C12 10.66 12 11.32 12 12 C-2.85 12 -17.7 12 -33 12 C-33 11.67 -33 11.34 -33 11 C-19.47 11 -5.94 11 8 11 C5.1709277 8.1709277 4.61855575 7.62388892 1 7 C0.505 3.535 0.505 3.535 0 0 Z " fill="#3198E0" transform="translate(143,46)"/>
<path d="M0 0 C0.99 0.495 0.99 0.495 2 1 C2.33 1.99 2.66 2.98 3 4 C5.73678725 5.36839363 8.04264424 5.21634818 11.1015625 5.31640625 C12.31328125 5.35830078 13.525 5.40019531 14.7734375 5.44335938 C16.04445313 5.48267578 17.31546875 5.52199219 18.625 5.5625 C19.90375 5.60568359 21.1825 5.64886719 22.5 5.69335938 C25.66655348 5.79969886 28.83318753 5.90172833 32 6 C32 6.66 32 7.32 32 8 C27.41687916 8.11605098 22.83413551 8.18720362 18.25 8.25 C16.94804688 8.28351563 15.64609375 8.31703125 14.3046875 8.3515625 C13.05429688 8.36445313 11.80390625 8.37734375 10.515625 8.390625 C9.36352539 8.41157227 8.21142578 8.43251953 7.02441406 8.45410156 C4 8 4 8 1.59277344 6.22558594 C0 4 0 4 0 0 Z " fill="#65B7ED" transform="translate(96,149)"/>
<path d="M0 0 C6.0881848 -0.49699468 9.22817685 0.37341441 14 4 C14.33 5.98 14.66 7.96 15 10 C22.26 10.33 29.52 10.66 37 11 C37 11.33 37 11.66 37 12 C33.41728224 12.1743959 29.83565398 12.28087658 26.25 12.375 C24.72632813 12.45041016 24.72632813 12.45041016 23.171875 12.52734375 C20.32993812 12.58343461 17.78614997 12.5708154 15 12 C12.4453125 9.0859375 12.4453125 9.0859375 11 6 C7.5781914 3.47866735 4.05224101 2.22509612 0 1 C0 0.67 0 0.34 0 0 Z " fill="#63B3E7" transform="translate(91,133)"/>
<path d="M0 0 C0.33 0 0.66 0 1 0 C0.67 2.97 0.34 5.94 0 9 C0.66 9 1.32 9 2 9 C1.67 10.32 1.34 11.64 1 13 C0.34 13 -0.32 13 -1 13 C-1 12.34 -1 11.68 -1 11 C-2.32 11 -3.64 11 -5 11 C-5 11.99 -5 12.98 -5 14 C-6.98 14.33 -8.96 14.66 -11 15 C-10.278125 14.360625 -9.55625 13.72125 -8.8125 13.0625 C-5.79233726 10.07675507 -3.97155444 6.62917367 -2.015625 2.890625 C-1 1 -1 1 0 0 Z " fill="#3FAAF0" transform="translate(66,139)"/>
<path d="M0 0 C0 1.32 0 2.64 0 4 C-1.8253125 3.6596875 -1.8253125 3.6596875 -3.6875 3.3125 C-6.48708117 2.99649789 -7.99978566 2.99993667 -10.75 3.8125 C-14.23922883 7.20480581 -15.47189285 11.44982619 -17 16 C-17.33 16 -17.66 16 -18 16 C-18.31563182 10.73946963 -17.66590937 7.55426184 -15 3 C-14.01 3 -13.02 3 -12 3 C-12 2.34 -12 1.68 -12 1 C-7.9472484 0.01751476 -4.16138263 -0.08159574 0 0 Z " fill="#64B9F0" transform="translate(74,116)"/>
<path d="M0 0 C1.32 0.33 2.64 0.66 4 1 C4.12375 1.804375 4.2475 2.60875 4.375 3.4375 C4.684375 4.7059375 4.684375 4.7059375 5 6 C5.66 6.33 6.32 6.66 7 7 C7 8.98 7 10.96 7 13 C9.97 13.33 12.94 13.66 16 14 C12.71299843 15.64350079 10.52069985 16.41321669 7 17 C6.61908203 16.03900391 6.61908203 16.03900391 6.23046875 15.05859375 C4.22067834 10.00777217 2.16747571 4.98519412 0 0 Z " fill="#66BBEC" transform="translate(74,120)"/>
<path d="M0 0 C-0.99 0.33 -1.98 0.66 -3 1 C-3 1.66 -3 2.32 -3 3 C-9.625 6 -9.625 6 -13 6 C-13.33 6.66 -13.66 7.32 -14 8 C-13.79290782 4.27234075 -13.19733599 3.17854209 -10.375 0.625 C-6.34941573 -1.31324428 -4.27696185 -1.02647084 0 0 Z " fill="#27A1F0" transform="translate(31,19)"/>
<path d="M0 0 C0.99 0 1.98 0 3 0 C2.74337755 1.44010481 2.46909179 2.8770687 2.1875 4.3125 C2.03667969 5.11300781 1.88585938 5.91351563 1.73046875 6.73828125 C0.88785172 9.34723985 0.22785477 10.40867516 -2 12 C-4.48046875 12.51171875 -4.48046875 12.51171875 -7.1875 12.6875 C-8.08855469 12.75324219 -8.98960938 12.81898438 -9.91796875 12.88671875 C-10.94857422 12.94279297 -10.94857422 12.94279297 -12 13 C-11.67 12.01 -11.34 11.02 -11 10 C-8.36 10.33 -5.72 10.66 -3 11 C-2.67 10.01 -2.34 9.02 -2 8 C-1.67 7.67 -1.34 7.34 -1 7 C-0.63239269 4.67182036 -0.29758419 2.3381615 0 0 Z " fill="#6DBBEF" transform="translate(53,133)"/>
<path d="M0 0 C4.18423892 3.50897269 8.19588166 7.08060535 12 11 C8 11 8 11 6.5 9.5625 C6.005 9.046875 5.51 8.53125 5 8 C2.89667109 7.28552357 2.89667109 7.28552357 1 7 C0.67 4.69 0.34 2.38 0 0 Z " fill="#57B3EE" transform="translate(143,46)"/>
<path d="M0 0 C1.32 0 2.64 0 4 0 C5.26237731 2.52475462 5.09856404 4.31200466 5.0625 7.125 C5.05347656 8.03507812 5.04445313 8.94515625 5.03515625 9.8828125 C5.02355469 10.58148438 5.01195313 11.28015625 5 12 C4.34 11.34 3.68 10.68 3 10 C2.01 10 1.02 10 0 10 C0.66 9.34 1.32 8.68 2 8 C1.63723355 5.17042171 0.90305236 2.70915709 0 0 Z " fill="#57B7F0" transform="translate(70,36)"/>
<path d="M0 0 C-3.92857754 1.85131483 -6.98775112 2.22004943 -11.3125 2.125 C-12.38113281 2.10695312 -13.44976562 2.08890625 -14.55078125 2.0703125 C-15.35902344 2.04710937 -16.16726562 2.02390625 -17 2 C-17 1.67 -17 1.34 -17 1 C-14.92118505 0.44124338 -12.83669506 -0.09643187 -10.75 -0.625 C-9.58984375 -0.92664063 -8.4296875 -1.22828125 -7.234375 -1.5390625 C-3.88384275 -2.01655381 -2.73177617 -1.87978657 0 0 Z " fill="#4FB0EB" transform="translate(145,186)"/>
<path d="M0 0 C1.98 0.66 3.96 1.32 6 2 C6.33 3.65 6.66 5.3 7 7 C8.32 7.33 9.64 7.66 11 8 C9.234375 8.70703125 9.234375 8.70703125 7 9 C5.078125 7.63671875 5.078125 7.63671875 3.25 5.6875 C2.63640625 5.05199219 2.0228125 4.41648438 1.390625 3.76171875 C0 2 0 2 0 0 Z " fill="#5FB7ED" transform="translate(17,176)"/>
<path d="M0 0 C3.465 1.485 3.465 1.485 7 3 C6.01 5.31 5.02 7.62 4 10 C0.4 4.6 0.4 4.6 -1 2 C-0.67 1.34 -0.34 0.68 0 0 Z " fill="#42AEF3" transform="translate(35,56)"/>
<path d="M0 0 C0.33 1.32 0.66 2.64 1 4 C0.34 4 -0.32 4 -1 4 C-1 3.34 -1 2.68 -1 2 C-2.65 1.67 -4.3 1.34 -6 1 C-6 1.99 -6 2.98 -6 4 C-6.99 4.33 -7.98 4.66 -9 5 C-6.96456769 -0.67013285 -5.87860125 -1.3923003 0 0 Z " fill="#7AC3EE" transform="translate(95,145)"/>
<path d="M0 0 C1.485 0.99 1.485 0.99 3 2 C5.27912938 2.45394552 5.27912938 2.45394552 7.6875 2.625 C8.49574219 2.69976562 9.30398437 2.77453125 10.13671875 2.8515625 C10.75160156 2.90054688 11.36648437 2.94953125 12 3 C12 3.33 12 3.66 12 4 C8.04 4 4.08 4 0 4 C0 2.68 0 1.36 0 0 Z M-2 4 C-1.01 4.33 -0.02 4.66 1 5 C-0.32 5.33 -1.64 5.66 -3 6 C-2.67 5.34 -2.34 4.68 -2 4 Z " fill="#5FBAF4" transform="translate(39,152)"/>
<path d="M0 0 C0.33 1.32 0.66 2.64 1 4 C-0.32 4.99 -1.64 5.98 -3 7 C-3 6.34 -3 5.68 -3 5 C-5.64 5.66 -8.28 6.32 -11 7 C-9 4 -9 4 -6.8359375 3.48828125 C-6.02382813 3.43027344 -5.21171875 3.37226563 -4.375 3.3125 C-3.55773438 3.24675781 -2.74046875 3.18101562 -1.8984375 3.11328125 C-1.27195312 3.07589844 -0.64546875 3.03851563 0 3 C0 2.01 0 1.02 0 0 Z " fill="#31A4F2" transform="translate(61,150)"/>
<path d="M0 0 C2.17854707 3.2678206 3.49760034 6.38058265 5 10 C3.68 9.67 2.36 9.34 1 9 C1 8.01 1 7.02 1 6 C0.34 6 -0.32 6 -1 6 C-0.67 4.02 -0.34 2.04 0 0 Z " fill="#5DB9F2" transform="translate(72,145)"/>
<path d="M0 0 C2.04119788 1.61594832 4.04072937 3.2856382 6 5 C6 5.66 6 6.32 6 7 C6.66 7.33 7.32 7.66 8 8 C5.69 7.67 3.38 7.34 1 7 C0.67 4.69 0.34 2.38 0 0 Z " fill="#4AADEB" transform="translate(98,62)"/>
<path d="M0 0 C3.65316671 1.24976756 4.78065836 1.67098753 7 5 C4.36 4.67 1.72 4.34 -1 4 C-0.67 2.68 -0.34 1.36 0 0 Z " fill="#52B2F1" transform="translate(120,26)"/>
<path d="M0 0 C0 0.66 0 1.32 0 2 C-1.65848177 3.01351664 -3.32665961 4.01120795 -5 5 C-6.36984198 6.29579647 -7.7151049 7.61992749 -9 9 C-8.875 6.75 -8.875 6.75 -8 4 C-2.91891892 0 -2.91891892 0 0 0 Z " fill="#C4EAFC" transform="translate(26,18)"/>
<path d="M0 0 C1.32 0.66 2.64 1.32 4 2 C2.75023244 5.65316671 2.32901247 6.78065836 -1 9 C-0.67 6.03 -0.34 3.06 0 0 Z " fill="#48AEF3" transform="translate(37,145)"/>
<path d="M0 0 C5.75 1.625 5.75 1.625 8 5 C5.03 4.505 5.03 4.505 2 4 C2 3.34 2 2.68 2 2 C1.34 2 0.68 2 0 2 C0 1.34 0 0.68 0 0 Z " fill="#4AB0EE" transform="translate(111,19)"/>
<path d="M0 0 C0.5534764 2.07553648 1 3.84365964 1 6 C-1.60582371 6.93065133 -2.64198224 7.14917407 -5.25 6.0625 C-5.8275 5.711875 -6.405 5.36125 -7 5 C-6.21625 4.731875 -5.4325 4.46375 -4.625 4.1875 C-1.71885077 3.15185568 -1.71885077 3.15185568 0 0 Z " fill="#65BEF7" transform="translate(85,150)"/>
<path d="M0 0 C2.31 0.33 4.62 0.66 7 1 C5.68 1.33 4.36 1.66 3 2 C3 2.99 3 3.98 3 5 C1.68 4.67 0.36 4.34 -1 4 C-0.34 3.67 0.32 3.34 1 3 C0.67 2.01 0.34 1.02 0 0 Z " fill="#259DED" transform="translate(75,155)"/>
<path d="M0 0 C2.31 0 4.62 0 7 0 C7 1.32 7 2.64 7 4 C4.08482708 2.92598892 2.22189824 2.22189824 0 0 Z " fill="#48AEF3" transform="translate(67,116)"/>
<path d="M0 0 C0.33 0.66 0.66 1.32 1 2 C0.67 2.99 0.34 3.98 0 5 C-1.98 5.33 -3.96 5.66 -6 6 C-4 4 -2 2 0 0 Z " fill="#71C2F2" transform="translate(61,148)"/>
<path d="M0 0 C0.66 0 1.32 0 2 0 C2.33 1.65 2.66 3.3 3 5 C1.35 5.66 -0.3 6.32 -2 7 C-1.34 4.69 -0.68 2.38 0 0 Z " fill="#97CFEE" transform="translate(67,133)"/>
<path d="M0 0 C1.9375 0.6875 1.9375 0.6875 4 2 C4.75 4.625 4.75 4.625 5 7 C4.01 6.67 3.02 6.34 2 6 C0.8125 2.9375 0.8125 2.9375 0 0 Z " fill="#4CB0EF" transform="translate(101,135)"/>
<path d="M0 0 C1.875 0.3125 1.875 0.3125 4 1 C4.66 1.99 5.32 2.98 6 4 C4.35 3.67 2.7 3.34 1 3 C0.67 3.99 0.34 4.98 0 6 C0 4.02 0 2.04 0 0 Z " fill="#73C1EB" transform="translate(109,16)"/>
</svg>
