<?xml version="1.0" encoding="UTF-8"?>
<svg version="1.1" xmlns="http://www.w3.org/2000/svg" width="32" height="32">
<path d="M0 0 C3.98561154 2.62688033 6.23980531 5.28191592 7.75 9.8125 C8.1184431 15.43125724 7.94190228 18.96961379 4.75 23.8125 C0.20799054 28.01385875 -3.07715109 29.02215976 -9.265625 28.98828125 C-11.25 28.8125 -11.25 28.8125 -13.875 27.6875 C-17.19238045 26.4653072 -19.07762695 27.48452989 -22.25 28.8125 C-21.87875 27.74 -21.5075 26.6675 -21.125 25.5625 C-20.15189663 21.39205697 -20.36466493 21.26894763 -22.25 17.8125 C-22.70334816 12.19098283 -22.43933562 8.65149198 -19.25 3.8125 C-13.48694118 -1.51832941 -7.3462207 -2.68419603 0 0 Z M-0.25 11.8125 C-0.58 13.1325 -0.91 14.4525 -1.25 15.8125 C-0.26 15.8125 0.73 15.8125 1.75 15.8125 C2.08 14.8225 2.41 13.8325 2.75 12.8125 C1.76 12.4825 0.77 12.1525 -0.25 11.8125 Z M-15.25 11.8125 C-15.91 12.4725 -16.57 13.1325 -17.25 13.8125 C-16.92 14.4725 -16.59 15.1325 -16.25 15.8125 C-15.26 15.8125 -14.27 15.8125 -13.25 15.8125 C-13.58 14.4925 -13.91 13.1725 -14.25 11.8125 C-14.58 11.8125 -14.91 11.8125 -15.25 11.8125 Z M-9.25 12.8125 C-8.92 13.8025 -8.59 14.7925 -8.25 15.8125 C-7.59 15.8125 -6.93 15.8125 -6.25 15.8125 C-5.92 14.8225 -5.59 13.8325 -5.25 12.8125 C-6.57 12.8125 -7.89 12.8125 -9.25 12.8125 Z " fill="#17A0FB" transform="translate(23.25,2.1875)"/>
</svg>
