<svg width="32" height="27" viewBox="0 0 32 27" fill="none" xmlns="http://www.w3.org/2000/svg">
<path d="M2.74996 0C1.32374 0 0.166626 1.13379 0.166626 2.53125V13.5H7.91663C8.39024 13.5 8.77774 13.8797 8.77774 14.3438C8.77774 14.8078 8.39024 15.1875 7.91663 15.1875H0.166626V18.5625H7.91663C8.39024 18.5625 8.77774 18.9422 8.77774 19.4062C8.77774 19.8703 8.39024 20.25 7.91663 20.25H0.166626V24.4688C0.166626 25.8662 1.32374 27 2.74996 27H14.4772C14.1382 26.4621 13.9444 25.8293 13.9444 25.149C13.9444 22.6758 15.3329 20.5189 17.3888 19.3904V14.3332V2.53125C17.3888 1.13379 16.2317 0 14.8055 0H2.74996ZM8.34718 3.375H9.20829C9.6819 3.375 10.0694 3.75469 10.0694 4.21875V5.48438H11.3611C11.8347 5.48438 12.2222 5.86406 12.2222 6.32812V7.17188C12.2222 7.63594 11.8347 8.01562 11.3611 8.01562H10.0694V9.28125C10.0694 9.74531 9.6819 10.125 9.20829 10.125H8.34718C7.87357 10.125 7.48607 9.74531 7.48607 9.28125V8.01562H6.1944C5.72079 8.01562 5.33329 7.63594 5.33329 7.17188V6.32812C5.33329 5.86406 5.72079 5.48438 6.1944 5.48438H7.48607V4.21875C7.48607 3.75469 7.87357 3.375 8.34718 3.375ZM27.7222 14.3438C27.7222 13.2249 27.2686 12.1518 26.4611 11.3606C25.6537 10.5695 24.5585 10.125 23.4166 10.125C22.2747 10.125 21.1796 10.5695 20.3721 11.3606C19.5647 12.1518 19.1111 13.2249 19.1111 14.3438C19.1111 15.4626 19.5647 16.5357 20.3721 17.3269C21.1796 18.118 22.2747 18.5625 23.4166 18.5625C24.5585 18.5625 25.6537 18.118 26.4611 17.3269C27.2686 16.5357 27.7222 15.4626 27.7222 14.3438ZM15.6666 25.1596C15.6666 26.1773 16.5062 27 17.5449 27H29.2883C30.327 27 31.1666 26.1773 31.1666 25.1596C31.1666 22.449 28.9224 20.25 26.156 20.25H20.6772C17.9109 20.25 15.6666 22.449 15.6666 25.1596Z" fill="#94A3B8"/>
</svg>
