<?xml version="1.0" encoding="UTF-8"?>
<svg version="1.1" xmlns="http://www.w3.org/2000/svg" width="380" height="370">
<path d="M0 0 C1.56222337 1.38090254 3.1094826 2.77618105 4.64941406 4.18188477 C5.14892578 4.63611816 5.6484375 5.09035156 6.16308594 5.55834961 C30.57265415 28.07133563 46.30481006 57.99942422 53.64941406 90.18188477 C53.89498047 91.23617676 53.89498047 91.23617676 54.14550781 92.31176758 C63.1822307 132.99569147 54.03999852 177.72190216 31.93457031 212.71704102 C25.96876024 221.88600476 19.17600969 230.25660911 11.64941406 238.18188477 C11.20227051 238.65625977 10.75512695 239.13063477 10.29443359 239.61938477 C-13.34776204 264.5520401 -44.69708767 280.70291058 -78.35058594 287.18188477 C-79.46433594 287.4074707 -80.57808594 287.63305664 -81.72558594 287.86547852 C-124.09473833 294.97604229 -168.66558477 283.86390801 -203.60058594 259.30688477 C-210.3357045 254.43737132 -216.38434773 248.95330703 -222.35058594 243.18188477 C-223.28773438 242.29629883 -224.22488281 241.41071289 -225.19042969 240.49829102 C-253.38197621 213.25568855 -271.69268155 172.57899455 -272.55371094 133.28735352 C-272.6990725 118.71991698 -272.73960552 104.43786933 -269.35058594 90.18188477 C-269.06054688 88.95115234 -269.06054688 88.95115234 -268.76464844 87.69555664 C-258.45615437 45.47527385 -232.83329476 7.49099102 -195.38183594 -15.27905273 C-191.43966671 -17.59326197 -187.41616195 -19.73006982 -183.35058594 -21.81811523 C-182.67946777 -22.1685791 -182.00834961 -22.51904297 -181.31689453 -22.88012695 C-122.64749304 -53.21479485 -49.59361652 -42.77789833 0 0 Z " fill="#D6DBE1" transform="translate(300.3505859375,52.818115234375)"/>
<path d="M0 0 C13.40186068 0.6591079 24.9687042 7.42419174 34 17.125 C36.59857267 20.02132579 38.42449891 22.09738324 39 26 C39.66 26 40.32 26 41 26 C41.81690177 28.22763988 42.62861872 30.4569486 43.4375 32.6875 C43.78264648 33.62625977 43.78264648 33.62625977 44.13476562 34.58398438 C46.88031255 42.18397658 48.93348188 50.71301014 46.05859375 58.57421875 C43.17517682 64.04276809 40.09447347 67.80760058 34.19477654 70.08094215 C31.05874336 70.98310099 28.57022988 71.25605191 25.32107544 71.26742554 C24.2137204 71.27595551 23.10636536 71.28448547 21.9654541 71.29327393 C20.76529663 71.29236755 19.56513916 71.29146118 18.32861328 71.29052734 C17.05311615 71.29724457 15.77761902 71.30396179 14.46347046 71.31088257 C10.97577719 71.32849712 7.48818216 71.33323599 4.0004487 71.33451414 C1.81836211 71.33593877 -0.36369975 71.34021425 -2.54578018 71.34550858 C-10.16709216 71.36399316 -17.78833432 71.37218108 -25.40966797 71.37060547 C-32.50000187 71.36940419 -39.59003132 71.39050769 -46.6802882 71.4220928 C-52.77986127 71.44829087 -58.8793351 71.45897131 -64.97896397 71.45769465 C-68.61664813 71.45718609 -72.25406148 71.46281021 -75.8916893 71.48405075 C-79.95127759 71.50710979 -84.01018829 71.49789079 -88.06982422 71.48583984 C-89.26593323 71.49707886 -90.46204224 71.50831787 -91.69439697 71.51989746 C-99.53643862 71.46078963 -104.97816634 70.45157367 -111.09375 65.203125 C-116.28110248 57.99846877 -115.8532889 50.45609303 -115 42 C-113.71428443 34.76297979 -110.46075029 28.42906179 -107 22 C-106.34 22 -105.68 22 -105 22 C-104.731875 21.236875 -104.46375 20.47375 -104.1875 19.6875 C-103.04865495 17.11011382 -102.18583329 15.73045136 -100 14 C-99.34 14 -98.68 14 -98 14 C-98 13.34 -98 12.68 -98 12 C-90.57370845 6.08158491 -82.68847161 1 -73 1 C-72.51171875 2.98567708 -72.0234375 4.97135417 -71.53515625 6.95703125 C-71.08989295 8.65683202 -70.55566015 10.33301954 -70 12 C-61.59383285 11.96195163 -53.18820062 11.90260365 -44.78240585 11.81609726 C-40.87917149 11.77659653 -36.97616359 11.7444211 -33.07275391 11.72900391 C-29.3053159 11.71385392 -25.53850037 11.67943927 -21.77133942 11.63169098 C-20.33449974 11.6168598 -18.89757119 11.60895798 -17.46065521 11.60811615 C-15.44729753 11.60575036 -13.43402632 11.57640935 -11.42089844 11.54589844 C-10.27506287 11.53701599 -9.12922729 11.52813354 -7.94866943 11.51898193 C-4.34660709 10.88499928 -3.17017427 9.9016955 -1 7 C-0.19234122 3.35278304 -0.19234122 3.35278304 0 0 Z " fill="#B2BFCC" transform="translate(229,198)"/>
<path d="M0 0 C4.61303296 2.44537031 8.67317879 5.26976658 12.4609375 8.86328125 C12.4609375 9.52328125 12.4609375 10.18328125 12.4609375 10.86328125 C13.1209375 10.86328125 13.7809375 10.86328125 14.4609375 10.86328125 C21.81345772 20.06298635 26.30895646 30.87539846 25.84375 42.72265625 C24.60999085 52.84451702 21.23936028 61.50382963 15.4609375 69.86328125 C14.7803125 69.05890625 14.0996875 68.25453125 13.3984375 67.42578125 C9.00230601 63.60305821 3.31875468 64.39979669 -2.17578125 64.4921875 C-3.28566406 64.28464844 -4.39554688 64.07710938 -5.5390625 63.86328125 C-7.37109375 60.890625 -7.37109375 60.890625 -8.5390625 57.86328125 C-12.66595449 55.79983526 -17.94059707 56.54599741 -22.4765625 56.48828125 C-23.58708984 56.45089844 -24.69761719 56.41351563 -25.84179688 56.375 C-26.90591797 56.36339844 -27.97003906 56.35179687 -29.06640625 56.33984375 C-30.04343506 56.32002441 -31.02046387 56.30020508 -32.02709961 56.27978516 C-34.7696502 56.63053967 -34.7696502 56.63053967 -36.31860352 59.27099609 C-36.72135498 60.1264502 -37.12410645 60.9819043 -37.5390625 61.86328125 C-37.8690625 62.52328125 -38.1990625 63.18328125 -38.5390625 63.86328125 C-41.5234375 64.2421875 -41.5234375 64.2421875 -45.2890625 64.42578125 C-49.47614695 64.64039123 -53.44944561 64.91892315 -57.5390625 65.86328125 C-58.3451134 64.70650592 -59.1330271 63.53709168 -59.9140625 62.36328125 C-60.57535156 61.38875 -60.57535156 61.38875 -61.25 60.39453125 C-64.34248576 54.32201376 -64.9530682 47.94443525 -64.9765625 41.23828125 C-64.98042969 40.46500488 -64.98429688 39.69172852 -64.98828125 38.89501953 C-64.83639506 31.19787054 -62.68471473 24.851123 -59.5390625 17.86328125 C-58.8790625 17.86328125 -58.2190625 17.86328125 -57.5390625 17.86328125 C-57.2090625 16.21328125 -56.8790625 14.56328125 -56.5390625 12.86328125 C-55.8790625 12.86328125 -55.2190625 12.86328125 -54.5390625 12.86328125 C-54.2090625 11.87328125 -53.8790625 10.88328125 -53.5390625 9.86328125 C-52.8790625 9.86328125 -52.2190625 9.86328125 -51.5390625 9.86328125 C-51.5390625 9.20328125 -51.5390625 8.54328125 -51.5390625 7.86328125 C-45.30396728 2.37206941 -38.39268929 -0.7061454 -30.5390625 -3.13671875 C-20.86443668 -6.36159402 -9.11123782 -4.07903109 0 0 Z " fill="#B2C0CC" transform="translate(214.5390625,94.13671875)"/>
<path d="M0 0 C1.66482422 0.00483398 1.66482422 0.00483398 3.36328125 0.00976562 C4.46542969 -0.00634766 5.56757813 -0.02246094 6.703125 -0.0390625 C7.76402344 -0.03970703 8.82492188 -0.04035156 9.91796875 -0.04101562 C11.37565674 -0.04548706 11.37565674 -0.04548706 12.86279297 -0.05004883 C15.92336632 0.38396404 17.28229052 1.18570749 19.48828125 3.32226562 C20.23828125 6.00976563 20.23828125 6.00976563 20.48828125 8.32226562 C21.51308594 8.26425781 22.53789062 8.20625 23.59375 8.14648438 C24.95438136 8.09956605 26.31506221 8.05406811 27.67578125 8.00976562 C28.68608398 7.94692383 28.68608398 7.94692383 29.71679688 7.8828125 C33.32634844 7.79477466 35.23373581 8.13927433 38.18237305 10.2590332 C41.36161484 14.48242619 41.21183631 17.66600719 41.15234375 22.82226562 C41.15712738 23.73556641 41.16191101 24.64886719 41.1668396 25.58984375 C41.17023442 27.51629361 41.16106119 29.44280141 41.14013672 31.36914062 C41.11336406 34.31315911 41.13989747 37.25336533 41.171875 40.19726562 C41.16857083 42.07227402 41.16216443 43.94728004 41.15234375 45.82226562 C41.16752548 47.13807617 41.16752548 47.13807617 41.18301392 48.48046875 C41.16725311 49.30482422 41.15149231 50.12917969 41.13525391 50.97851562 C41.12928696 52.05842773 41.12928696 52.05842773 41.12319946 53.16015625 C40.11522025 56.59266339 38.25561061 58.1306575 35.48828125 60.32226562 C32.43954468 60.95718384 32.43954468 60.95718384 29.00146484 60.96923828 C27.7101767 60.98499908 26.41888855 61.00075989 25.08847046 61.01699829 C23.68787783 61.00805013 22.28729302 60.99779554 20.88671875 60.98632812 C19.4437316 60.98969825 18.00074723 60.99455252 16.55776978 61.00082397 C13.5398647 61.00818155 10.52270142 60.99752422 7.50488281 60.97412109 C3.63614327 60.94558079 -0.230866 60.96207468 -4.09954262 60.99198341 C-7.07647772 61.01004404 -10.05300177 61.00430537 -13.02994919 60.99134445 C-14.45650818 60.98800957 -15.88310452 60.99210054 -17.3096199 61.00374222 C-19.30096985 61.01643221 -21.2924508 60.99366159 -23.28369141 60.96923828 C-24.41666656 60.96526031 -25.54964172 60.96128235 -26.71694946 60.95718384 C-29.51171875 60.32226562 -29.51171875 60.32226562 -31.37373352 58.06004333 C-32.46775364 55.42803739 -32.90395683 53.69197149 -32.94750977 50.87084961 C-32.96664932 50.0232457 -32.98578888 49.17564178 -33.00550842 48.30235291 C-33.00884689 47.40013504 -33.01218536 46.49791718 -33.015625 45.56835938 C-33.0256102 44.63049088 -33.0355954 43.69262238 -33.04588318 42.72633362 C-33.06103653 40.74867148 -33.06810983 38.77093302 -33.06762695 36.79321289 C-33.07420561 33.76581388 -33.12876171 30.74166527 -33.18554688 27.71484375 C-33.19434633 25.79102683 -33.20030229 23.86719435 -33.203125 21.94335938 C-33.22468155 21.03911728 -33.2462381 20.13487518 -33.26844788 19.20323181 C-33.24180559 16.76570255 -33.15286464 14.67444391 -32.51171875 12.32226562 C-28.15374048 8.33315274 -24.94771659 7.85298269 -19.13671875 8.07226562 C-17.89148438 8.10835937 -16.64625 8.14445313 -15.36328125 8.18164062 C-14.42226562 8.22804687 -13.48125 8.27445313 -12.51171875 8.32226562 C-12.22296875 7.37351563 -11.93421875 6.42476562 -11.63671875 5.44726562 C-9.35675285 -0.88597298 -6.01293265 0.04028152 0 0 Z " fill="#F8F9FC" transform="translate(188.51171875,149.677734375)"/>
<path d="M0 0 C3.71265321 2.55760555 6.68890768 4.89464727 8.8125 8.9375 C9.67301096 13.82072478 9.49771971 18.18638297 7.6875 22.8125 C3.13337964 27.9738364 -0.51713625 30.65516433 -7.4375 31.1875 C-12.64721062 30.84018596 -17.01062646 30.13014798 -20.8046875 26.30859375 C-24.50825571 21.12987549 -25.15762652 16.16786806 -24.1875 9.9375 C-22.34730989 5.33702473 -19.07177517 2.85070638 -15.1875 -0.0625 C-10.0582896 -1.7722368 -5.12602784 -1.70867595 0 0 Z " fill="#F8F9FB" transform="translate(200.1875,169.0625)"/>
<path d="M0 0 C3.71265321 2.55760555 6.68890768 4.89464727 8.8125 8.9375 C9.67301096 13.82072478 9.49771971 18.18638297 7.6875 22.8125 C3.13337964 27.9738364 -0.51713625 30.65516433 -7.4375 31.1875 C-12.64721062 30.84018596 -17.01062646 30.13014798 -20.8046875 26.30859375 C-24.50825571 21.12987549 -25.15762652 16.16786806 -24.1875 9.9375 C-22.34730989 5.33702473 -19.07177517 2.85070638 -15.1875 -0.0625 C-10.0582896 -1.7722368 -5.12602784 -1.70867595 0 0 Z M-19.0625 9.3125 C-20.49218141 12.64842329 -20.82381318 14.33172531 -20.1875 17.9375 C-17.80744073 22.00904793 -15.75405517 25.41531494 -11.1875 26.9375 C-5.10714494 27.52214952 -2.01373371 26.43888524 2.8125 22.9375 C4.98808747 19.34305114 5.32030558 16.0845789 4.8125 11.9375 C2.52731238 7.62103449 0.35697291 4.8398375 -4.1875 2.9375 C-10.88810865 2.08469526 -14.89705256 4.03626657 -19.0625 9.3125 Z " fill="#D4D8DD" transform="translate(200.1875,169.0625)"/>
<path d="M0 0 C2.64645885 1.72327553 4.69566302 3.29850833 6.6875 5.75 C6.6875 6.74 6.6875 7.73 6.6875 8.75 C3.30751455 8.35235465 1.62600092 7.70588109 -1.1875 5.6875 C-4.99365904 3.32768139 -6.90401734 3.12021676 -11.3125 3.75 C-13.3485882 5.02754554 -15.35359119 6.35699818 -17.3125 7.75 C-18.6325 7.75 -19.9525 7.75 -21.3125 7.75 C-20.97716224 4.62018088 -20.31183599 3.74938841 -17.9375 1.5625 C-12.42688508 -2.2424484 -6.15622609 -2.32310418 0 0 Z " fill="#B7C1CB" transform="translate(200.3125,169.25)"/>
<path d="M0 0 C0.66 0.33 1.32 0.66 2 1 C-0.31 3.31 -2.62 5.62 -5 8 C-5.99 7.67 -6.98 7.34 -8 7 C-5.36 4.69 -2.72 2.38 0 0 Z " fill="#E3E6E9" transform="translate(90,48)"/>
</svg>
