<?xml version="1.0" encoding="UTF-8"?>
<svg version="1.1" xmlns="http://www.w3.org/2000/svg" width="235" height="221">
<path d="M0 0 C0.79146927 0.00303635 1.58293854 0.00607269 2.39839172 0.00920105 C4.98300949 0.0223538 7.56714466 0.05099431 10.15161133 0.08154297 C11.96283163 0.09758673 13.7740551 0.11327708 15.58528137 0.12863159 C19.36686941 0.163482 23.14825197 0.20680309 26.9296875 0.25537109 C31.7681896 0.3162334 36.60644846 0.34938067 41.4452467 0.37542915 C45.17982693 0.39969627 48.91404766 0.4419028 52.64840126 0.48916245 C54.43246943 0.50897465 56.21661947 0.52248513 58.00078392 0.5294838 C60.49464824 0.54130289 62.9869727 0.57811868 65.48046875 0.62109375 C66.21151825 0.61920547 66.94256775 0.6173172 67.69577026 0.6153717 C72.76001336 0.73956153 75.62087403 2.05387219 79.54614258 5.19873047 C85.58690337 11.57508909 85.84047906 18.07460446 85.80493164 26.42333984 C85.80843628 27.43870316 85.81194092 28.45406647 85.81555176 29.50019836 C85.82433523 32.84769582 85.81853177 36.19498096 85.81176758 39.54248047 C85.8131152 41.87365764 85.81505654 44.20483453 85.81756592 46.53601074 C85.8205126 51.41824015 85.81623412 56.3003963 85.80688477 61.18261719 C85.79549058 67.43710918 85.80205248 73.69142952 85.81402969 79.94591522 C85.82126054 84.75861909 85.81895471 89.57128233 85.81377411 94.38398743 C85.81244101 96.69004842 85.81407343 98.99611312 85.81873322 101.3021698 C85.82381847 104.52625279 85.81605985 107.7500587 85.80493164 110.97412109 C85.8089801 111.92495071 85.81302856 112.87578033 85.81719971 113.85542297 C85.78638864 118.67985846 85.53680489 122.70747591 83.54614258 127.19873047 C81.81176758 128.85107422 81.81176758 128.85107422 79.79614258 130.13623047 C70.90508351 136.39051976 66.06159284 144.50339215 63.94458008 155.25341797 C63.36981073 160.39960862 63.60420095 164.81697743 64.55566406 169.90356445 C64.7399144 170.89492905 64.92416473 171.88629364 65.11399841 172.90769958 C65.25660599 173.66373978 65.39921356 174.41977997 65.54614258 175.19873047 C55.79245594 175.26843767 46.03882919 175.32164658 36.28494358 175.35416698 C31.75513939 175.3697802 27.22550644 175.39093852 22.69580078 175.42504883 C18.31914031 175.457798 13.94264389 175.47561611 9.56587029 175.4833622 C7.90142169 175.48887791 6.23698142 175.49964839 4.57260323 175.51592064 C-15.12246785 175.70070502 -15.12246785 175.70070502 -22.39135742 169.82373047 C-26.26390136 164.89503819 -26.69862849 160.91749961 -26.64916992 154.71044922 C-26.64167725 152.78011841 -26.64167725 152.78011841 -26.6340332 150.81079102 C-26.6158252 149.18568604 -26.59761719 147.56058105 -26.57885742 145.88623047 C-26.53760742 140.70935547 -26.49635742 135.53248047 -26.45385742 130.19873047 C0.27614258 129.70373047 0.27614258 129.70373047 27.54614258 129.19873047 C27.54614258 127.21873047 27.54614258 125.23873047 27.54614258 123.19873047 C21.97781831 120.84178319 16.89836401 120.95619631 10.96801758 121.03857422 C9.96023254 121.04377579 8.95244751 121.04897736 7.91412354 121.05433655 C4.70798057 121.07209253 1.50216249 121.10327543 -1.70385742 121.13623047 C-4.92412694 121.16383415 -8.14435235 121.18852418 -11.36468506 121.20741272 C-13.36574358 121.21968724 -15.36677769 121.23730768 -17.36773682 121.26072693 C-18.71989288 121.2705233 -18.71989288 121.2705233 -20.09936523 121.28051758 C-21.29133514 121.29289711 -21.29133514 121.29289711 -22.50738525 121.30552673 C-24.45385742 121.19873047 -24.45385742 121.19873047 -26.45385742 120.19873047 C-26.45385742 112.93873047 -26.45385742 105.67873047 -26.45385742 98.19873047 C-24.16001099 98.16900146 -24.16001099 98.16900146 -21.81982422 98.13867188 C-16.15608004 98.06270524 -10.49259578 97.97397401 -4.82910156 97.88134766 C-2.37602869 97.84302093 0.07710109 97.80817464 2.53027344 97.77685547 C6.05269743 97.7312854 9.57472833 97.67327726 13.09692383 97.61279297 C14.19700272 97.60124176 15.2970816 97.58969055 16.43049622 97.57778931 C17.45132797 97.55791962 18.47215973 97.53804993 19.52392578 97.51757812 C20.42327347 97.50425446 21.32262115 97.49093079 22.2492218 97.47720337 C24.82184154 97.34031073 24.82184154 97.34031073 27.54614258 95.19873047 C27.1671005 91.9079705 27.1671005 91.9079705 25.54614258 89.19873047 C23.9203504 89.07591095 22.28937254 89.02090543 20.65917969 88.9934082 C19.61817612 88.97346298 18.57717255 88.95351776 17.50462341 88.93296814 C16.37234818 88.91625565 15.24007294 88.89954315 14.07348633 88.88232422 C12.34431725 88.85115257 12.34431725 88.85115257 10.58021545 88.8193512 C6.88142101 88.75373083 3.18255298 88.69491292 -0.51635742 88.63623047 C-3.01701621 88.59305712 -5.51766744 88.54944323 -8.01831055 88.50537109 C-14.16341404 88.39803679 -20.30859146 88.29629404 -26.45385742 88.19873047 C-26.52344107 78.52360557 -26.5767111 68.84856714 -26.60929394 59.17324638 C-26.62493396 54.68034893 -26.64614175 50.18762298 -26.68017578 45.69482422 C-26.71282871 41.35708053 -26.73072296 37.01950157 -26.73848915 32.68164444 C-26.74402202 31.0286716 -26.75482644 29.37570753 -26.77104759 27.72280502 C-26.79290113 25.40322301 -26.7958211 23.08431723 -26.79443359 20.76464844 C-26.80109543 19.44560516 -26.80775726 18.12656189 -26.81462097 16.76754761 C-26.27737526 11.45289841 -24.48371378 8.27762761 -20.82885742 4.44873047 C-14.9884638 -0.05551761 -7.09176901 -0.10033571 0 0 Z M22.77661133 24.36669922 C21.04954948 26.93810242 21.25048272 28.82170103 21.35864258 31.88623047 C21.38571289 32.88009766 21.4127832 33.87396484 21.44067383 34.89794922 C21.47547852 35.65720703 21.5102832 36.41646484 21.54614258 37.19873047 C20.78688477 37.16392578 20.02762695 37.12912109 19.24536133 37.09326172 C18.25149414 37.06619141 17.25762695 37.03912109 16.23364258 37.01123047 C15.24750977 36.97642578 14.26137695 36.94162109 13.24536133 36.90576172 C10.55612196 36.98611872 10.55612196 36.98611872 8.71411133 38.42919922 C7.24328872 40.65756925 7.14457543 42.04201521 7.17114258 44.69873047 C7.1634082 45.47216797 7.15567383 46.24560547 7.14770508 47.04248047 C7.40903308 49.24121092 7.40903308 49.24121092 8.71411133 50.96826172 C11.28551453 52.69532357 13.16911314 52.49439033 16.23364258 52.38623047 C17.72444336 52.345625 17.72444336 52.345625 19.24536133 52.30419922 C20.00461914 52.26939453 20.76387695 52.23458984 21.54614258 52.19873047 C21.51133789 53.35501953 21.51133789 53.35501953 21.47583008 54.53466797 C21.4577832 55.53755859 21.43973633 56.54044922 21.42114258 57.57373047 C21.39793945 58.57146484 21.37473633 59.56919922 21.35083008 60.59716797 C21.27397409 63.3613522 21.27397409 63.3613522 23.54614258 65.19873047 C26.14530341 65.51822778 26.14530341 65.51822778 29.04614258 65.44873047 C30.51567383 65.45646484 30.51567383 65.45646484 32.01489258 65.46435547 C34.7150241 65.44948092 34.7150241 65.44948092 36.54614258 63.19873047 C36.78929913 60.52923638 36.78929913 60.52923638 36.67114258 57.57373047 C36.6530957 56.57083984 36.63504883 55.56794922 36.61645508 54.53466797 C36.59325195 53.76380859 36.57004883 52.99294922 36.54614258 52.19873047 C37.6850293 52.2509375 37.6850293 52.2509375 38.84692383 52.30419922 C40.33772461 52.34480469 40.33772461 52.34480469 41.85864258 52.38623047 C42.84477539 52.42103516 43.8309082 52.45583984 44.84692383 52.49169922 C47.52991644 52.40622882 47.52991644 52.40622882 49.38208008 51.00341797 C50.9288319 48.6054336 50.91294473 46.97247353 50.85864258 44.13623047 C50.8528418 42.81945312 50.8528418 42.81945312 50.84692383 41.47607422 C50.75513592 39.00210278 50.75513592 39.00210278 48.54614258 37.19873047 C45.88371436 36.73582826 45.88371436 36.73582826 42.92114258 36.57373047 C41.91825195 36.49896484 40.91536133 36.42419922 39.88208008 36.34716797 C39.1112207 36.29818359 38.34036133 36.24919922 37.54614258 36.19873047 C37.50875977 35.51166016 37.47137695 34.82458984 37.43286133 34.11669922 C37.36711914 33.21564453 37.30137695 32.31458984 37.23364258 31.38623047 C37.17563477 30.49291016 37.11762695 29.59958984 37.05786133 28.67919922 C36.46719593 25.81605016 35.94033831 24.85045651 33.54614258 23.19873047 C31.37119177 22.72565591 31.37119177 22.72565591 29.04614258 22.82373047 C27.88598633 22.81212891 27.88598633 22.81212891 26.70239258 22.80029297 C24.50366213 23.06162097 24.50366213 23.06162097 22.77661133 24.36669922 Z " fill="#1CA1F9" transform="translate(44.453857421875,23.80126953125)"/>
<path d="M0 0 C3.0327935 0.02146592 6.06322515 0.00010886 9.09594727 -0.02539062 C22.36773568 -0.04468409 34.52329648 0.63719515 44.47290039 10.52148438 C49.95738204 17.43510712 53.58058204 24.55314165 53.47290039 33.52148438 C51.93584782 38.73038477 50.06949005 41.60657386 45.47290039 44.52148438 C41.76592585 45.80774485 38.07817001 45.66238881 34.18505859 45.68261719 C33.45765976 45.68758209 32.73026093 45.692547 31.9808197 45.69766235 C29.57843063 45.71224529 27.17610767 45.71908067 24.77368164 45.72460938 C23.09702046 45.73036546 21.42035929 45.73612313 19.74369812 45.74188232 C16.22740371 45.75238232 12.71113209 45.75823106 9.19482422 45.76171875 C4.70719682 45.76719134 0.21987467 45.79119702 -4.26765728 45.8196907 C-7.73282221 45.83839455 -11.19791487 45.84352686 -14.66312599 45.84505463 C-16.31640091 45.84806589 -17.96967502 45.85604239 -19.62290001 45.86923981 C-36.15404344 45.99175024 -36.15404344 45.99175024 -43.52709961 42.52148438 C-46.42875541 39.29645302 -47.39831212 36.49658968 -47.96459961 32.20898438 C-46.93787782 23.55518647 -44.41734759 16.99796557 -38.52709961 10.52148438 C-38.02436523 9.96460938 -37.52163086 9.40773437 -37.00366211 8.83398438 C-26.98977506 -0.93566153 -12.99160919 -0.10946507 0 0 Z " fill="#1EA2F9" transform="translate(164.527099609375,153.478515625)"/>
<path d="M0 0 C6.56259836 5.87309459 10.32814561 12.77256786 11.06640625 21.6015625 C10.85619034 29.19406658 7.73940692 36.20464185 2.43359375 41.58984375 C-3.72657742 47.22633147 -10.6064437 50.19489682 -19 50 C-27.78375156 48.80642954 -34.91858887 46.13568869 -40.52734375 39.078125 C-44.79074929 32.70155323 -47.08971812 25.72220002 -46 18 C-43.69064741 9.23694315 -40.66891147 3.0151189 -32.75 -1.75 C-21.426967 -7.56149045 -10.65542372 -7.13296959 0 0 Z " fill="#1FA1F8" transform="translate(185,95)"/>
<path d="M0 0 C16.83 0 33.66 0 51 0 C51 0.33 51 0.66 51 1 C34.83 1.33 18.66 1.66 2 2 C2 8.27 2 14.54 2 21 C3.52399414 20.98428955 5.04798828 20.9685791 6.61816406 20.95239258 C12.26866375 20.89812055 17.91914036 20.86365958 23.56982422 20.83520508 C26.01615268 20.8201123 28.46245407 20.79963598 30.90869141 20.77368164 C34.42357057 20.73732082 37.93809218 20.72027839 41.453125 20.70703125 C42.5480426 20.69154739 43.64296021 20.67606354 44.77105713 20.66011047 C45.79181335 20.65988388 46.81256958 20.65965729 47.86425781 20.65942383 C49.20994843 20.64943108 49.20994843 20.64943108 50.58282471 20.63923645 C53.53724901 21.08018444 54.90380053 21.88581316 57 24 C57.25 27.6875 57.25 27.6875 57 31 C56.01 31 55.02 31 54 31 C54 29.02 54 27.04 54 25 C48.43167573 22.64305272 43.35222143 22.75746584 37.421875 22.83984375 C36.41408997 22.84504532 35.40630493 22.85024689 34.36798096 22.85560608 C31.16183799 22.87336206 27.95601992 22.90454496 24.75 22.9375 C21.52973048 22.96510368 18.30950507 22.98979371 15.08917236 23.00868225 C13.08811384 23.02095677 11.08707973 23.03857721 9.08612061 23.06199646 C8.18468323 23.06852737 7.28324585 23.07505829 6.35449219 23.08178711 C5.16252228 23.09416664 5.16252228 23.09416664 3.94647217 23.10679626 C2 23 2 23 0 22 C0 14.74 0 7.48 0 0 Z " fill="#76C2F0" transform="translate(18,122)"/>
<path d="M0 0 C0.79789444 0.00624893 1.59578888 0.01249786 2.41786194 0.01893616 C5.02172631 0.04217627 7.62509557 0.08059808 10.22875977 0.12011719 C12.04955837 0.14124035 13.87036457 0.1617175 15.69117737 0.18157959 C19.48955366 0.22540664 23.28773314 0.27673287 27.0859375 0.33349609 C31.96062703 0.40577657 36.83531706 0.45959358 41.71029568 0.50795364 C45.46178151 0.54710058 49.21309888 0.59567794 52.96443367 0.64717865 C54.76299577 0.67076951 56.56159838 0.69145384 58.36022758 0.70920563 C60.86409583 0.73537264 63.36745236 0.77415496 65.87109375 0.81640625 C66.61652435 0.82170853 67.36195496 0.8270108 68.12997437 0.83247375 C73.25409582 0.93842199 73.25409582 0.93842199 75.48266602 3.16699219 C32.41766602 3.66199219 32.41766602 3.66199219 -11.51733398 4.16699219 C-11.84733398 4.82699219 -12.17733398 5.48699219 -12.51733398 6.16699219 C-13.09483398 5.91949219 -13.67233398 5.67199219 -14.26733398 5.41699219 C-15.00983398 5.33449219 -15.75233398 5.25199219 -16.51733398 5.16699219 C-17.89296253 6.45664395 -19.22499791 7.79388511 -20.51733398 9.16699219 C-22.76733398 9.91699219 -22.76733398 9.91699219 -24.51733398 10.16699219 C-23.00246754 6.31096851 -20.99754972 4.38840649 -17.51733398 2.16699219 C-11.71553064 0.34375827 -6.0411984 -0.1106954 0 0 Z " fill="#43A4E4" transform="translate(44.517333984375,23.8330078125)"/>
<path d="M0 0 C0.66 0 1.32 0 2 0 C1.80664062 0.54527344 1.61328125 1.09054688 1.4140625 1.65234375 C-2.65014995 13.42246395 -3.52427062 22.6648777 -1 35 C-10.78825396 35.04641502 -20.57648158 35.08191574 -30.36482334 35.10362434 C-34.91032878 35.11404529 -39.45575871 35.12817359 -44.0012207 35.15087891 C-48.39083024 35.17266759 -52.78036732 35.18458133 -57.17002678 35.18975449 C-58.84169594 35.19343944 -60.51336129 35.20063519 -62.18499947 35.21146011 C-64.53300561 35.22605523 -66.88071529 35.22797461 -69.22875977 35.22705078 C-69.91424896 35.23424133 -70.59973816 35.24143188 -71.30599976 35.24884033 C-75.92382519 35.22928102 -79.65613845 34.4206359 -84 33 C-80.19119911 31.75854973 -76.43228148 31.90571439 -72.47753906 31.97827148 C-71.72593002 31.98787903 -70.97432098 31.99748657 -70.19993591 32.00738525 C-67.72173475 32.0403011 -65.24371398 32.08066149 -62.765625 32.12109375 C-61.04498933 32.14540212 -59.32434703 32.16924532 -57.60369873 32.19264221 C-53.07941118 32.2554118 -48.5552413 32.32449859 -44.03106689 32.39489746 C-39.41269276 32.4656453 -34.79423534 32.53042365 -30.17578125 32.59570312 C-21.11709595 32.72462361 -12.05852374 32.86021739 -3 33 C-3.66 32.01 -4.32 31.02 -5 30 C-5.22467375 27.26598308 -5.33198296 24.6704285 -5.3125 21.9375 C-5.30976074 21.17614746 -5.30702148 20.41479492 -5.30419922 19.63037109 C-5.17056417 12.40025432 -4.06092301 6.09138451 0 0 Z " fill="#7FC7EC" transform="translate(111,164)"/>
<path d="M0 0 C0.96282898 -0.0066568 1.92565796 -0.0133136 2.91766357 -0.02017212 C4.94818219 -0.0302604 6.9787337 -0.03499033 9.00927734 -0.03466797 C12.08617987 -0.03902962 15.16163305 -0.07535874 18.23828125 -0.11328125 C37.36814163 -0.21938983 37.36814163 -0.21938983 45.859375 4.3359375 C42.57852652 5.42955366 42.02084485 5.18259419 38.859375 4.3359375 C37.12531635 4.23637308 35.38798896 4.18781485 33.65112305 4.17480469 C32.61291916 4.16519714 31.57471527 4.1555896 30.50505066 4.14569092 C29.38834488 4.14144104 28.2716391 4.13719116 27.12109375 4.1328125 C25.96696487 4.12711243 24.812836 4.12141235 23.62373352 4.11553955 C21.18186356 4.1060956 18.73998089 4.09955797 16.2980957 4.09570312 C12.57154999 4.08600174 8.84555683 4.05497345 5.11914062 4.0234375 C2.74479494 4.01690673 0.37044531 4.01165655 -2.00390625 4.0078125 C-3.11453934 3.9954657 -4.22517242 3.9831189 -5.36946106 3.97039795 C-11.38613769 3.98763315 -15.88826196 4.28141618 -21.140625 7.3359375 C-22.130625 8.8209375 -22.130625 8.8209375 -23.140625 10.3359375 C-26.765625 11.5234375 -26.765625 11.5234375 -30.140625 12.3359375 C-22.71197786 2.12154769 -12.07121413 0.02940434 0 0 Z " fill="#58B3EC" transform="translate(155.140625,153.6640625)"/>
<path d="M0 0 C0.33 0 0.66 0 1 0 C1 23.43 1 46.86 1 71 C16.66188368 70.63166602 16.66188368 70.63166602 32.32348633 70.25170898 C34.28465855 70.20774855 36.24583969 70.16418302 38.20703125 70.12109375 C39.2280896 70.09438599 40.24914795 70.06767822 41.30114746 70.04016113 C42.27531616 70.01973755 43.24948486 69.99931396 44.25317383 69.97827148 C45.09922684 69.95828598 45.94527985 69.93830048 46.81697083 69.91770935 C49 70 49 70 52 71 C52 71.66 52 72.32 52 73 C52.66 73 53.32 73 54 73 C54 73.99 54 74.98 54 76 C54.66 76 55.32 76 56 76 C56 77.65 56 79.3 56 81 C55.34 81 54.68 81 54 81 C53.71125 80.21625 53.4225 79.4325 53.125 78.625 C52.15087746 75.90328368 52.15087746 75.90328368 50 74 C47.77803673 73.66930575 47.77803673 73.66930575 45.18310547 73.68115234 C44.16821045 73.66109131 43.15331543 73.64103027 42.10766602 73.62036133 C40.50362915 73.60332153 40.50362915 73.60332153 38.8671875 73.5859375 C37.39584351 73.55947144 37.39584351 73.55947144 35.89477539 73.5324707 C32.22168537 73.46928324 28.54831753 73.4231799 24.875 73.375 C16.66625 73.25125 8.4575 73.1275 0 73 C0 48.91 0 24.82 0 0 Z " fill="#2A9BE2" transform="translate(19,38)"/>
<path d="M0 0 C1.77007714 -0.08114106 3.54122098 -0.13925505 5.3125 -0.1875 C6.29863281 -0.22230469 7.28476563 -0.25710937 8.30078125 -0.29296875 C11 0 11 0 12.84375 1.125 C14.52442783 3.85042351 14.28970839 6.01903988 14.1875 9.1875 C14.14689453 10.81751953 14.14689453 10.81751953 14.10546875 12.48046875 C14.07066406 13.31191406 14.03585938 14.14335938 14 15 C13.67 15 13.34 15 13 15 C12.67 11.04 12.34 7.08 12 3 C10.22625 2.95875 8.4525 2.9175 6.625 2.875 C5.62726563 2.85179687 4.62953125 2.82859375 3.6015625 2.8046875 C0.83737827 2.72783152 0.83737827 2.72783152 -1 5 C-1.46290221 7.66242821 -1.46290221 7.66242821 -1.625 10.625 C-1.74875 12.39875 -1.8725 14.1725 -2 16 C-8.435 16.495 -8.435 16.495 -15 17 C-15.04125 18.77375 -15.0825 20.5475 -15.125 22.375 C-15.14820313 23.37273437 -15.17140625 24.37046875 -15.1953125 25.3984375 C-15.27216848 28.16262173 -15.27216848 28.16262173 -13 30 C-10.33757179 30.46290221 -10.33757179 30.46290221 -7.375 30.625 C-6.37210938 30.69976562 -5.36921875 30.77453125 -4.3359375 30.8515625 C-3.56507812 30.90054688 -2.79421875 30.94953125 -2 31 C-1.93941406 31.78246094 -1.87882812 32.56492188 -1.81640625 33.37109375 C-1.69072266 34.88896484 -1.69072266 34.88896484 -1.5625 36.4375 C-1.48128906 37.44683594 -1.40007812 38.45617187 -1.31640625 39.49609375 C-1.26788532 41.93640779 -1.26788532 41.93640779 0 43 C2.01964199 43.07244053 4.04167124 43.08377188 6.0625 43.0625 C7.16722656 43.05347656 8.27195312 43.04445312 9.41015625 43.03515625 C10.69212891 43.01775391 10.69212891 43.01775391 12 43 C12 43.66 12 44.32 12 45 C7.38 45.33 2.76 45.66 -2 46 C-4.28062828 42.57905758 -4.21925007 41.31812778 -4.125 37.3125 C-4.10695313 36.31863281 -4.08890625 35.32476562 -4.0703125 34.30078125 C-4.04710937 33.54152344 -4.02390625 32.78226563 -4 32 C-5.485 32.495 -5.485 32.495 -7 33 C-9.33299825 33.03954234 -11.66708189 33.04401732 -14 33 C-14.495 31.515 -14.495 31.515 -15 30 C-15.99 29.67 -16.98 29.34 -18 29 C-18.05389087 27.04196493 -18.09274217 25.08351091 -18.125 23.125 C-18.14820313 22.03445312 -18.17140625 20.94390625 -18.1953125 19.8203125 C-18 17 -18 17 -16 15 C-12.9609375 14.8046875 -12.9609375 14.8046875 -9.375 14.875 C-7.59222656 14.90207031 -7.59222656 14.90207031 -5.7734375 14.9296875 C-4.85820313 14.95289063 -3.94296875 14.97609375 -3 15 C-3 11.04 -3 7.08 -3 3 C-2.34 3 -1.68 3 -1 3 C-0.67 2.01 -0.34 1.02 0 0 Z " fill="#5CB6EF" transform="translate(68,45)"/>
<path d="M0 0 C0.33 0 0.66 0 1 0 C1.18700742 15.15100067 1.32801614 30.30194806 1.41449738 45.45384407 C1.45572276 52.48947895 1.51190947 59.52439615 1.60351562 66.55957031 C1.69187005 73.34826329 1.7382669 80.13621003 1.75901794 86.92544174 C1.77380673 89.51631282 1.80268635 92.10714281 1.84584045 94.69769669 C1.90387416 98.32556762 1.91191452 101.95035331 1.90820312 105.57861328 C1.93696533 106.65107803 1.96572754 107.72354279 1.99536133 108.82850647 C1.91609754 115.98347889 1.91609754 115.98347889 -0.76844788 118.96230698 C-2.78236678 120.47378593 -4.8259554 121.73605634 -7 123 C-9.0475455 124.99643157 -9.0475455 124.99643157 -10.5 126.875 C-11.22703125 127.76832031 -11.22703125 127.76832031 -11.96875 128.6796875 C-12.3090625 129.11539063 -12.649375 129.55109375 -13 130 C-14.25541557 126.23375329 -13.37061958 124.62811066 -12 121 C-10.68 121 -9.36 121 -8 121 C-7.67 119.68 -7.34 118.36 -7 117 C-5.35 117 -3.7 117 -2 117 C-2 116.01 -2 115.02 -2 114 C-1.34 114 -0.68 114 0 114 C0 76.38 0 38.76 0 0 Z " fill="#2A9CE7" transform="translate(127,34)"/>
<path d="M0 0 C-2 2 -2 2 -4.17666626 2.20254517 C-5.07823456 2.18033905 -5.97980286 2.15813293 -6.90869141 2.13525391 C-7.92959869 2.11508209 -8.95050598 2.09491028 -10.00234985 2.0741272 C-11.66021011 2.02583267 -11.66021011 2.02583267 -13.3515625 1.9765625 C-14.4807309 1.95153656 -15.60989929 1.92651062 -16.77328491 1.90072632 C-20.39082078 1.81835115 -24.00782489 1.7218287 -27.625 1.625 C-30.07289473 1.5667784 -32.52081147 1.50947476 -34.96875 1.453125 C-40.97958724 1.31447611 -46.98949774 1.15672205 -53 1 C-52.67 11.56 -52.34 22.12 -52 33 C-51.34 33 -50.68 33 -50 33 C-48.35 35.97 -46.7 38.94 -45 42 C-48.75165631 41.1662986 -49.92159077 40.11136384 -52.15625 36.9375 C-55.3035241 30.3094658 -54.41666018 22.66324342 -54.25 15.5 C-54.22990494 13.99481542 -54.21165948 12.48960495 -54.1953125 10.984375 C-54.15155298 7.32237263 -54.08269216 3.66135422 -54 0 C-46.63116948 -0.1679713 -39.26219645 -0.32790864 -31.89306641 -0.48217773 C-29.3845624 -0.53565045 -26.87609735 -0.59098374 -24.36767578 -0.64819336 C-20.76864017 -0.72995731 -17.16951892 -0.80509744 -13.5703125 -0.87890625 C-12.44319855 -0.90594131 -11.31608459 -0.93297638 -10.15481567 -0.96083069 C-9.11388763 -0.98092697 -8.07295959 -1.00102325 -7.00048828 -1.02172852 C-5.62148849 -1.05170677 -5.62148849 -1.05170677 -4.21463013 -1.08229065 C-2 -1 -2 -1 0 0 Z " fill="#97DAFE" transform="translate(72,154)"/>
<path d="M0 0 C0 0.66 0 1.32 0 2 C0.66 2 1.32 2 2 2 C2 2.99 2 3.98 2 5 C2.66 5 3.32 5 4 5 C4 6.65 4 8.3 4 10 C3.34 10 2.68 10 2 10 C1.7525 9.236875 1.505 8.47375 1.25 7.6875 C-0.16199152 4.65171824 -1.17750863 3.72796211 -4 2 C-6.29292392 1.53409604 -6.29292392 1.53409604 -8.76855469 1.56762695 C-9.70922791 1.54783279 -10.64990112 1.52803864 -11.61907959 1.50764465 C-12.62650208 1.50125473 -13.63392456 1.49486481 -14.671875 1.48828125 C-16.22820648 1.46135445 -16.22820648 1.46135445 -17.815979 1.43388367 C-21.1272781 1.37973623 -24.43843267 1.34587015 -27.75 1.3125 C-29.99611388 1.27933091 -32.24220868 1.24484164 -34.48828125 1.20898438 C-39.99205791 1.12400729 -45.49585317 1.05567613 -51 1 C-51 0.67 -51 0.34 -51 0 C-44.86207256 -0.16824079 -38.72400852 -0.32873188 -32.58569336 -0.48217773 C-30.49937547 -0.53540756 -28.41310962 -0.59072079 -26.3269043 -0.64819336 C-23.32091489 -0.73063762 -20.31481541 -0.80548294 -17.30859375 -0.87890625 C-16.38227646 -0.90594131 -15.45595917 -0.93297638 -14.50157166 -0.96083069 C-9.52848194 -1.07434999 -4.900315 -0.87097161 0 0 Z " fill="#2FA4F0" transform="translate(71,109)"/>
<path d="M0 0 C1.77007714 -0.08114106 3.54122098 -0.13925505 5.3125 -0.1875 C6.29863281 -0.22230469 7.28476563 -0.25710937 8.30078125 -0.29296875 C11 0 11 0 12.84375 1.125 C14.52442783 3.85042351 14.28970839 6.01903988 14.1875 9.1875 C14.16042969 10.27417969 14.13335937 11.36085938 14.10546875 12.48046875 C14.07066406 13.31191406 14.03585938 14.14335938 14 15 C13.67 15 13.34 15 13 15 C12.67 11.04 12.34 7.08 12 3 C10.22625 2.95875 8.4525 2.9175 6.625 2.875 C5.62726563 2.85179687 4.62953125 2.82859375 3.6015625 2.8046875 C0.83737827 2.72783152 0.83737827 2.72783152 -1 5 C-1.46290221 7.66242821 -1.46290221 7.66242821 -1.625 10.625 C-1.69976562 11.62789062 -1.77453125 12.63078125 -1.8515625 13.6640625 C-1.90054688 14.43492188 -1.94953125 15.20578125 -2 16 C-3.39025391 16.07347656 -3.39025391 16.07347656 -4.80859375 16.1484375 C-6.00613281 16.22320312 -7.20367187 16.29796875 -8.4375 16.375 C-9.63246094 16.44460937 -10.82742187 16.51421875 -12.05859375 16.5859375 C-13.02925781 16.72257812 -13.99992187 16.85921875 -15 17 C-15.33 17.66 -15.66 18.32 -16 19 C-16 17.68 -16 16.36 -16 15 C-11.71 15 -7.42 15 -3 15 C-3 11.04 -3 7.08 -3 3 C-2.34 3 -1.68 3 -1 3 C-0.67 2.01 -0.34 1.02 0 0 Z " fill="#7BC5F3" transform="translate(68,45)"/>
<path d="M0 0 C3.06464658 4.59696987 3.50978289 9.17070494 2.53125 14.6015625 C1.11144793 19.70976343 -0.69889881 23.84700172 -4 28 C-4.66 28.33 -5.32 28.66 -6 29 C-6 27.68 -6 26.36 -6 25 C-5.34 25 -4.68 25 -4 25 C-4 24.01 -4 23.02 -4 22 C-3.34 22 -2.68 22 -2 22 C-2 20.35 -2 18.7 -2 17 C-1.34 17 -0.68 17 0 17 C0 11.39 0 5.78 0 0 Z " fill="#69B7E9" transform="translate(193,107)"/>
<path d="M0 0 C0.495 1.98 0.495 1.98 1 4 C-2.0204178 5.74787865 -4.10943258 6.23288111 -7.58496094 6.13525391 C-8.93590851 6.10499619 -8.93590851 6.10499619 -10.31414795 6.0741272 C-11.75966034 6.02583267 -11.75966034 6.02583267 -13.234375 5.9765625 C-14.22753723 5.95153656 -15.22069946 5.92651062 -16.24395752 5.90072632 C-19.41299033 5.81861976 -22.58139128 5.72199333 -25.75 5.625 C-27.89971386 5.56675094 -30.04945357 5.50944787 -32.19921875 5.453125 C-37.46649497 5.31305497 -42.73332622 5.16106474 -48 5 C-48 4.67 -48 4.34 -48 4 C-33.15 4 -18.3 4 -3 4 C-3 3.34 -3 2.68 -3 2 C-2.01 1.34 -1.02 0.68 0 0 Z " fill="#289EEC" transform="translate(72,119)"/>
<path d="M0 0 C0.33 0 0.66 0 1 0 C1.02689216 1.47906892 1.04634621 2.95827483 1.0625 4.4375 C1.07410156 5.26121094 1.08570312 6.08492187 1.09765625 6.93359375 C1 9 1 9 0 10 C-0.62458015 14.9966412 1.31156288 19.38694857 3 24 C0 23 0 23 -1.6875 20.375 C-4.51165507 13.11288697 -2.38652173 7.06012678 0 0 Z " fill="#60B9EE" transform="translate(120,172)"/>
<path d="M0 0 C0.66 0 1.32 0 2 0 C2.33 0.99 2.66 1.98 3 3 C2.49210937 3.35191406 1.98421875 3.70382813 1.4609375 4.06640625 C-3.42205707 7.56862895 -7.30303954 11.26677032 -11 16 C-12.25541557 12.23375329 -11.37061958 10.62811066 -10 7 C-8.68 7 -7.36 7 -6 7 C-5.67 5.68 -5.34 4.36 -5 3 C-3.35 3 -1.7 3 0 3 C0 2.01 0 1.02 0 0 Z " fill="#50B2F0" transform="translate(125,148)"/>
<path d="M0 0 C0.66 0 1.32 0 2 0 C1.80664062 0.54527344 1.61328125 1.09054688 1.4140625 1.65234375 C-1.80799499 10.98354984 -3.33354982 19.08615823 -3 29 C-6.37532304 23.3251541 -5.70452244 16.37716242 -4.39453125 10.09765625 C-3.28847373 6.27417822 -2.22181577 3.33272365 0 0 Z " fill="#6BBBEC" transform="translate(111,164)"/>
<path d="M0 0 C-0.60328125 0.24234375 -1.2065625 0.4846875 -1.828125 0.734375 C-6.88004673 2.79738565 -6.88004673 2.79738565 -11.125 6.125 C-13.73848113 8.73848113 -16.46147036 9.18341624 -20 10 C-15.51510203 3.83326529 -8.06703419 -2.50356233 0 0 Z " fill="#54AFE8" transform="translate(145,156)"/>
<path d="M0 0 C1.93719378 -0.05406122 3.87481921 -0.09282025 5.8125 -0.125 C6.89144531 -0.14820313 7.97039062 -0.17140625 9.08203125 -0.1953125 C12 0 12 0 15 2 C15.29296875 4.6015625 15.29296875 4.6015625 15.1875 7.625 C15.16042969 8.62789062 15.13335937 9.63078125 15.10546875 10.6640625 C15.07066406 11.43492188 15.03585938 12.20578125 15 13 C14.34 13 13.68 13 13 13 C12.93941406 12.28972656 12.87882812 11.57945313 12.81640625 10.84765625 C12.73261719 9.92855469 12.64882812 9.00945312 12.5625 8.0625 C12.48128906 7.14597656 12.40007812 6.22945313 12.31640625 5.28515625 C12.23955024 3.03840268 12.23955024 3.03840268 11 2 C9.15108054 1.76636119 7.29511969 1.58696365 5.4375 1.4375 C4.42558594 1.35371094 3.41367188 1.26992188 2.37109375 1.18359375 C1.19740234 1.09271484 1.19740234 1.09271484 0 1 C0 0.67 0 0.34 0 0 Z " fill="#70BFF0" transform="translate(82,60)"/>
<path d="M0 0 C0.33 0 0.66 0 1 0 C2.19638718 6.35670781 2.19222083 10.29960566 -1 16 C-2.5625 17.9375 -2.5625 17.9375 -4 19 C-4.66 19 -5.32 19 -6 19 C-5.505 17.515 -5.505 17.515 -5 16 C-4.34 16 -3.68 16 -3 16 C-2.08767571 12.61371526 -1.50163573 9.21003249 -0.9375 5.75 C-0.76089844 4.67234375 -0.58429688 3.5946875 -0.40234375 2.484375 C-0.26957031 1.66453125 -0.13679687 0.8446875 0 0 Z " fill="#69B7E8" transform="translate(216,178)"/>
<path d="M0 0 C2.475 0.495 2.475 0.495 5 1 C5.99 3.97 6.98 6.94 8 10 C3.59568018 7.79784009 2.4278596 6.16204503 0 2 C0 1.34 0 0.68 0 0 Z " fill="#5AB5EE" transform="translate(142,128)"/>
<path d="M0 0 C0.66 0.33 1.32 0.66 2 1 C1.67 1.66 1.34 2.32 1 3 C-1.31 3 -3.62 3 -6 3 C-6 3.99 -6 4.98 -6 6 C-10.55384615 6.36923077 -10.55384615 6.36923077 -12.8125 4.5 C-13.204375 4.005 -13.59625 3.51 -14 3 C-9.23692563 2.04738513 -4.8333472 1.91666643 0 2 C0 1.34 0 0.68 0 0 Z " fill="#229EEF" transform="translate(80,88)"/>
<path d="M0 0 C0.99 0.33 1.98 0.66 3 1 C1.72278474 5.99275057 -0.17330957 8.57611908 -4 12 C-4 10.68 -4 9.36 -4 8 C-3.34 8 -2.68 8 -2 8 C-2 7.01 -2 6.02 -2 5 C-1.34 5 -0.68 5 0 5 C0 3.35 0 1.7 0 0 Z " fill="#53B0EC" transform="translate(191,124)"/>
<path d="M0 0 C0.33 0.99 0.66 1.98 1 3 C1.66 3 2.32 3 3 3 C4.65 5.97 6.3 8.94 8 12 C4.81537776 11.05322042 3.26302338 10.33558155 1.1875 7.6875 C-0.06161737 4.86055017 -0.26151458 3.05100339 0 0 Z " fill="#63B3EA" transform="translate(19,184)"/>
<path d="M0 0 C3.06977856 3.47908237 5.00631858 6.42906548 6 11 C5.01 12.485 5.01 12.485 4 14 C1.90649311 10.5980513 1.82057837 7.94727588 2 4 C1.34 4 0.68 4 0 4 C0 2.68 0 1.36 0 0 Z " fill="#51B0EE" transform="translate(210,166)"/>
<path d="M0 0 C3.37462715 0.54723683 5.08235 1.0549 8 3 C8.1875 6.625 8.1875 6.625 8 10 C7.01 10 6.02 10 5 10 C5 8.02 5 6.04 5 4 C2.525 3.01 2.525 3.01 0 2 C0 1.34 0 0.68 0 0 Z " fill="#5EB7ED" transform="translate(67,143)"/>
<path d="M0 0 C0.66 0.33 1.32 0.66 2 1 C-1.33562767 5.51290803 -3.33289301 7.68206814 -9 9 C-7.48328036 4.44984107 -3.83108947 2.49942736 0 0 Z " fill="#62B8ED" transform="translate(154,92)"/>
<path d="M0 0 C1.32 0 2.64 0 4 0 C3.52797514 4.24822374 1.03344482 6.19989709 -2 9 C-1.34 6.03 -0.68 3.06 0 0 Z " fill="#49ABEB" transform="translate(115,155)"/>
<path d="M0 0 C-0.66 1.32 -1.32 2.64 -2 4 C-2.66 4 -3.32 4 -4 4 C-4 3.34 -4 2.68 -4 2 C-6.31 2 -8.62 2 -11 2 C-11 4.64 -11 7.28 -11 10 C-11.33 10 -11.66 10 -12 10 C-12 7.03 -12 4.06 -12 1 C-10.37512529 0.83211627 -8.75009558 0.66573213 -7.125 0.5 C-6.22007813 0.4071875 -5.31515625 0.314375 -4.3828125 0.21875 C-2 0 -2 0 0 0 Z " fill="#279AE7" transform="translate(94,76)"/>
<path d="M0 0 C2.88437779 1.29299694 4.87219421 2.65941363 7 5 C6 7 6 7 4 8 C3.67 7.34 3.34 6.68 3 6 C2.01 5.67 1.02 5.34 0 5 C0 3.35 0 1.7 0 0 Z " fill="#46ACEE" transform="translate(120,27)"/>
<path d="M0 0 C-1.4096347 0.70180531 -2.82807641 1.38593958 -4.25 2.0625 C-5.03890625 2.44535156 -5.8278125 2.82820312 -6.640625 3.22265625 C-9.25993522 4.08564091 -10.44855176 3.93045933 -13 3 C-11.5903653 2.29819469 -10.17192359 1.61406042 -8.75 0.9375 C-7.96109375 0.55464844 -7.1721875 0.17179688 -6.359375 -0.22265625 C-3.74006478 -1.08564091 -2.55144824 -0.93045933 0 0 Z " fill="#6CBAED" transform="translate(145,156)"/>
<path d="M0 0 C0.33 1.32 0.66 2.64 1 4 C-2.13498292 5.85776765 -4.37471432 6.20140476 -8 6 C-7.67 5.34 -7.34 4.68 -7 4 C-5.68 4 -4.36 4 -3 4 C-3 3.34 -3 2.68 -3 2 C-2.01 1.34 -1.02 0.68 0 0 Z " fill="#48ADEF" transform="translate(72,119)"/>
<path d="M0 0 C1.32 0 2.64 0 4 0 C3.375 1.875 3.375 1.875 2 4 C-1.125 5.25 -1.125 5.25 -4 6 C-4 5.01 -4 4.02 -4 3 C-2.35 3 -0.7 3 1 3 C0.67 2.01 0.34 1.02 0 0 Z " fill="#59B2EF" transform="translate(182,136)"/>
<path d="M0 0 C2 1 2 1 2.6328125 2.84765625 C2.79523438 3.57855469 2.95765625 4.30945313 3.125 5.0625 C3.29257813 5.79597656 3.46015625 6.52945313 3.6328125 7.28515625 C3.75398438 7.85105469 3.87515625 8.41695312 4 9 C1 8 1 8 -0.25 5.625 C-1 3 -1 3 0 0 Z " fill="#53B3EF" transform="translate(119,187)"/>
<path d="M0 0 C0.66 0.33 1.32 0.66 2 1 C-0.46153846 5.8 -0.46153846 5.8 -3.1875 6.8125 C-3.785625 6.874375 -4.38375 6.93625 -5 7 C-3.70700306 4.11562221 -2.34058637 2.12780579 0 0 Z " fill="#60B8ED" transform="translate(25,27)"/>
</svg>
